<?xml version="1.0" encoding="UTF-8"?>
<svg version="1.1" viewBox="0 0 2000 2000" width="500" height="500" xmlns="http://www.w3.org/2000/svg">
<path transform="translate(1025,280)" d="m0 0h18l41 4 38 5 33 6 31 7 32 9 41 14 28 11 34 14 19 9 9 7 6 7 2 6-1 8-1 4 5 5 19 14 18 13 26 20 17 14 14 12 13 12 7 6v2l4 2 20 20 7 8 14 15 9 11 11 13 11 14 14 19 14 21 13 21 11 19 14 26 17 36 12 30 11 31 8 28 4 17 1 2 12 2 5 5 4 9 5 22 7 45 4 41v9l-2 7-8 7-10 2 1 4v47l11 3 6 5 4 8 1 10-2 19-9 50-6 31-4 13-6 10-5 4-5 3-8 20-22 50-7 16-8 15-1 3 10 3 8 6 3 8-2 11-8 17-16 26-16 24-10 14-12 16-10 13-11 13-8 10-10 11-9 11-11 12-7 8-9 8-7 3h-7l-14-7-8 10-7 8-11 9-13 11-19 14-17 12-15 10-17 11-20 12-25 14-19 10-27 13-28 12-29 11-27 9-36 10-37 8-38 6-42 4-18 1h-57l-29-2-35-4-39-7-30-7-23-6-35-11-29-11-26-11-34-16-27-14-23-13-23-14-27-18-17-12-16-12-11-9-10-9-13-13-2-3-4 1-8 3-9-2-8-6-12-11-10-10-7-8-8-8-9-11-10-11-11-14-12-15-15-20-14-20-14-19-8-13-3-8v-9l3-5 9-6 9-2-5-13-13-33-13-35-9-25-4-6-8-6-5-6-8-16-6-20-7-33-7-50-1-9v-10l3-7 4-5 11-6 1-2v-11l1-19 3-14-8-2-9-6-5-8-1-8 6-42 7-37 9-38 10-34 9-26 11-28 11-25 14-29 8-14 6-11 14-24 16-24 10-13 11-7 6-3 6-7 10-14 8-11 13-16 8-10 15-16 7-8 30-30 8-7 13-12 22-18 21-16 17-12 15-10 19-12 21-12 23-12 26-12 33-13 40-14 47-15 15-4 2-11 5-7 6-3 16-3 16-2 14-1h16l12 2 6 4 4 7 3 9 22-1 25-3 3-9 5-8 8-5z" fill="#8FC8E5"/>
<path transform="translate(1333,586)" d="m0 0h11l6 4 5 6 1 3v14l-7 92-3 31-4 22-6 22-10 25-10 19-14 20-9 11-14 15-9 9-8 7-13 11-17 13-11 8-20 14-15 10-20 13-21 12-4 2-1 25-5 20-10 35-7 29-4 25-1 10v24l4 27 6 20 10 21 7 11 6 5 57 19 25 10 8 5 3 4-1 13 18 2 28 4 8 2 5-1 3-3h9l18 4 17 6 13 8 8 5 15 15h16l27-2 40-1 89-1 30-1 16-1 9-2 2-5 9-11 7-7 9 1 9 6 3 5 1 7-4 13-9 17-15 24-14 21-10 14-12 16-10 13-11 13-8 10-10 11-9 11-11 12-7 8-9 8-7 3h-7l-14-7-8 10-7 8-11 9-13 11-19 14-17 12-15 10-17 11-20 12-25 14-19 10-27 13-28 12-29 11-27 9-36 10-37 8-38 6-42 4-18 1h-57l-29-2-35-4-39-7-30-7-23-6-35-11-29-11-26-11-34-16-27-14-23-13-23-14-27-18-17-12-16-12-11-9-10-9-13-13-2-3-4 1-8 3-9-2-8-6-12-11-10-10-7-8-8-8-9-11-10-11-11-14-12-15-15-20-14-20-14-19-8-13-3-8v-9l3-5 9-6 7-2 6 1 13 16v2l3 1h13l26-2h194l8-6 1-2h2l2-4 12-9 14-8 17-8 34-12 49-17 48-17 26-9 12-6 9-8 8-14 6-16 4-14 4-20 2-21-1-34-5-29-7-26-8-20-8-16-6-15v-6l1-1v-8l-5-4-16-11-72-52-14-11-14-12-17-16-12-13-11-14-12-19-9-19-8-24-6-28-4-27-4-38-5-60v-22l4-6 5-4 4-2h8l6 3 6 7 2 5 3 44 4 35 1 15 4 8 9 11 14 15 26 26 8 7 13 11 17 12 22 14 18 10 23 12 23 10 16 8 9 7 6 5 7 11 3 7 4-2 8-5 13-3h14l29 4 13 1h30l21-2 18-3h9l16 4 5-5 4-9 10-8 20-8 24-8 23-10 14-7 11-6 22-14 19-14 11-9 13-11 15-14 12-12 7-8 14-17 5-10 2-9 4-59 1-17 3-12 4-7z" fill="#1F9CBA"/>
<path transform="translate(1333,586)" d="m0 0h11l6 4 5 6 1 3v14l-7 92-3 31-4 22-6 22-10 25-10 19-14 20-9 11-14 15-9 9-8 7-13 11-17 13-11 8-20 14-15 10-20 13-21 12-4 2-1 25-5 20-10 35-7 29-4 25-1 10v24l4 27 6 20 10 21 7 11 6 5 57 19 25 10 8 5 3 4-1 10-3 6-4 5-12 6-17-4-26-7-23-7-21-9-17-9-5-2-33 2-28 2h-60l-40-1h-55l-21 5-29 10-99 36-46 17-16 8-9 6-6 7-5 10-1 4v17l4 11 6 8 8 7 16 8 16 5 38 8 37 7 23 5 11 3 15 3 17 4 21 5 14 3 36 6 32 3 29-1v-2l-7-1-24-6-16-6-38-15-24-7-35-9-28-8-19-7-13-7-6-5 1-5 9-12 9-9 3-2h8l38 12 32 8 22 5 8 1h13l16-3 25-7 7-2-1-2-14-4h-14l-37-5-15-5-10-6-5-4-1-2v-10l7-8 5-2 113-1 67-1h64l6 7 1 4v11l-4 10-5 6-11 4-6 1-84 1-4 1 1 4 7 4 26 4 35 4 64 6 31 4 19 5 15 8 9 8 7 11 3 8v11l-4 8-4 5-7 4-13 4-27 5-36 8-30 7-78 18-10 1h-33l-19-2-47-8-131-25-20-4-20-3-23-5-29-6-23-7-17-8-11-8-10-9-4-5-6-9-6-14-2-8-1-12v-23l4-15 6-12 8-10h2l2-4 12-9 14-8 17-8 34-12 49-17 48-17 26-9 12-6 9-8 8-14 6-16 4-14 4-20 2-21-1-34-5-29-7-26-8-20-8-16-6-15v-6l1-1v-8l-5-4-16-11-72-52-14-11-14-12-17-16-12-13-11-14-12-19-9-19-8-24-6-28-4-27-4-38-5-60v-22l4-6 5-4 4-2h8l6 3 6 7 2 5 3 44 4 35 1 15 4 8 9 11 14 15 26 26 8 7 13 11 17 12 22 14 18 10 23 12 23 10 16 8 9 7 6 5 7 11 3 7 4-2 8-5 13-3h14l29 4 13 1h30l21-2 18-3h9l16 4 5-5 4-9 10-8 20-8 24-8 23-10 14-7 11-6 22-14 19-14 11-9 13-11 15-14 12-12 7-8 14-17 5-10 2-9 4-59 1-17 3-12 4-7z" fill="#053148"/>
<path transform="translate(940,900)" d="m0 0h20l32 3h27l29-3h12l6 4 10 14 16 31 9 21 3 11-1 13-12 48-7 29-5 27-2 21v25l3 23 7 25 6 13-1 5-31 3-28 1h-26l-80-2-18-1-1-2 12-28 5-17 3-16 1-11v-14l-2-22-6-32-14-53-6-24-1-6v-12l4-13 7-16 10-18 11-17z" fill="#FD5170"/>
<path transform="translate(998,637)" d="m0 0 18 1 19 5 18 8 12 8 14 12 10 12 9 16 6 15 3 13 1 8v21l-3 17-5 15-8 16-9 12-8 9-11 9-13 8-15 7-25 6h-25l-15-3-15-5-13-7-11-8-8-7-10-13-8-14-6-14-5-23v-29l3-16 6-15 9-17 9-11 9-9 14-10 16-8 14-5 13-3z" fill="#053148"/>
<path transform="translate(997,674)" d="m0 0h16l15 4 13 7 12 11 10 15 6 19 1 7v20l-3 14-5 12-7 11-7 7-10 7-15 6-15 3h-16l-17-4-12-6-11-9-8-10-8-16-3-12-1-6v-17l3-15 3-7 6-11 9-11 12-9 12-6 11-3z" fill="#FEDAAF"/>
<path transform="translate(436,596)" d="m0 0h5l10 9 3 6-1 10-4 8-11 16-10 15-13 21-10 17-15 30-8 17-13 32-9 25-12 41-7 30-6 38-3 30-2 16-4 8-9 6h-6l-10-6-6-9-1-8 6-42 7-37 9-38 10-34 9-26 11-28 11-25 14-29 8-14 6-11 14-24 16-24 10-13z" fill="#053249"/>
<path transform="translate(1025,280)" d="m0 0h18l41 4 38 5 33 6 31 7 32 9 41 14 28 11 34 14 19 9 9 7 6 7 2 6-1 8-1 2h-2v3l-8 4-7 1-9-3-34-15-26-11-37-14-30-10-24-7-37-8-20-4-19-3-19-2-27-3-29-2-10-5-9-8v-6l5-9 9-6z" fill="#053249"/>
<path transform="translate(1300,1276)" d="m0 0h9l18 4 17 6 13 8 10 9 9 10 9 13 5 14 1 3v31l-4 15-6 14-10 14-12 12-15 9-16 5h-8l-12-4-6-7-1-3v-9l5-8 9-7 19-12 7-6 6-9 3-9v-13l-3-10-6-10-7-8-10-7-24-10-6-4-3-3-1-8 3-12z" fill="#053148"/>
<path transform="translate(1302,767)" d="m0 0 2 1-2 9-5 13-5 10-7 10-9 12-7 7-7 8-15 14-13 11-14 11-10 8-18 13-18 12-19 12-15 10-11 9h-2l-7-12-8-13-14-25-4-6v-2l23-4 19-5 23-8 26-12 23-13 19-12 13-9 17-12 13-10 13-11 15-13z" fill="#1F9CBA"/>
<path transform="translate(700,760)" d="m0 0h2l5 8 13 13 7 8 10 9 11 9 18 13 14 9 28 16 26 12 37 14 22 8 11 2-3 9-16 32-6 13-3 6-4-2-12-10-11-8-10-6-11-7-8-7-9-6-15-11-13-10-9-7-13-11-12-11v-2h-2l-7-8-11-14-10-15-10-18-7-19z" fill="#1F9CBA"/>
<path transform="translate(1628,1284)" d="m0 0h6l9 6 3 5 1 7-4 13-9 17-15 24-14 21-10 14-12 16-10 13-11 13-8 10-10 11-9 11-11 12-7 8-9 8-7 3h-7l-10-5-4-5 1-8 6-10 3-1 2-4 7-8 6-7 5-5 7-8h2l1-4 5-5 13-16 7-9 13-17 3-5h2l1-4 9-12 12-18 10-16 9-15 8-11 7-11 5-4z" fill="#053249"/>
<path transform="translate(375,1299)" d="m0 0h5l5 4 12 16 10 13 8 12 9 12 10 14 9 12 18 22 11 13 7 8 11 12 7 8 13 15 11 15 1 2v6l-3 8-6 4-7 1-7-3-6-4-13-12-10-10-7-8-8-8-9-11-10-11-11-14-12-15-15-20-14-20-14-19-8-13-3-8v-9l3-5 9-6z" fill="#053249"/>
<path transform="translate(993,1398)" d="m0 0 11 3 17 5 30 6 23 3 38 4 70 6 1 3-56 11-67 14-24 5h-7l-7-6-18-11-19-10-10-4-15-8v-3l19-11z" fill="#FDDAAF"/>
<path transform="translate(309,1020)" d="m0 0 7 1 8 7 5 10 3 12 7 49 7 39 6 21v11l-4 7-5 4-6 2h-6l-7-7-8-16-6-18-6-26-6-38-4-32v-10l3-7 4-5z" fill="#053249"/>
<path transform="translate(1686,1024)" d="m0 0h9l7 4 5 7 2 13-2 19-9 50-6 31-4 13-6 10-5 4-3 2-6-1-9-6-4-7v-10l8-33 3-13 4-24 7-39 5-14z" fill="#053249"/>
<path transform="translate(1668,823)" d="m0 0h10l6 3 4 6 4 13 7 39 4 31 3 31v9l-2 7-8 7h-11l-6-4-3-3-3-10-5-38-3-22-2-13-5-30v-12l4-9z" fill="#053249"/>
<path transform="translate(918,285)" d="m0 0h16l12 2 6 4 4 7 1 7-6 7-8 4-16 4-5 1-14 1h-35l-5-3-7-8v-10l5-7 6-3 16-3 16-2z" fill="#05324A"/>
<path transform="translate(441,594)" d="m0 0 4 2 8 7 4 8-1 10-7 14-10 15h-2l-1 4-14 22-10 17-6 10-8 16-11 23-6 13-9 23-7 20-8 24-6 23-4 16-5 23-5 34-2 26-3 16-4 6-7 6-4 1-2-2 10-6 4-8 2-16 3-30 4-25 4-22 8-32 10-33 11-30 11-26 10-22 11-20 12-22 12-19 10-15 13-19 3-9-1-9-8-9-6-3z" fill="#1F9CBA"/>
<path transform="translate(1012,306)" d="m0 0 9 5 6 3 41 3 21 3 18 2 24 4 34 7 27 7 31 10 20 7 33 13 21 9 36 16 8 1 10-4h2l1-3-1 5-8 4-8 1-12-4-15-7-25-11-34-14-30-11-32-10-40-10-33-6-30-4-38-4-18-1-10-3-8-6z" fill="#1F9CBA"/>
<path transform="translate(659,586)" d="m0 0h12l5 3 6 7 3 9 2 35 3 32v10h-1l-4-35-3-44-4-8-6-5-3-1h-8l-8 5-4 6v22l6 72 5 40v7h-1l-7-51-3-30-3-38v-22l4-8 6-5z" fill="#1F9CBA"/>
<path transform="translate(1685,1022)" d="m0 0 6 1v1l-5 1-6 12-3 12-8 45-3 17-7 30-3 12v10l5 8 11 6-1 2-5-1-8-5-4-5-2-5v-8l9-38 15-78 3-8 5-8z" fill="#1F9CBA"/>
<path transform="translate(312,1018)" d="m0 0 5 2 7 5v2h2l6 12 4 23 6 42 8 40 4 15v12l-3 6-5 4-5 3-6 1-2-2 10-3 5-4 3-6v-11l-6-21-8-45-7-49-5-13-6-7-8-4z" fill="#1F9CBA"/>
<path transform="translate(843,962)" d="m0 0 6 1 8 6 1 1v8l-4 6-9-1-7-3-3-4 1-6z" fill="#F9FBFC"/>
<path transform="translate(1666,822)" d="m0 0 3 1-5 5h-2l-3 9v12l5 30 2 13 5 39 4 25 3 7 5 4 9 2v1l-8 1-8-6-4-9-4-24-6-42-3-24-3-18v-11l3-7z" fill="#1F9CBA"/>
<path transform="translate(860,304)" d="m0 0h1l1 7 7 8 4 2h35l14-1 15-3 12-5 6-5 2-2-1 4-7 6-16 6-17 3-20 1h-17l-9-2-4-4-6-7z" fill="#1F9CBA"/>
<path transform="translate(1666,822)" d="m0 0 3 1-5 5h-2l-3 9h-2l1-6z" fill="#219DBB"/>
</svg>
