<?xml version="1.0" encoding="UTF-8"?>
<svg version="1.1" viewBox="0 0 2048 2048" width="512" height="512" xmlns="http://www.w3.org/2000/svg">
<path transform="translate(489,595)" d="m0 0h15l10 4 9 6 190 190 7 11 3 9v9l-4 13-3 6 7 8 34 34 7 12 2 9-1 11-4 10-4 6v3l4 5 8 7 20 20 11 9 17 13 15 9 16 8 15 6 14 4 83 16 23 6 25 9 16 7 23-10 25-8 26-6 64-12 23-6 22-9 21-12 19-14 12-11 8-7 20-20 4-3-1-5-5-8-3-10v-10l3-10 7-10 21-21 3-4h2l2-4h2l1-3 8-7-1-6-4-9-1-4v-12l5-13 11-12 186-186 10-6 7-2h15l11 4 9 7 356 356 6 10 3 8v15l-4 11-7 9-12 13-4 4h-2v2h-2v2h-2v2l-8 7-47 47-5 6-7 6-5 6-7 6-5 6-7 6-5 6-7 6-5 6-7 6-5 6-8 7-11 11-7 8h-2l-2 4-8 8h-2l-1 3-13 10-6 3-8 2h-10l-12-4-9-7h-4l-40 40-8 5-10 3h-12l-10-3-9-6-4 2-77 77-7 8-12 14-14 21-12 22-9 17-8 16-13 22-13 18-9 10-7 8-59 59 1 5 4 13 1 5v21l-4 16-7 14-7 9-9 9-11 7-12 5-12 3-14 1v11l-3 14-5 12-7 11-12 12-13 8-13 5-8 2-15 1v11l-3 14-5 12-7 11-12 12-11 7-15 6-8 2-15 1 1 5-3 17-5 13-6 10-9 10-9 8-16 8-15 4h-23l-12-3-12-5-10-7-10-9-374-374-7-8-12-15-10-15-9-16-15-29-11-21-10-16-13-17-9-10-7-8-76-76-4 1-10 6-7 2h-13l-11-4-8-6-39-39-4 1-7 6-10 4-4 1h-10l-10-3-9-6-194-194-6-12-1-3v-17l5-12 9-10 339-339 5-6 8-7 8-6z" fill="#010101"/>
<path transform="translate(725,964)" d="m0 0 4 1 3 3v2l4 2 17 17 8 7 13 12 19 14 16 10 23 12 24 9 26 6 65 12 23 6 10 3v3l-11 8-15 13-10 10h-2v2h-2v2h-2v2h-2v2h-2v2h-2v2h-2v2h-2v2h-2v2h-2v2h-2v2h-2v2h-2v2h-2v2h-2v2h-2v2h-2v2h-2l-2 4-8 8h-2v2h-2v2h-2v2h-2v2h-2v2h-2v2h-2v2h-2v2h-2l-2 4-8 9-8 14-5 17-1 7v16l3 14 5 13 7 12 11 12 13 9 13 6 11 3 6 1h21l16-4 16-8 10-8 13-12 22-22 4 1 150 150 7 8 130 130 5 8 3 10-1 13-6 12-7 7-11 5-4 1h-12l-10-4-11-9-242-242-9-4h-7l-10 5-4 6-1 3v10l4 7 9 10 234 234 8 10 4 13-1 11-4 10-9 10-11 5-4 1h-12l-10-4-11-9-241-241-10-5h-7l-10 5-4 6-1 3v10l4 7 11 12 231 231 9 11 4 13-1 11-4 10-9 10-11 5-4 1h-12l-10-4-11-9-241-241-7-4-10-1-10 5-4 6-1 3v10l4 7 9 10 233 233 9 11 4 13-1 11-4 10-8 9-12 6-5 1h-9l-11-4-9-6-375-375-7-8-13-17-9-15-15-28-11-22-13-22-8-11-11-14-9-10-7-8-79-79 3-5z" fill="#F7CFB3"/>
<path transform="translate(1009,209)" d="m0 0h30l25 3 20 4 22 7 20 8 21 11 18 12 13 10 11 10 8 7 12 13 13 17 10 15 12 22 8 19 7 21 5 23 3 24v33l-2 18-3 17-5 20-10 27-10 20-13 21-10 13-12 14-16 16-11 9-15 11-20 12-23 11-22 8-24 6-30 4h-37l-22-3-23-5-24-8-28-13-22-14-13-10-14-12-15-15-9-11-10-13-12-19-8-15-10-25-6-19-5-24-2-17v-40l3-23 6-25 10-28 12-24 11-17 12-16 9-10 7-8 8-8 8-7 18-14 25-15 21-10 22-8 24-6 21-3z" fill="#8FCF4E"/>
<path transform="translate(1321,963)" d="m0 0 7 6 241 241-1 5-81 81-7 8-12 14-12 17-14 24-21 41-8 14-11 16-9 11-12 13-51 51-5-1-145-145-5-6-8-7-7-7-5-6-7-6-5-6-7-6-7-8-75-75-1-3 5-4 5 1 19 10 18 8 20 7 23 6 25 4 26 2h11l26-2 24-4 16-4 8-5 4-6 1-4v-7l-4-8-7-6-3-1h-8l-30 6-18 2h-28l-24-3-23-5-27-9-29-14-18-11-6-2-8 1-9 6-9 9-8 7-8 8-8 7-46 46-9 6-10 4-4 1h-10l-13-4-9-6-7-8-5-11-1-4v-14l3-10 6-9 12-13 60-60 8-7 12-10 14-10 13-8 14-8 20-9 30-10 34-7 44-8 26-6 22-8 16-8 18-10 18-13 16-13 13-12 7-7h2l1-3 8-7z" fill="#F7CFB3"/>
<path transform="translate(495,636)" d="m0 0 4 1 181 181-1 5-17 17-2 3h-2l-2 4h-2l-2 4h-2l-2 4-152 152h-2l-2 4h-2l-2 4h-2l-2 4-100 100h-2l-2 4-4 4h-2l-2 4h-2l-2 4h-2l-2 4h-2l-2 4-29 29-4-1-182-182 1-5 8-7z" fill="#FB677E"/>
<path transform="translate(1550,636)" d="m0 0 4 1 349 349-1 4-182 182-4-1-9-10-340-340 2-4 153-153h2l2-4z" fill="#6FD4FB"/>
<path transform="translate(1009,209)" d="m0 0h30l25 3 20 4 22 7 20 8 21 11 18 12 13 10 11 10 8 7 12 13 13 17 10 15 12 22 8 19 7 21 5 23 3 24v33l-2 18-3 17-5 20-10 27-10 20-13 21-10 13-12 14-16 16-11 9-15 11-20 12-23 11-22 8-24 6-30 4h-37l-22-3-23-5-24-8-28-13-22-14-13-10-14-12-15-15-9-11-10-13-12-19-8-15-10-25-6-19-5-24-2-17v-40l3-23 6-25 10-28 12-24 11-17 12-16 9-10 7-8 8-8 8-7 18-14 25-15 21-10 22-8 24-6 21-3zm0 40-27 4-21 6-20 8-16 8-15 9-17 13-13 12-8 8-9 11-12 17-10 18-8 19-7 23-4 22-1 10v29l2 17 5 24 6 18 8 18 10 18 9 13 9 11 7 7 5 6 16 14 17 12 22 12 20 8 19 6 22 4 13 1h29l27-4 24-7 15-6 16-8 17-10 13-10 10-9 8-7 9-11 7-8 14-21 11-22 8-22 4-16 3-16 1-11v-26l-2-19-4-20-9-27-11-23-11-17-10-13-14-15-13-12-15-11-13-8-19-10-25-9-20-5-24-3z" fill="#020101"/>
<path transform="translate(1092,357)" d="m0 0h14l12 2 14 6 9 7 7 7 8 13 5 16v20l-4 13-6 12-12 14-20 20-8 7-9 10-19 19h-2v2l-8 7-12 13-8 8h-2v2l-14 11-11 5-11 3h-17l-16-4-14-8-13-12-57-57-9-13-6-16-1-8v-11l2-10 5-13 6-9 8-9 12-8 15-5 5-1h16l16 4 11 6 13 12 9 9 5 4 7-6 46-46 13-9 12-5z" fill="#010101"/>
<path transform="translate(685,872)" d="m0 0 4 1 35 35-2 4-297 297-4-1-34-34 1-5z" fill="#D9E5EF"/>
<path transform="translate(1361,871)" d="m0 0 7 6v2l4 2 281 281v2h2v2l4 2 2 3-1 4-34 34-4-1-298-298 2-4z" fill="#D9E6F1"/>
<path transform="translate(1094,397)" d="m0 0h12l8 4 6 8 2 7-1 9-6 9-96 96-9 4h-10l-8-4-5-4v-2l-4-2v-2l-4-2v-2l-4-2v-2l-4-2v-2l-4-2v-2l-4-2v-2l-4-2v-2l-4-2-8-8v-2l-4-2v-2l-4-2-10-10-6-9-1-3v-10l4-8 7-6 8-3 11 2 8 6 33 33 6 3 8 1 10-4 10-9 60-60z" fill="#D8E6EE"/>
<path transform="translate(1853,549)" d="m0 0h9l10 4 8 9 3 9v22h22l11 4 7 7 4 9v11l-5 10-8 7-9 3h-22v24l-4 9-5 6-8 4-5 1h-8l-8-3-8-7-5-10-1-23h-17l-12-3-8-6-6-12v-10l4-10 7-7 10-4 22-1 1-22 4-10 7-7z" fill="#8FD04E"/>
<path transform="translate(237,1280)" d="m0 0 3 3 6 18 8 14 10 12 13 10 11 6 12 5 10 3 1 3-21 7-13 7-11 9-8 8-9 14-5 11-4 13-3 2-3-7-5-13-8-14-7-9-9-9-14-9-17-7-9-2v-4l18-6 12-6 12-9 5-4 10-13 5-8 6-15 3-9z" fill="#F8CB98"/>
<path transform="translate(705,177)" d="m0 0h2l4 12 6 11 9 10 9 7 15 7 7 2-1 2-16 6-12 8-8 8-8 13-5 14h-2l-7-17-7-10-5-6-13-9-18-7-1-2 19-7 10-7 10-10 6-10 5-14z" fill="#6FD5FB"/>
<path transform="translate(2019,792)" d="m0 0 12 2 9 6 8 12v15l-6 10-9 7-9 3-11-1-10-5-7-9-3-10 1-10 4-8 4-5 8-5z" fill="#F9CB97"/>
<path transform="translate(1467,1608)" d="m0 0 12 2 9 6 4 5 4 10v9l-4 10-6 7-10 5-10 1-10-3-8-6-5-9-2-7 1-10 4-8 4-5 8-5z" fill="#FA687F"/>
<path transform="translate(19,1113)" d="m0 0h16l8 4 7 7 4 9v13l-5 10-8 7-7 3-9 1-8-2-7-4-6-7-4-6v-17l7-10 8-6z" fill="#6FD5FB"/>
<path transform="translate(2020,798)" d="m0 0h2l1 1 1 3-4 1h-2l1 4-4 2-1-4h-2v-3l7-2z" fill="#FB677E"/>
<path transform="translate(241,1383)" d="m0 0h1v7h-2l1 3-2 3-4-2 2-1-2-4 5-5z" fill="#FB677E"/>
</svg>
