<?xml version="1.0" encoding="UTF-8"?>
<svg version="1.1" viewBox="0 0 1872 1236" width="1280" height="1280" xmlns="http://www.w3.org/2000/svg">
<path transform="translate(949,92)" d="m0 0h35l22 2 33 5 20 5 26 8 31 12 19 9 16 9 21 13 18 13 10 8 13 11 13 12 12 12 7 8 10 11 12 16 16 26 11 19 12 27v2h32l6-3 12-11 6-7 8-7 11-12 10-9 13-13 8-7 11-9 10-6 18-6 16-2 10 2 7 4 4 5 2 4 1 12-3 16-5 12-7 11-30 30-11 9-12 11-10 8-13 11-6 5-4 6-1 3v53l2 32 1 1 15 2 1 4-2 7-8 9-4 8-1 4v21l1 24 1 10 14 4 1 4-5 10-8 9v78l-3 6-9 9-6 1-8-24-7-30-5-22-7-31-9-40-6-17-2-1 2 3 1 5-1 282-1 23-2 17-11 46-12 34-16 34-10 17-7 11-13 19-13 16-9 10-7 8-18 18-8 7-16 13-12 9-15 10-19 11-10 6-16 8-24 11-14 5-21 6-35 8-24 4-30 2h-43l-15-1-25-5-31-7-30-9-28-12-22-11-21-12-15-10-15-11-15-12-11-9-8-8-8-7-14-14-11-14-13-18-2-2-6 1-16 6-16 7-21 6-17 5-16 5-29 5-25 2h-29l-31-4-18-5-17-8-13-10-8-7-7-9-7-15-5-18-2-14v-32l3-25 7-27 10-25 8-18 8-14 9-20 13-22 11-16 8-12 14-19 10-13 10-14 12-16 9-11 11-14 14-17 11-12 8-10h2l2-4 9-11 1-1h16l1-13 1-69 1-31 4-41 9-45 8-27 8-20 7-16 8-17 10-19 10-17 10-13 12-16 11-13 9-11 10-10 8-7 8-8 11-9 14-11 30-20 19-11 17-9 27-11 21-8 35-10 23-4 31-4zm-379 668-9 9-11 14-7 12-7 14-4 7-4 11-3 18v15l3 10 5 5 7 2 8 1h40l1-5-5-31-8-50-4-32z" fill="#F7A511"/>
<path transform="translate(949,92)" d="m0 0h35l22 2 33 5 20 5 26 8 31 12 19 9 16 9 21 13 18 13 10 8 13 11 13 12 12 12 7 8 10 11 12 16 16 26 11 19 12 27v2h32l6-3 12-11 6-7 8-7 11-12 10-9 13-13 8-7 11-9 10-6 18-6 16-2 10 2 7 4 4 5 2 4 1 12-3 16-5 12-7 11-30 30-11 9-12 11-10 8-13 11-6 5-4 6-1 3v53l2 32 1 1 15 2 1 4-2 7-8 9-4 8-1 4v21l1 24 1 10 14 4 1 4-5 10-8 9v78l-3 6-9 9-6 1-8-24-7-30-5-22-7-31-9-40-6-17-2-1 2 3 1 5-1 282-1 23-2 17-11 46-12 34-16 34-10 17-7 11-13 19-13 16-9 10-7 8-18 18-8 7-16 13-12 9-15 10-19 11-10 6-16 8-24 11-14 5-21 6-35 8-24 4-30 2h-43l-15-1-25-5-31-7-30-9-28-12-22-11-21-12-15-10-15-11-15-12-11-9-8-8-8-7-14-14-11-14-13-18-3-4 11-7 12-5 10-6 8-3h6l2 1 5 10 6 7 11 9 17 17 8 7 12 10 10 8 11 7 21 14 16 8 17 7 4 3 17 6 15 7 6 2 11 2 15 5 7 1 57 2 44-2 15-1 16-4 3-2 11-1 16-5 13-6 11-3 9-6 15-6 19-10 8-5 8-4h2l1-3 13-8 5-2 2-4 11-9 15-14 8-7 7-8 7-5 6-8 2-4 5-5 5-6 7-11 6-7 4-7 9-16 9-19 3-7 4-7 9-27 3-5 4-25 5-31 1-36 1-246v-41l-7-7-16 8-18 11-10 8-3 2-1 104v149l-2 26-2 28-4 18-7 21-4 13-3 8-2 8-7 11-5 11-5 5-5 9-9 11-6 9-7 10-11 12-8 7-10 11-7 4-4 5-12 8-17 11-17 9-26 13-12 4-11 2-7 3-25 4-20 4-9 1h-46l-28-5-11-2-15-2-15-5-12-3-16-8-10-3-11-7-12-6-10-6-11-8-2-1v-2l-4-1-6-8-6-3-8-9-10-8-6-4-3-9 1-4 5-5 19-11 15-10 17-12 12-9 13-10 16-13 11-9 13-11 28-24 10-9 8-7 20-18 8-7 38-38 1-2h2l2-4h2l2-4 9-9 7-8 9-10 15-15 5-1 10 1 6 5 4 8 2 8 4-2 3-3h4l10 16 7 8 10 8 15-9 17-8h7l9 8 7 8 7 7 6 9 8 10 5 5 9 10 7 10 9 12 6 7 5 6 6 4 6 7h2l7-33 2-16 1-211v-52l-11 9-14 10-17 13-6 5-4 5-8 5-8 7-2 1v14l5 59v19l-4 6-6 6h-4l-4-8-3-5-5-7-4-10-4-7-13-25-10-19-3-2-2 4-12 12-8 7-19 19h-2l-1 3-8 7-42 42-8 7-10 10-11 9-14 13-11 9-15 13-11 9-14 13-16 12-13 11-14 11-16 13-16 12-38 28-18 13-14 10-13 8-16 10-12 8-14 9-16 8-11 7-19 10-7 4-7 3-16 8-23 9-13 5-12 5-21 6-13 4-29 4-18 2h-22l-31-4-13-4-16-8-5-4-5-5-6-7-8-16-3-11v-25l2-20 12-41 11-27 8-15 11-24 9-14 11-17 4-6 14-20 8-12h2l2-4 7-9 10-12 3-5h2l2-4 7-7 7-8 10-9 4-5 5-4 6-7h1v52l-1 12-8 11-8 9h-2l-2 4-3 4h-2l-2 4-11 14-8 13-10 15-5 8-1 3-2 1-6 11-8 16-3 5-3 10-9 21-1 8-1 1-3 23v14l4 16 7 8 6 5 8 6v2l12 2 17 2 25-1 17-2 17-5 8-3 17-5 9-4 13-4 8-5 18-7 16-8 11-6 16-8 6-4 7-3 22-13 13-7 10-6 12-7 16-10 21-14 19-12 22-15 33-22 11-8 48-32 18-13 21-16 16-12 13-11 8-7 5-5 11-9 19-14 16-12 26-20 14-12 4-4v-2l-13-7v-2l-4-2-18-11-22-14-13-8-11-6 2-4 9-7 3-3h7l28 5 24 3 28 6 7 1 7-6 9-11 10-10 7-8 9-9 7-8 14-15 5-5 8-10 5-5 4-5 6-5 3-6v-11l-4-15-6-13-4-13-5-5v-2l-4-2-7-6-4-4-19-6-45-15-13-4-17-6-25-7-17-5-13-5-5-4 1-4 4-5 8-7 5-6 15 2 37 6 22 2 23 1 2-3-5-6-6-4-10-8v-2l-4-2-10-8-11-7-13-8-19-10-18-7-12-5-24-7-20-4-6-1h-72l-15 3-26 7-12 3-15 7-10 4-16 8-17 10-14 10-8 7-11 10-9 7-5 5-8 9-7 8-12 16-7 10-8 14-6 10-5 12-7 16-5 16-3 12-6 35-2 25v34l1 251 2 22 4 19 4-1 2-5 5-6 4-1 5 3 5 6 2 1 2-4 7-6 11-17 8-14 4-1 5 2 6-11 7-13 6-9 8-11 8-9 8-6 5 1 12 12 14 11 7 3 8 6 8 5h4l2-5 8-11 10-16 5-4 3 4 3-1 18-27 5-8h2l1-3 5 1 7-7 7-8 15-16 9-18 2-2 5 1 11 9 7 7 11 9 8 8 2 5-3 2-5-3-7-7-6-4-7-8-12-12-1 11-5 6-2 7-2 1-2 5 7-6 6-2-2 4-5 6-5 4-2 9 17-10h3l-2 5-5 6h-2v2l-11 9-12 11-6 5-1 2h-2v2h-2v2l-17 13-30 20-11 7-19 12-7 6h-2l-1-6 8-6 2-3-8-7-12-9-14-9-5-4v-2l-4-2-4-3v-2l-2 1v3l-2 2-2 1 1 2h-2l-1 5v4l-1 1-3 6h-2v6l-1 2-1 9 15-9 1 2-3 5-2 6-4 4v13l1 2-1 3-23 11-7 3-19 5-9 6-10 8-5 6-4 5-6 4-1 4-9 4-8 4-5 2-4-1-3-17-5-17-4-20-1-8v-240l1-87 4-23 2-8 4-18 2-8 8-20 4-11 10-19 3-5 4-6 4-7 6-7 5-8 8-9 7-9 9-10 7-6 5-5 9-8h2v-2l11-9 14-9 13-8 14-9 9-3 7-4 10-5 12-3 15-5 14-3 22-5 28-2h27l23 2 20 4 17 4h6l17 7 13 5 25 12 4 2v2l7 2 15 10 7 6 4 2v2l4 1 6 4 12 11 5 5 1 3h2l4 5 6 1h9l5 3v6l-3 5v3l6 3 15 2h19l2-6 7-8 4-6h6l5 5-1 9-2 4v5l5 2h17v-9l-8-13-7-11-7-9-4-6-3-3-8-10-8-11-5-3-5-7-8-7-10-9-13-11-9-6-3-3-9-5-8-7-13-7-16-8-17-8-8-3-8-4-5-2-9-2-3-2-17-5-5-2-21-2-15-3-5-2-18-3h-55l-19 2-13 4-14 3-15 2-17 6-8 3-18 6-22 10-16 8-11 7-3 1-4 4-15 10-12 9-5 4-11 9-4 4h-2l-2 4-8 7-9 9h-2l-2 4-3 4h-2l-2 4-8 11h-2l-2 4-8 11-6 8-6 11-11 19h-2l-3 9-6 10-6 16-6 14-6 24-2 6-2 17-3 15-2 21v334l2 25 4 23 2 13 3 11v7l-4 2-7 1-9 4-12 3h-6l-3-6-4-24-8-50-2-18v-159l-1-33v-81l1-31 4-41 9-45 8-27 8-20 7-16 8-17 10-19 10-17 10-13 12-16 11-13 9-11 10-10 8-7 8-8 11-9 14-11 30-20 19-11 17-9 27-11 21-8 35-10 23-4 31-4z" fill="#0A254C"/>
<path transform="translate(923,212)" d="m0 0h72l22 4 26 7 13 5 11 5 16 7 16 9 13 8 11 8 9 7v2l4 2 10 8 3 2v2l4 2 1 3-3 3-23-1-22-2-37-6-15-2-9 10-5 4-3 4 1 4 10 5 15 5 28 8 17 5 13 5 18 5 19 7 25 8 9 3 6 7 7 5 6 7 6 18 5 10 3 13v11l-4 7-8 7-4 6-5 5-7 8-5 5-16 17-11 12-7 7-7 8-12 13-5 6-4 3-7-1-33-7-26-3-28-5-1 3-10 7-2 4 15 8 19 12 16 10 14 9 3 2v2l6 2 8 5-2 4-7 7-11 9-26 20-19 14-16 12-14 11-1-2h-2l-4-6-8-8-11-9-13-12-3-2-5 1-9 18-9 9-7 8-14 15-5-1-4 4-3 6-16 24-4 5-3-1-2-3-5 4-9 15-11 16-4 1-11-7-5-4-8-4-13-10-13-13-5 1-10 8-11 14-6 10-5 8-5 10-5 8-6-2-3 1-10 18-10 14-7 6-1 2-4-2-5-6-4-1-5 3-4 6-1 4-5-1-4-19-2-22-1-251v-34l2-25 4-24 5-23 5-16 14-32 8-13 5-8 10-14 8-11 8-9 7-8 3-1 2-4 8-7 11-9 8-8 11-7 8-6 18-10 16-8 17-7 11-4 24-6 15-4z" fill="#F7A511"/>
<path transform="translate(937,128)" d="m0 0h55l21 4 11 3 12 2 15 1 17 6 7 2 4 2 8 2 10 4 5 3 13 5 26 13 11 6 11 9 8 5 8 6 10 8 12 11 8 7 8 8v2l5 2 10 13 7 9v2l4 2 6 9 6 8 6 10 7 11v9l-1 1h-17l-5-2-1-1 1-7 2-5v-6l-4-4h-6l-7 10-3 1-2 6-3 3h-17l-15-2-7-4 1-5 2-3v-6l-4-2h-13l-6-5v-2h-2l-5-5-8-9-9-7-6-3-1-2-5-3-8-6-12-8-7-3v-2l-4-1-27-13-14-5-14-6-10-1-21-5-20-3-15-1h-27l-28 2-25 6-18 4-24 8-12 6-7 3-11 6-11 7-13 8-10 7-8 7h-2v2l-8 6-5 5h-2l-2 4-12 11-10 13-7 8-5 8-9 11-4 8-3 3-10 21-4 8-6 16-4 10-3 17-4 15-4 23-1 93v234l3 19 5 19 2 8 3 16 7-1 6-4 10-4h2l1-5 8-6 3-5 5-5 9-7 9-6 19-5 15-7 13-6h2l-1-9v-9l5-5 2-6 2-5-13 8h-2v-9l2-8h2l2-5v-3h2l1-2-2-1v-2h2v-5l5-5-1-2h3l5 5 9 8 13 8 18 14 3 4-8 7-2 2v5l15-11 13-8 17-11 24-16 13-10 4-2v-2h2v-2h2l2-4 12-11 14-12h2v-2l5-5 4-6-12 6-6 4h-2l1-9 4-4h2l2-4h2l3-6-6 3h-2l-2 4-3 1 2-7 2-4 4-6 2-2 1-12 7 6 13 13v2l4 2 8 7 3 3 4 1 3-2 1 3-13 12-17 13-18 14-18 13-14 10-39 26-13 9-31 21-33 22-23 15-12 8-13 8-10 6-14 8-6 4-10 5-17 10-7 4-6 3-19 10-11 6-16 8-20 8-6 4-19 6-5 3-19 5-6 3-9 2-6 2-17 2-25 1-20-2-9-3-5-5-8-6-8-8-4-13-1-5v-14l3-23 1-1 2-11 9-20 3-9 9-19 6-9 2-4h2l1-5 10-15 8-13 7-10 9-11 8-9 7-8 8-9 3-5 1-14v-51l1-4-3-29-1-12h12l1-13h1l1 12 1 33v143l-1 8h-1v-6l-8 7-11 13-9 15-7 14-4 7-4 11-3 18v15l3 10 4 4 7 2 8 1h40v-10l2 4 12-1 14-5 1-1 10-2v-7l-4-15-4-26-2-14-1-17v-334l2-21 4-23 2-12 5-18 3-12 9-21 4-9 6-11 2-5h2l2-6 10-17 4-7 12-16 5-7 5-5 7-10 24-24 8-7 11-10 4-1 1-3 6-4 8-6 16-11h2l1-3 8-4 11-7 19-9 12-5 16-6 11-3 12-5 10-3 18-2 20-6z" fill="#ADC1D9"/>
<path transform="translate(1233,508)" d="m0 0 5 2 1 5 1 16-1 16 1 20v30l1 4v34l-1 2 1 4-1 2v56l1 21v42l-1 43-4 2-1 6-1 2h-2v6l-3 7v18l-5 10-5 16-6 8-6 12-4 4-4 8-7 9-5 8-7 10-2 4-6 4-3 5-6 4-12 11-5 6-9 7-9 6h-2v2l-12 9-7 4-17 9-7 4-20 8-8 3-11 3-8 4-33 6-24 4h-40l-19-3-22-4-15-2-12-5-13-4-10-5-12-4-14-8-24-15-10-7-5-4-5-5-6-3-9-10-11-9-5-6-3-5-1-2 5-5 19-11 15-10 17-12 12-9 13-10 16-13 11-9 13-11 28-24 10-9 8-7 20-18 8-7 38-38 1-2h2l2-4h2l2-4 9-9 7-8 9-10 15-15 5-1 10 1 6 5 4 8 2 8 4-2 3-3h4l10 16 7 8 10 8 15-9 17-8h7l9 8 7 8 7 7 6 9 8 10 5 5 9 10 7 10 9 12 6 7 5 6 6 4 6 7h2l7-33 2-16 1-211v-49l-1-4z" fill="#0A254C"/>
<path transform="translate(1296,468)" d="m0 0 8 8v41l-1 254-1 28-8 51-3 9-5 12-5 16-6 10-5 13-12 23-5 7-4 7-5 6-7 11-7 8h-2l-1 4-8 10-6 4-7 8-15 14-8 7-11 9-5 5-12 7-7 6-12 6-10 6-19 9-9 4-8 5-16 5-10 5-14 4-11 1-7 3-12 3-34 2-27 1-55-2-14-3-12-4-10-2-10-4-13-6-14-5-5-3-14-6-16-8-36-24-8-7-11-9-16-15-11-11-11-9-7-10-1-5-4-2 8-5 19-11 16-10 6-3 4 2 2 8 9 6 12 11 5 5 5 3 5 7 3 1v2l5 2 11 8 16 9 11 6 5 3 13 4 11 6 21 6 10 3 17 2 27 5 6 1h46l13-2 20-4 21-3 10-4 11-2 11-4 26-13 17-9 15-10 14-10 5-5 6-4 9-10 14-13 8-11 7-10 4-6 8-10 3-6 5-5 7-14 6-10 2-8 5-14 4-15 5-14 3-15 2-28 2-26v-149l1-104 10-8 15-10 18-10z" fill="#AEC2DA"/>
<path transform="translate(848,297)" d="m0 0 6 1 13 5 9 6 6 5 3 3 7 5 11 4h10l14-2 9 3 14 8 14 7 19 13 6 3 10 3 9 3h36l7 3 4 4 31 3 19 1 8 1 7 4 1 5-2 2-56 2-5 3-13 2 3 7 5 4 1 7 4 2 2 3 17 3 19 4 3 5-4 5-7 2-12 1-36 1-14 1h-11l-29-4-16-4-15-3-5-2-17-3-10-1h-35l-10 3-2 3 1 5 5 6 6 4 5 12 4 4v2l4 2 3 3 10 6 10 3 16 2 3 2h36l6 2v1h-13l35 3 27 5 25 5 11 4-1 2-12 3-5-1-3 1h-62l-5 1v2l10 1 3 6v3l-10 2 5 1v2l3 1-1 2-3 1-24 1h-20l-4-2-1-2h-35l-44 1-24 2-12 2-17 1-32-2-13-3-20-1-46-1-5-1-1 20-1 221h-1l-1-251v-34l2-25 1-6h1v26l4 1v2l11-1 7-3 7-2 12-8 13-15 8-6 16-7 10-5 2-3v-8l-1-1 1-11 4-2-2-5-5-2h-47l-14 1-3-3v-2l3-1 5-5 13-7 3-4h2l1-3v-15l1-15 2-4 9-9h2v-2l7-3 9 1 12 4h9l16-5 4-1v-2l17-11 12-10z" fill="#CAA94C"/>
<path transform="translate(1219,437)" d="m0 0 2 3-4 7-4 1-5 12-4 1-2 4-3 7-8 9-6 4-3 3h-2l-2 4-12 13-4 5h-2l-2 8-5 5-3 1 2 4 3 2h-2l-2 6h-5v2l-6 1-4-3-1 2-3-1v2l2 2h-2l-1 7-6 2v3h2v2l6 2 4 1 1 4-5 1-10-1h-4v2h-2v2l2 1 1 1 2 1-1 2 4 2-7 1v2l7-1 2 4 1 1 2-2-1 4h-2v2l3 1 4 3 1-2v2l7 1 3-6h2v-2h3l-2-5v-2h-2v-4h2l3-12 1-1h9l-1-5 2-3h3v-2l4-1 2-4 9-7 16-12 7-1 2-4 8-6 9-5 7 3-4 5-40 30-6 7-8 5-8 7-2 1v14l5 59v19l-4 6-6 6h-4l-4-8-3-5-5-7-4-10-4-7-13-25-10-19-3-2-2 4-12 12-8 7-19 19h-2l-1 3-8 7-42 42-8 7-10 10-11 9-14 13-11 9-15 13-11 9-14 13-16 12-13 11-14 11-16 13-16 12-38 28-18 13-14 10-13 8-16 10-12 8-14 9-16 8-11 7-19 10-7 4-7 3-16 8-23 9-13 5-12 5-21 6-13 4-29 4-18 2h-22l-31-4-13-4-16-8-5-4-5-5-6-7-8-16-3-11v-25l2-20 12-41 11-27 8-15 11-24 9-14 11-17 4-6 14-20 8-12h2l2-4 7-9 10-12 3-5h2l2-4 7-7 7-8 10-9 4-5 5-4 6-7h1v52l-1 12-8 11-8 9h-2l-2 4-3 4h-2l-2 4-11 14-8 13-10 15-5 8-1 3-2 1-6 11-8 16-3 5-3 10-9 21-1 8-1 1-3 23v14l4 16 7 8 6 5 8 6v2l12 2 17 2 25-1 17-2 17-5 8-3 17-5 9-4 13-4 8-5 18-7 16-8 11-6 16-8 6-4 7-3 22-13 13-7 10-6 12-7 16-10 21-14 19-12 22-15 33-22 11-8 48-32 18-13 21-16 16-12 13-11 8-7 5-5 11-9 19-14 16-12 26-20 14-12 4-4v-2l-13-7v-2l-4-2-18-11-22-14-13-8-11-6 2-4 9-7 3-3h7l28 5 24 3 28 6 7 1 7-6 9-11 10-10 7-8 9-9 7-8 14-15 5-5 8-10 5-5 4-5z" fill="#0A254B"/>
<path transform="translate(1022,694)" d="m0 0h5l11 8 7 6 3 5v2l-10 7-4 5-6 2-3-1-3 1-8 11-9 1v7l-3 4h-7l-4 6-5 8-1 11-10 7 1 4 16 8v2h-3l1 3 20 4-2 4-7 2v7l-5 2-7-4-6-4 6 12 6 8 4 12 5 5-1-8 2-6 5-1 14 13 2 4v6l5 2 2 4 4 2 1-13h4l6 6 4 1 2 5h11l5 5 6 8 3 5 2 1 1-8 5-14-1-5-7-6 2-5 12-12 8-4 1-4-1-2-7-3v-5l6-10 7-4 3-7h-16l-4-1 1-5 9-10 12-11 2-4-5-2-1-5 8-11 7-12 3-3h5l9 10 5 6 2 1 7 14 4 5 14 23 3 12 2 4 5-1 3-1 5 5 9 11 1 4h7l4-1 6 12-4 18-4 9-8 19-7 8-6 11-5 5-9 4v8l-5 10-4 2-6 8-10 11h-2v2l-11 9-8 6-4 4-5 3h-2l-2 4-5 4-10 5-5 4-11 5-16 7-13 5-8 4-40 10-17 2h-8l-5-8-4-6-6-5-3-2-1-4 5-4 2-1 21-1-2-5-11-7-7-5-6-7v-5l2-1h10l11 2 9 3h11l-3-3-10-4-13-4-15-7-11-7-2-5 2-2h9l13 2 22 2h9l-3-5-10-9-8-6 1-4h12l16 8 5 2 6 1-4-7-9-3-4-5-16-8-6-5-7-3-2-6 1-4 12 2 6-2-5-5-11-9-8-7-14-11-3-3v-4l11-7h2l2-6-1-8-9-25-1-7-12 12-7 8-5 6-3-1-4-4-4 1-3 8-8 6-12 12-6 2-1-4-9 7-8 7-7 8-10 11-6 8-12 12-10 8-5 6-9 6-9 10-4 5-9 7-10 7-10 5h-6l-10-7-5-5-2-4-2-1 1-3 15-9 12-8 17-12 12-9 13-10 16-13 11-9 13-11 28-24 10-9 8-7 20-18 8-7 38-38 1-2h2l2-4h2l2-4 9-9 7-8 2-3 5-3 11-11z" fill="#3E78A7"/>
<path transform="translate(1306,481)" d="m0 0 6 5 6 8 7 7 6 7 5 5 2 3-1 282-1 23-2 17-11 46-12 34-16 34-10 17-7 11-13 19-13 16-9 10-7 8-18 18-8 7-16 13-12 9-15 10-19 11-10 6-16 8-24 11-14 5-21 6-35 8-24 4-30 2h-43l-15-1-25-5-31-7-30-9-28-12-22-11-21-12-15-10-15-11-15-12-11-9-8-8-8-7-14-14-11-14-13-18-3-4 11-7 12-5 10-6 10-3 7 13 9 11 7 6 7 8 13 12 14 11 9 7 11 8 27 18 19 10 16 8 5 3 15 4 6 4 9 4 18 2 16 6 23 2 36 2 32-1 35-3 21-6 10-1 13-4 15-6 13-4 16-8 19-9 10-6 8-4 5-3 9-8 9-6 7-6 8-6 14-12 16-16 6-5 6-9h2l2-4 4-5 7-8 15-20 7-12 8-16 11-24 4-10 10-30 1-11 3-13 3-22z" fill="#0A264D"/>
<path transform="translate(937,128)" d="m0 0h55l21 4 11 3 12 2 15 1 17 6 7 2 4 2 8 2 10 4 5 3 13 5 26 13 11 6 11 9 8 5 8 6 10 8 12 11 8 7 8 8v2l5 2 10 13 7 9v2l4 2 6 9 6 8 6 10 7 11v9l-1 1h-17l-5-2-1-1 1-7 2-5v-6l-4-4h-6l-7 10-3 1-2 6-3 3h-17l-15-2-7-4 1-5 2-3v-6l-4-2h-13l-6-5v-2h-2l-5-5-8-9-9-7-6-3-1-2-5-3-8-6-12-8-7-3v-2l-4-1-27-13-14-5-14-6-10-1-21-5-20-3-15-1h-27l-28 2-25 6-18 4-24 8-12 6-7 3-11 6-11 7-13 8-10 7-8 7h-2v2l-8 6-5 5h-2l-2 4-12 11-10 13-7 8-5 8-9 11-4 8-3 3-10 21-4 8-6 16-4 10-3 17-4 15-4 23-1 93v234l3 19 5 19 2 8 3 16 7-1 6-4 10-4h2l1-5 8-6 3-5 5-5 9-7 9-6 19-5 15-7 13-6h2l-1-9v-9l5-5 2-6 2-5-13 8h-2v-9l2-8h2l2-5v-3h2l1-2-2-1v-2h2v-5l5-5-1-2h3l5 5 9 8 13 8 18 14 3 4-8 7-2 2v5l15-11 13-8 17-11 24-16 13-10 4-2v-2h2v-2h2l2-4 12-11 14-12h2v-2l5-5 4-6-12 6-6 4h-2l1-9 4-4h2l2-4h2l3-6-6 3h-2l-2 4-3 1 2-7 2-4 4-6 2-2 1-12 7 6 13 13v2l4 2 8 7 3 3 4 1 3-2 1 3-13 12-17 13-18 14-18 13-14 10-39 26-13 9-31 21-33 22-23 15-12 8-13 8-10 6-14 8-6 4-10 5-17 10-7 4-6 3-19 10-11 6-16 8-20 8-6 4-19 6-5 3-19 5-6 3-9 2-6 2-17 2-25 1-20-2-9-3-5-5-8-6-8-8-4-13-1-5v-14l3-23 1-1 2-11 9-20 3-9 9-19 6-9 2-4h2l1-5 10-15 8-13 7-10 9-11 8-9 7-8 8-9 3-5 1-14v-51l1-4-3-29-1-12h12l1-13h1l1 12 1 33v143l-1 8h-1v-6l-8 7-11 13-9 15-7 14-4 7-4 11-3 18v15l3 10 4 4 7 2 8 1h40v-10l2 4 12-1 14-5 1-1 10-2v-7l-4-15-4-26-2-14-1-17v-334l2-21 4-23 2-12 5-18 3-12 9-21 4-9 6-11 2-5h2l2-6 10-17 4-7 12-16 5-7 5-5 7-10 24-24 8-7 11-10 4-1 1-3 6-4 8-6 16-11h2l1-3 8-4 11-7 19-9 12-5 16-6 11-3 12-5 10-3 18-2 20-6zm16 3-32 2-28 7-12 2-16 6-23 8-14 7-17 7-12 7-17 11-11 8-17 12-13 10-17 16-21 21-10 13-14 19-7 10-10 19-5 8-9 17-9 21-3 8-6 21-3 13-5 44v338l2 26 3 27 5 16 3 5 4 1 13-6 21-6 9-5 2-3-1-11-4-20-2-8-3-19-1-17v-320l4-22 8-32 8-20 3-8 7-17 5-10 6-8 4-9 7-9 3-4v-2h2l11-14 7-9 4-3v-2l4-2 14-13 2-1v-2l4-2 13-11 11-7 16-9 8-5 12-6 17-7 17-5 9-2 26-7 15-4 14-2h46l18 2 16 4 21 5 10 2 27 9 16 8 11 6 13 7 14 9 9 7 1 2 5 2 14 12 13 13 7 2h9l6 3 1 2v13l3 3 23 1 5-5 9-12 3-3 10-3-3-9-8-10-11-14-22-22-11-9-11-10-5-4h-2v-2l-16-11-9-6-12-7-15-7-10-5-12-4-6-4-14-5-27-9-18-4-19-4-12-2-9-1z" fill="#3289C6"/>
<path transform="translate(1229,510)" d="m0 0h2l1 3v49l-1 211-2 16-7 33h-4l-7-8-6-4-9-11-8-10-11-15-7-8-5-5-12-15-4-6-11-11-5-6-4-3h-7l-23 11-8 6-8-6-7-6-10-14-3-5v-2l-6 1-2 4h-3l-5-12-4-6-3-2-12-1-6 2v-2h-3l-5-8-2-1 39-39h2l2-4 3-1 2-4 8-7 22-22 8-7 7-7 1-2 4 2 8 15 6 11 10 21 5 8 4 9 5 6 4 9v2l5-2 7-8 1-2v-19l-5-59v-14l15-12 6-4 6-7 14-10 16-12 11-9z" fill="#F7A511"/>
<path transform="translate(938,197)" d="m0 0h43l20 2 13 3 10 2 17 3 2 2 5 2 3 3h8l11 4 6 3 4 3 10 4 6 4 2 3 7 3 2 1v2l4 2 3 3 9 2 4 5v3l9 1 1 4 4 1 4 2 5 5v3l4 2 6 5 3 5-2 5-5 1 2 3-1 5h-10l4 2v3l4-1v3l-4 1-10 1h-13l-4 1-6-2h-13v2l-10 1-10-1v3l10 5 8 2 10 4 18 6 8 3 20 7 2 2 9 2 5 2 13 4 6 3-2 4h-12l-54-18-13-4-17-6-25-7-17-5-13-5-5-4 1-4 4-5 8-7 5-6 15 2 37 6 22 2 23 1 2-3-5-6-6-4-10-8v-2l-4-2-10-8-11-7-13-8-19-10-18-7-12-5-24-7-20-4-6-1h-72l-15 3-26 7-12 3-15 7-10 4-16 8-17 10-14 10-8 7-11 10-9 7-5 5-8 9-7 8-12 16-7 10-8 14-6 10-5 12-7 16-5 16-3 12-6 35-2 25v34l1 251 2 22 4 19 4-1 2-5 5-6 4-1 5 3 5 6 2 1 2-4 7-6 11-17 8-14 4-1 5 2 6-11 7-13 6-9 8-11 8-9 8-6 5 1 12 12 14 11 7 3 8 6 8 5h4l2-5 8-11 10-16 5-4 3 4 3-1 18-27 5-8h2l1-3 5 1 7-7 7-8 15-16 9-18 2-2 5 1 11 9 7 7 11 9 8 8 2 5-3 2-5-3-7-7-6-4-7-8-12-12-1 11-5 6-2 7-2 1-2 5 7-6 6-2-2 4-5 6-5 4-2 9 17-10h3l-2 5-5 6h-2v2l-11 9-12 11-6 5-1 2h-2v2h-2v2l-17 13-30 20-11 7-19 12-7 6h-2l-1-6 8-6 2-3-8-7-12-9-14-9-5-4v-2l-4-2-4-3v-2l-2 1v3l-2 2-2 1 1 2h-2l-1 5v4l-1 1-3 6h-2v6l-1 2-1 9 15-9 1 2-3 5-2 6-4 4v13l1 2-1 3-23 11-7 3-19 5-9 6-10 8-5 6-4 5-6 4-1 4-9 4-8 4-5 2-4-1-3-17-5-17-4-20-1-8v-240l1-87 4-23 2-8 4-18 2-8 8-20 4-11 10-19 3-5 4-6 4-7 6-7 5-8 8-9 7-9 9-10 7-6 5-5 9-8h2v-2l11-9 14-9 13-8 14-9 9-3 7-4 10-5 12-3 15-5 14-3 12-1 7-2z" fill="#0F1E32"/>
<path transform="translate(1219,437)" d="m0 0 2 3-4 7-4 1-5 12-4 1-2 4-3 7-8 9-6 4-3 3h-2l-2 4-12 13-4 5h-2l-2 8-5 5-3 1 2 4 3 2h-2l-2 6h-5v2l-6 1-4-3-1 2-3-1v2l2 2h-2l-1 7-6 2v3h2v2l6 2 4 1 1 4-5 1-10-1h-4v2h-2v2l2 1 1 1 2 1-1 2 4 2-7 1v2l7-1 2 4 1 1 2-2-1 4h-2v2l3 1 4 3 1-2v2l7 1 3-6h2v-2h3l-2-5v-2h-2v-4h2l3-12 1-1h9l-1-5 2-3h3v-2l4-1 2-4 9-7 16-12 7-1 2-4 8-6 9-5 7 3-4 5-40 30-6 7-8 5-8 7-2 1v14l5 59v19l-4 6-6 6h-4l-4-8-3-5-5-7-4-10-4-7-13-25-10-19-3-2-2 4-12 12-8 7-19 19h-2l-1 3-8 7-42 42-8 7-10 10-11 9-14 13-11 9-15 13-11 9-14 13-16 12-13 11-14 11-16 13-16 12-38 28-18 13-14 10-13 8-16 10-12 8-14 9-16 8-11 7-19 10-7 4-7 3-16 8-23 9-13 5-12 5-21 6-13 4-29 4-18 2h-22l-31-4-13-4-16-8-5-4-5-5-6-7-8-16-3-11v-25l2-20 12-41 11-27 8-15 11-24 9-14 11-17 4-6 14-20 8-12h2l2-4 7-9 10-12 3-5h2l2-4 7-7 7-8 10-9 4-5 5-4 6-7 1 3-6 7-3 3h3l1 6-4 7-5 2-2 2h-3l-1-6-6 6 1 2-5 2-9 10-4 6 2-1-2 5-2 3h-2l-2 5-6 8-8 10-12 18-8 13-7 8-3 8-8 11-10 21-18 33-3 8-7 18-2 6h-2l1 7-6 18-3 2v-6l-4 14v39l1 2 1-3 5 5 6 7 7 12 2 4 4 1 5 6 2 1v2l5 1 9 3 14 1 13 1 5 1h45l25-2 15-4 8-4 15-2 1-3 11-3 7-1 2 1 6-5 5-1 3 2h2l5-2h-3l-3-2 4-4 4-1v-2h4v-2l7-2 6-1 6-5 4-2h5l6-4 3-3 10-6 6-5 4-1v-2l8-5 8-3 5-4 9-5 10-6 8-4 9-6 15-9 13-10 3-3 6-4h2l2-4h3l2-4 8-7 1-2h4l1-4h2v-2h2v-2l3-3-2-4 9-4 3-5-1-9h3l1-5 8-5v-2l5-3h2v-3l2-1-1-2h-2v-2l24-16 16-11 39-26 14-10 19-14 17-13 14-11 14-12 4-5 12-9 13-10 19-14 16-12 14-11 14-12 4-4v-2l-13-7v-2l-4-2-18-11-22-14-13-8-11-6 2-4 9-7 3-3h7l28 5 24 3 28 6 7 1 7-6 9-11 10-10 7-8 9-9 7-8 14-15 5-5 8-10 5-5 4-5z" fill="#0F1E32"/>
<path transform="translate(813,408)" d="m0 0 9 1 5 4 7 9 14 7 11 4 16 8 9 7 4 6 6 12 8 4 20 7 11 3 1 5-3 1-1 4h2l3 3 2 5-2 1-9 1v1l6 2 1 9 4 4 11 2v2l-18 1-55 1-75 1-46-2-65-3-1-7v-34l2 2h10l21-7 10-6 9-7h2l2-4 4-6 10-6 19-6 10-5 4-4h2l2-5 7-7 6-5z" fill="#75ADAD"/>
<path transform="translate(1028,687)" d="m0 0 12 1 6 5 4 8 2 8 5-1 6 8 5 10v2l4 2 9 7h5l1 1 8-1 12-3 11-6 3-1h7l6 4 4 4v2h2l7 8 5 5v3h2l8 13 5 10 6 8 4 9 10 4 7 9 7 11 1 3h5l5-4 4 7 2 2-3 1 3 6v10l-3 16-3 4-2 7-4 4-3 8-6 9h-2l-1 5-8 11-6 5-4 8-1 7-4 3-1 5-4 3-7 3-8 9-4 5-5 3-4 4-6 3-2 4-9 6-4 3h-2v3l-8 4-4 1v2l-12 6-10 4-8 5-11 3-7 4-11 4-16 4-9 3-15 3-2 1-4-1-8 1-10-1-3-2-3-9-2-4-5 1-1 7-2 5-3 2-8-1-5-5-4-7-2-2v-6l3-3h13l2-5 4-4 5-2 15-2v-3l-6-2-6-4-9-9-1-2v-6l5-3 4-1-2-4-11-8-5-5-1-4 3-3h10v1l-9 1-1 3 5 5 16 8 11 5 13 4 6 3 3 4h-12l-12-4-8-1h-12l2 6 4 4v2l4 2 15 10 2 5-1 1-21 1-6 4 1 4 6 4 6 7 5 9 17-1 11-2 37-9 13-6 16-6 22-11 5-4 8-4 5-4 3-3 6-4h2l2-4 12-9 4-4h2v-2l5-4 7-8 7-9h3l4-12v-6l4-3 9-3 2-5 6-10 7-9 7-17 5-12 3-15-5-11-9 1-3-3-9-12-5-5-4 2-5-1-4-10-2-8-15-24-6-9-2-4v-3l-4-2-12-14h-5l-4 5-7 12-6 8v4l5 3-2 5-16 15-5 6-1 4h20l1 2-4 7-7 4-5 9v5l7 3 1 5-3 3-7 3-12 12-1 4 7 6 1 5-6 17-1 5-3-1-7-11-4-5-7-1h-6l-2-6-5-1-6-6h-2l-2 13-5-2-1-4h-5l-1-3v-5l-4-6-11-10-5 1-1 6 1 8-6-4-4-11-4-7-5-7-3-9 5 2 5 4 5 1 2-1 1-7 8-4 1-2-17-2-4-2v-3h3l-3-3-14-7-1-4 10-7 1-11 10-15h7l2-3 1-7 9-2 8-11 5-1 2 1 5-2 6-7 6-4h2l-6-9-12-9-3-2h-5l-10 9-6 6-2-1 21-21z" fill="#0A254C"/>
<path transform="translate(937,128)" d="m0 0h55l21 4 11 3 12 2 15 1 17 6 7 2 4 2 8 2 10 4 5 3 13 5 26 13 11 6 11 9 8 5 8 6 10 8 12 11 8 7 8 8v2l5 2 10 13 7 9v2l4 2 6 9 6 8 6 10 7 11v9l-1 1h-17l-5-2-1-1 1-7 2-5v-6l-4-4h-6l-7 10-3 1-2 6-3 3h-17l-15-2-7-4 1-5 2-3v-6l-4-2h-13l-6-5v-2h-2l-5-5-8-9-9-7-6-3-1-2-5-3-8-6-12-8-7-3v-2l-4-1-27-13-14-5-14-6-10-1-21-5-20-3-15-1h-27l-28 2-25 6-18 4-24 8-12 6-7 3-11 6-11 7-13 8-10 7-8 7h-2v2l-8 6-5 5h-2l-2 4-12 11-10 13-7 8-5 8-9 11-4 8-3 3-10 21-4 8-6 16-4 10-3 17-4 15-4 23-1 93v234l3 19 5 19 2 8 3 16 7-1 6-4 10-4h2l1-5 8-6 3-5 5-5 9-7 9-6 19-5 15-7 13-6h2l-1-9v-9l5-5 2-6 2-5-13 8h-2v-9l2-8h2l2-5v-3h2l1-2-2-1v-2h2v-5l5-5-1-2h3l5 5 9 8 13 8 18 14 3 4-8 7-2 2v6l-6 2-1 2h-2v2l-8 4-5 4-3-1-1 4-1-2h-2v4h-2v-2h-2l-1 2h-2l-4 1-5 6h-7l-6 2v2l-7 3-3 1-1 2-9 2-2 2-3 2-1-1-1 3-6-2-2 4h-2v2l-4-1-2 4-9 2v2l-3 3-7 1-3 4h-2v2h-2l-2 4-14 5-6 3-7 1-3-3-6-29-3-12-2-9-1-11v-324l4-26 6-27 3-10 3-7 2-11 3-8 7-17 5-10 6-8 4-9 7-9 4-6h2l2-4 11-14 6-7 8-7 13-12h2v-2l11-9 13-10 15-8 11-7 14-7 17-7 17-5 9-2 26-7 15-4 14-2h46l18 2 16 4 21 5 10 2 27 9 16 8 11 6 13 7 14 9 10 8v2l5 1 14 12 14 14 6 1h9l7 4 1 2v13l2 2 23 1 4-4 9-12 4-4 10-2-5-10-10-13-11-13-18-18-11-9-11-10-7-5v-2l-5-2-12-9-17-10-4-3-7-3-11-5-9-4-10-4-8-4-11-4-27-9-18-4-19-4-12-2-9-1-39-1-32 2-28 7-12 2-16 6-23 8-14 7-17 7-12 7-17 11-11 8-17 12-13 10-17 16-20 20-10 13-14 19-7 10-10 19-5 8-9 17-9 21-3 8-6 21-3 13-5 44v338l2 26 3 27 5 16 3 5 5-1 11-5 16-4-3 3-18 6-8 4-5-1-2-1-1 4-2 2-13 4-15 5-9 1h-3l-1-10 2 4 12-1 14-5 1-1 10-2v-7l-4-15-4-26-2-14-1-17v-334l2-21 4-23 2-12 5-18 3-12 9-21 4-9 6-11 2-5h2l2-6 10-17 4-7 12-16 5-7 5-5 7-10 24-24 8-7 11-10 4-1 1-3 6-4 8-6 16-11h2l1-3 8-4 11-7 19-9 12-5 16-6 11-3 12-5 10-3 18-2 20-6z" fill="#4E88A9"/>
<path transform="translate(562,707)" d="m0 0 2 2 1 57-9 10-9 14-12 22-5 12-3 13-1 8v15l3 10 4 4 7 2 8 1h40l16-3 20-7 6-2 2-4 7 1 11-5 17-6 14-7h2l1 5-2 3 18-2 5-5 10 1 1 4-3 1-1 2-8 4-1 2-5 2-7 3-9 6-16 8-12 4-8 4-14 5-6 2-9 4-14 2-9 4-3 2-10 2-9 3-13 4-10 3-9 1-1 1-24 1-13-1-9-3v-2l-4-1-4-2-7-8-4-10-2-8v-16l3-16 3-11 5-12 4-11 5-13 7-12 9-14 6-10 6-4 3-8 3-5 6-12 7-9 5-4h2l1-4 7-5 1-3h2l2-6 3-1z" fill="#3497D6"/>
<path transform="translate(862,321)" d="m0 0 9 1 9 3 16 4 7 1h10l11-2h7l32 16 18 12 38 19h7l3 2-4 2-7 1h-10l-4 2h-3l1 5 4 8v2l3 1 1 3-2 1-13 1h-11l-128-6-33-3-17-2-16-1h-48l-3-3v-3l10-6 9-3 15-3 13-5 14-7 3-1v-2l9-7 7-8 11-8 13-9 5-3z" fill="#75ADAD"/>
<path transform="translate(1296,458)" d="m0 0h5l3 5 8 8v2h2l7 10 9 12 4 5v5l2 2v3l1 4-6-4-1-4-4-2-9-10-9-11-1-1-1 325-3 22-3 13-2 15-10 29-4 9-12 26-7 14-6 10-7 9-11 15-4 4-7 9h-2l-2 5-5 6-6 5-5 5h-2l-2 4-10 10-10 8-8 6-11 9-11 8-5 5-10 4-8 5-16 8-17 8-8 4-18 6-12 5-8 2-15 2-16 5-35 3-32 1-36-2-23-2-16-6-18-2-14-7-8-3-10-3-10-6-16-8-17-9-11-8-21-14-6-5-14-11-12-11-8-7-5-6-8-7-8-10-6-11v-2l6 1 5 10 6 7 11 9 17 17 8 7 12 10 10 8 11 7 21 14 16 8 17 7 4 3 17 6 15 7 6 2 11 2 15 5 7 1 57 2 44-2 15-1 16-4 3-2 11-1 16-5 13-6 11-3 9-6 15-6 19-10 8-5 8-4h2l1-3 13-8 5-2 2-4 11-9 15-14 8-7 7-8 7-5 6-8 2-4 5-5 5-6 7-11 6-7 4-7 9-16 9-19 3-7 4-7 9-27 3-5 4-25 5-31 1-36 1-246v-41l-7-7-16 8-18 11-10 8-3 2-1 104v149l-2 26-2 28-4 18-7 21-4 13-3 8-2 8-7 11-5 11-5 5-5 9-9 11-6 9-7 10-11 12-8 7-10 11-7 4-4 5-12 8-17 11-17 9-26 13-12 4-11 2-7 3-25 4-20 4-9 1h-46l-28-5-11-2-15-2-15-5-12-3-16-8-10-3-11-7-12-6-10-6-11-8-2-1v-2l-4-1-6-8-6-3-8-9-10-8-6-4-3-9v-3l4 2 6 9 14 12 7 8 8 4 5 6 11 7 10 7 19 11 12 7 15 5 10 5 16 5 8 3 24 3 21 4 7 1h40l24-4 33-6 10-5 16-4 13-6 12-5 10-6 12-6 10-7 5-4h2v-2l10-6 8-7 5-4 7-8 8-7 6-4 3-5 5-3 4-8 4-5 5-8 8-10 5-10 4-4 6-12 4-5 7-21 3-5 3-11 9-28 1-5 1-25 1-6v-273l4-5 22-18 10-7 14-9z" fill="#538DAA"/>
<path transform="translate(561,629)" d="m0 0 1 3-6 7-3 3h3l1 6-4 7-5 2-2 2h-3l-1-6-6 6 1 2-5 2-9 10-4 6 2-1-2 5-2 3h-2l-2 5-6 8-8 10-12 18-8 13-7 8-3 8-8 11-10 21-18 33-3 8-7 18-2 6h-2l1 7-6 18-3 2v-6l-4 14v39l1 2 1-3 5 5 6 7 7 12 2 4 4 1 5 6 2 1v2l5 1 9 3 14 1 13 1 5 1h45l25-2 15-4 8-4 15-2 1-3 11-3 7-1 2 1 6-5 5-1 3 2h2l5-2h-3l-3-2 4-4 4-1v-2h4v-2l7-2 6-1 6-5 4-2h5l6-4 3-3 10-6 6-5 4-1v-2l8-5 8-3 5-4 9-5 10-6 8-4 9-6 15-9 13-10 3-3 6-4h2l2-4h3l2-4 8-7 1-2h4l1-4h2v-2h2v-2l3-3-2-4 9-4 3-5-1-9h3l1-5 8-5v-2l5-3h2v-3l2-1-1-2h-2v-2l24-16 16-11 39-26 14-10 19-14 17-13 14-11 8-7h3 3l-1 3 3 1-5 5-14 12-4 1v2l-8 7-4 2-2 4-3 3h-2l-2 4-4 5-4 1-1 4-5-1 1 5-7 5-7 4v3l-3 2-6 7-3 3-5 1v2l-2 1-3 1-2 4-11 9-5 5h-2v2h-4l-2 4-6 5-5 4-3 3-5 3-3 1v2l-8 6-8 7-6 5h-3l-2 4-8 5-4 4-5 4-2 6-3 1 1 3-18 13-19 14-10 7-13 8-16 10-12 8-14 9-16 8-11 7-19 10-7 4-7 3-16 8-23 9-13 5-12 5-21 6-13 4-29 4-18 2h-22l-31-4-13-4-16-8-5-4-5-5-6-7-8-16-3-11v-25l2-20 12-41 11-27 8-15 11-24 9-14 11-17 4-6 14-20 8-12h2l2-4 7-9 10-12 3-5h2l2-4 7-7 7-8 10-9 4-5 5-4z" fill="#0F1E33"/>
<path transform="translate(1022,694)" d="m0 0h5l11 8 7 6 3 5v2l-10 7-4 5-6 2-3-1-3 1-8 11-9 1v7l-3 4h-7l-4 6-5 8-1 11-10 7 1 4 16 8v2h-3l1 3 20 4-2 4-7 2v7l-5 2-7-4-6-4-1 2-3-1-2-2-6-3-2 2-2-1-4-11-1-7-12 12-7 8-5 6-3-1-4-4-4 1-3 8-8 6-12 12-6 2-1-4-9 7-8 7-7 8-10 11-6 8-12 12-10 8-5 6-9 6-9 10-4 5-9 7-10 7-10 5h-6l-10-7-5-5-2-4-2-1 1-3 15-9 12-8 17-12 12-9 13-10 16-13 11-9 13-11 28-24 10-9 8-7 20-18 8-7 38-38 1-2h2l2-4h2l2-4 9-9 7-8 2-3 5-3 11-11z" fill="#3E78A7"/>
<path transform="translate(923,212)" d="m0 0h72l6 1v1h-69l-14 1-31 8-17 5-11 5-30 14-13 8-10 7-14 12-11 9-11 10-5 7 1 7 4 6 9 6 5 2 8 1 10-2 14-6 10-7 11-9 7-5 5-2 6 1 16 8 12 7 6 5v2h2l4 4 6 3 4 1 26 1 8 3 8 5 9 1 5 1 5 7 9 4 2 4 7 6 7 4-2 1-11-6-11-8-10-6-16-8-9-5-7-1-12 2h-10l-13-5-5-4-5-5-11-8-6-3-9-3-6-1-10 6-9 8-14 9h-2v2l-12 5-10 2h-8l-14-5h-7l-6 2v2l-9 9h-2l-1 4-1 19v11l-2 3h-2l-2 4-10 6-7 4-2 3h-3l1 4 21-1h42l6 3 1 5-3 2-1 11 1 1v8l-4 5-17 8-10 4-9 8-9 11-10 7-5 3-12 4h-11v-2l-4-1-1-3v-14l2-22 5-25 5-15 5-14 7-15 6-12 6-10 4-6 10-14 8-11 8-9 7-8 3-1 2-4 8-7 11-9 8-8 11-7 8-6 18-10 16-8 17-7 11-4 24-6 15-4z" fill="#DDA435"/>
<path transform="translate(849,306)" d="m0 0h9l11 4 11 8 7 5 10 4 14 2v1h-15l-16-4-9-3-9-1-14 2-11 7-11 8-10 8-7 8-4 3h-2v2l-12 7-12 5-14 4-9 2-11 4-4 3h-2l1 5h50l26 2v2l9 1 20 2 54 2 14 1 29 1 9 1 30 1h18l15 1 4-1 1-2-4-1v-2l-4-1-2-5-5-4-1-3 3-2 17-2h16l4 1h10l3-3 5-1v-2l-2-1h9l6 3 1 3 3 1-2 1v2l-6 1h-20l-10-2-13-1-8 1 5 5 2 4v4h2v2l6 2-2 5-4 5-3 1 1 3 4 2 3 4v2l5 2v3l-10 2h-16l-10-2-10-3v-2l-5-1-1-1-14-2-20-4-22-2-36-1h-20l-9 1-13 1-2 1v6l3 3 5 3v2l5 2 1 3 6 2 8 6h-3l-16-8-15-6-11-6-8-10-6-3h-6l-7 4-5 5-7 8-5 5-5 4-12 5-16 5-6 4h-2l-2 4-4 6-14 10-12 6-11 4-5 1h-10l-1-1v-17l2-16h1v26l4 1v2l11-1 7-3 7-2 9-6 5-2 16-17 8-4 13-4 11-6 1-2h2v-2h2l2-7 5-10 5-5 6-4 1-4-7-2h-76l-2-1 1-4 23-14 7-8 3-5 2-7 9-7 5-2 2 1v-2l12-2 9-1 9-4 7-3 11-7 7-4 7-8 9-8z" fill="#BEA954"/>
<path transform="translate(963,618)" d="m0 0 5 1 11 9 7 7 11 9 8 8 2 5-3 2-5-3-7-7-6-4-7-8-12-12-1 11-5 6-2 7-2 1-2 5 7-6 6-2-2 4-5 6-5 4-2 9 17-10h3l-2 5-5 6h-2v2l-11 9-12 11-6 5-1 2h-2v2h-2v2l-17 13-30 20-11 7-19 12-7 6h-2l-1-6 8-6 2-3-8-7-12-9-14-9-5-4v-2l-4-2-4-3v-2l-2 1v3l-2 2-2 1 1 2h-2l-1 5v4l-8 2-2 4-7 6-1-3-2-1-6 3 2-4 8-13 9-11 11-9 5 1 12 12 14 11 7 3 8 6 8 5h4l2-5 8-11 10-16 5-4 3 4 3-1 18-27 5-8h2l1-3 5 1 7-7 7-8 15-16 9-18z" fill="#071223"/>
<path transform="translate(854,213)" d="m0 0 3 1-16 8-7 3-11 6-11 7-13 8-10 7-8 7h-2v2l-8 6-5 5h-2l-2 4-12 11-10 13-7 8-5 8-9 11-4 8-3 3-10 21-4 8-6 16-4 10-3 17-4 15-4 23-1 93v234l3 19 5 19 2 8 3 16 7-1 6-4 10-4h2l1-5 8-6 3-5 5-5 9-7 9-6 19-5 15-7 13-6h2l-1-9v-9l5-5 2-6 2-5-13 8h-2v-9l2-8h2l2-5v-3h2l1-2-2-1v-2h2v-5l5-5-1-2h3l5 5 9 8 13 8 18 14 3 4-8 7-2 2v6l-6 2-1 2h-2v2l-8 4-5 4-3-1-1 4-1-2h-2v4h-2v-2h-2l-1 2h-2l-4 1-5 6h-7l-6 2v2l-7 3-3 1-1 2-9 2-2 2-3 2-1-1-1 3-6-2-2 4h-2v2l-4-1-2 4-9 2v2l-3 3-7 1-3 4h-2v2h-2l-2 4-14 5-6 3-7 1-3-3-6-29-3-12-2-9-1-11v-324l4-26 6-27 3-10 3-7 2-8h2l4-16 3-3 7-15 6-8 6-12 5-5 5-8 5-5 12-16 7-7 8-7 10-10 10-8 13-10 22-13 13-8 9-4z" fill="#3C77A6"/>
<path transform="translate(848,297)" d="m0 0 6 1 13 5 9 6 6 5 3 3 7 5 11 4h10l14-2 9 3 14 8 14 7 19 13 6 3 10 3 9 3h36l5 5 1 2 6 2 12 1v1l-7 1v2l-5 1-2 4h-11l-4-1h-16l-17 2-2 2 7 7v4l4 1v2l4 1-1 3-6 1-16-1h-15l-30-1-9-1-29-1-39-2-29-1-20-2-9-2v-1l15 1 25 2 128 6h11l13-1v-3l-4-4-4-10 1-2 7-3h11l9-2-12-2-9-5-28-14-18-12-30-15-14 1-4 1h-10l1-2-11-2-12-7-10-8-9-4-4-1h-9l-9 6-8 9h-2l-1 3-14 8-7 5-11 4-2 1-21 2v2l-5 1-6 4-5 5-3 9-6 7h-2l-1 3-15 9-8 5-1 3h78l7 2 1 3-5 5-4 3h-2l-2 4-7 16h-2v2h-2l-2 4-15 7-11 3-6 4-7 7-7 8-4 2 6-8 11-12 9-5 10-4 12-6 2-3v-8l-1-1 1-11 4-2-2-5-5-2h-47l-14 1-3-3v-2l3-1 5-5 13-7 3-4h2l1-3v-15l1-15 2-4 9-9h2v-2l7-3 9 1 12 4h9l16-5 4-1v-2l17-11 12-10z" fill="#CAA94C"/>
<path transform="translate(1233,508)" d="m0 0 5 2 1 5 1 16-1 16 1 20v30l1 4v34l-1 2 1 4-1 2v56l1 21v42l-1 43-4 2-1 6-1 2h-2v6l-3 7-1 10-2 3h-4l1-11-2-1 4-4 1-8-4 8-6-1-4-6-5 3-5-1-10-15-5-7-10-4-3-4-3-7-6-8-8-16-3-4v-2h-2l-3-5-5-5v-2l-4-2v-2h-2l-6-7-4-2h-9l-4 3-11 5-9 2-8 1-2-1-5-1-12-9-8-15-4-6 3-3h4l10 16 7 8 10 8 15-9 17-8h7l9 8 7 8 7 7 6 9 8 10 5 5 9 10 7 10 9 12 6 7 5 6 6 4 6 7h2l7-33 2-16 1-211v-49l-1-4z" fill="#0F1D31"/>
<path transform="translate(898,202)" d="m0 0h5l-4 3-17 3-20 7-8 2-8 5h-2l-1 3-11 3-10 7-11 6-5 3-14 9-4 2v2h-2v2l-4 4h-3v2l-7 5-5 5h-2l-2 4-12 11-14 18-5 6-4 8-6 5-4 8-6 10-6 13h-2l-3 9-1 6h-2l-3 12-5 11-3 18-3 12-3 13-3 17v21l1 15 3 6-3 10-1 8v141l1 3v13l-1 23v80l3 9v2h2v6h2l2 3v4l6 1 1 4h3l4 1 6-3 1-3 4-1 5 3 1 3 4 1 2-4 5-1 3 3 3-3 8-6 3-6h2v-2h2l1-4 4-1-1-5h3l2-5 4-5h-2v-2l4-1 2 2 2 1v-3l7-3-3-3 1-5h2v3l5-1 5-2-2 4-5 1 2 3v4l7-2v2h2l-2-5 2-4 3-2v-2h-3v-5l-3-1v-2l-3-1 2-3h2v-2h2l1-4v3h2l-2 14 15-9 1 2-3 5-2 6-4 4v13l1 2-1 3-23 11-7 3-19 5-9 6-10 8-5 6-4 5-6 4-1 4-9 4-8 4-5 2-4-1-3-17-5-17-4-20-1-8v-240l1-87 4-23 2-8 4-18 2-8 8-20 4-11 10-19 3-5 4-6 4-7 6-7 5-8 8-9 7-9 9-10 7-6 5-5 9-8h2v-2l11-9 14-9 13-8 14-9 9-3 7-4 10-5 12-3 15-5z" fill="#0A254C"/>
<path transform="translate(734,397)" d="m0 0h30l5 3-1 7-4 2-1 3h-2v7l3 1 2 5-1 5-9 7-9 5-5 5-7 10-11 7-10 5-10 1-9-5-2-2v-15l3-20 5-21 4-6 9 1 11-3z" fill="#F8A511"/>
<path transform="translate(1041,139)" d="m0 0 15 3 24 8 13 4 12 6 24 10 17 10 9 6 8 6 11 8 12 9 13 12 8 7 10 10 6 5 9 13 9 10 7 11 7 9 5 9 6 9v5l-2 2h-13l-3-3-1-4 3-7v-6l-4-4-7-1-5 3-5 7-3 2-3 7-2 2h-27l-8-3-3-2 1-5 2-3v-6l-4-2h-13l-6-5v-2h-2l-5-5-8-9-9-7-6-3-1-2-5-3-8-6-12-8-7-3v-2l-4-1-27-13-14-5-14-6-10-1-21-5-20-3-15-1h-27l-28 2-25 6-18 4-15 5-11 2-28 14-13 8-19 12-10 8-13 11-12 12-8 7-10 13-6 8-4 4-5 8-4 4-6 12-5 6-7 16-3 1-1 8-3 8h-2l1-4 5-15 8-18 6-7 5-11 7-9 4-6h2l2-4 11-14 6-7 8-7 13-12h2v-2l11-9 13-10 15-8 11-7 14-7 17-7 17-5 9-2 26-7 15-4 14-2h46l18 2 16 4 21 5 10 2 27 9 16 8 11 6 13 7 14 9 10 8v2l5 1 14 12 14 14 6 1h9l7 4 1 2v13l2 2 23 1 4-4 9-12 4-4 10-2-5-10-10-13-11-13-18-18-11-9-11-10-7-5v-2l-5-2-12-9-17-10-4-3-7-3-11-5-9-4-10-4-8-4-11-4-27-9-14-3v-1z" fill="#467FA1"/>
<path transform="translate(1303,517)" d="m0 0h1v292l-2 16-6 31-13 36-13 27-8 16-9 14-5 7h-2l-2 5-3 5-5 4-3 6-6 5-5 8-8 7-6 6h-2l-2 4-15 14-8 7-7 4-4 5-13 8-7 6-10 5-14 8-19 9-16 8-14 4-12 6-6 2-15 2-20 6-7 1-27 2-36 1-26-1-27-2-13-4-8-3-13-1-14-6-9-4-14-5-32-16-10-6-10-7-15-10-8-6-10-8-11-9-17-16-4-4v-2l-5-2v-2h-2l-6-8-6-9-3-7 4 1 5 10 6 7 11 9 17 17 8 7 12 10 10 8 11 7 21 14 16 8 17 7 4 3 17 6 15 7 6 2 11 2 15 5 7 1 57 2 44-2 15-1 16-4 3-2 11-1 16-5 13-6 11-3 9-6 15-6 19-10 8-5 8-4h2l1-3 13-8 5-2 2-4 11-9 15-14 8-7 7-8 7-5 6-8 2-4 5-5 5-6 7-11 6-7 4-7 9-16 9-19 3-7 4-7 9-27 3-5 4-25 5-31 1-36z" fill="#548EAA"/>
<path transform="translate(1099,590)" d="m0 0 1 4-8 8-8 7-19 19h-2l-1 3-8 7-42 42-8 7-10 10-11 9-14 13-11 9-15 13-11 9-14 13-16 12-13 11-14 11-16 13-16 12-19 14-5 2v-2l3-3 2-5 6-5h2l1-3 9-6 1-2 5-3 11-9 7-6h2v-2l5-4 5-3 5-5 5-3 4-5h4v-2l4-3h2l2-4 11-9 3-3 1-2 2 1v-2l5-1 1-3 7-6 1-3 3-1v-3l5-2 1-2 7-4v-5h5l1-3 4-1 2-4 4-5 6-5 5-5 3-1 2-4 3-1v-2l6-4 13-11 3-3-4-1 1-3-2 2-1-3 6-5 5-5 11-9 19-14 16-12 26-20 8-7 6 1z" fill="#071121"/>
<path transform="translate(1126,730)" d="m0 0h5l9 10 5 6 2 1 7 14 4 5 14 23 3 12 2 4 5-1 3-1 5 5 9 11 1 4h7l4-1 6 12-4 18-4 9-8 19-7 8-6 11-5 5-9 4v8l-5 10-4 2-6 8-10 11h-2v2l-11 9-8 6-4 4-5 3h-2l-2 4-5 4-10 5-5 4-11 5-16 7-13 5-8 4-40 10-17 2h-8l-5-8-4-6-6-5-3-2-1-4 5-4 2-1 21-1-2-5-11-7-7-5-6-7v-5l2-1h10l11 2 9 3h11l-3-3-10-4-13-4-15-7-11-7-2-5 2-2h9l13 2 22 2h9l-3-5-10-9-8-6 1-4h12l16 8 5 2 6 1-4-7-9-3-3-5 14 7 4 6v4h-7l-10-4-8-4-8-1 1 3 8 7 6 7 1 5-2 2h-11l-12-2-18-2h-9l2 4 13 5 6 3 10 4 13 5 16 7 2 4-1 1-26-1-13-4-10-1 3 7 6 5 10 6 5 6-1 5-5 2-16 1-3 1v4h2l3 5 3 3 2 6h2v2l14-1 32-8 14-4 20-8 12-5 16-7 6-5 11-6h2l2-4 6-4h3l2-4 7-6 5-2 1-3 11-9 5-6 4-4 6-8h2l2-4 2-5-2-7 2-3 13-5 6-9 9-13 11-22 4-16v-7l-1-3-10-1v-2l-4-2-5-7-5-5-5-1h-6v-2l-3-1-5-16v-4h-2l-6-11-4-7-5-8-6-11-7-8-5-6-5-1-2-2-4 5-4 6v-3l5-9z" fill="#2B6391"/>
<path transform="translate(1014,679)" d="m0 0 3 4 2 5h3l1 3-19 19-7 8-9 10-5 6-4 4h-2l-2 4-43 43-4-1 1-5 3 1-2-3-4 3-4 2-2 2h-10l-3 1-2-3v-7l-7 5-2-1 16-13 9-7 12-11 11-9 10-9 11-9 11-10 8-7 14-12 12-12z" fill="#DEA535"/>
<path transform="translate(966,624)" d="m0 0 7 6 13 13v2l4 2 8 7 3 3 4 1 3-2 1 3-13 12-17 13-18 14-18 13-14 10-39 26-3 1-2-1v2l-12 7-3 3h-2l1-5 4-3 4-2 6-2 2-4 2 1 1-4v-3l9-6h4v-3l4-6 13-9 10-8 3-1v-2h2v-2h2l2-4 12-11 14-12h2v-2l5-5 4-6-12 6-6 4h-2l1-9 4-4h2l2-4h2l3-6-6 3h-2l-2 4-3 1 2-7 2-4 4-6 2-2z" fill="#3B76A6"/>
<path transform="translate(881,842)" d="m0 0 2 2v5l-6 5-9 11-14 16-9 9-4 3-8 3-7 7-7 5-10 10-2 4-8 6-6 5-5 3h-2v2l-7 3h-6l-11-8-1-5v-5l10-7 19-12 4-3h4l1-4 12-9 11-7 5-3 3-1v-2h3v-2l7-4 7-6h2l2-4 7-6h2v-2l11-2 1-3h2v-2z" fill="#3E78A7"/>
<path transform="translate(1240,807)" d="m0 0 1 4-10 32-4 11-2 4v13l-6 10-5 10-3 5-5 5-4 8-9 11-6 9-7 10-11 12-8 7-10 11-7 4-4 5-12 8-17 11-17 9-26 13-12 4-11 2-7 3-25 4-20 4-9 1h-46l-28-5-11-2-15-2-15-5-12-3-16-8-10-3-11-7-12-6-10-6-11-8-2-1v-2l-4-1-6-8-6-3-8-9-10-8-6-4-3-9v-3l4 2 6 9 14 12 7 8 8 4 5 6 11 7 10 7 19 11 12 7 15 5 10 5 16 5 8 3 24 3 21 4 7 1h40l24-4 33-6 10-5 16-4 13-6 12-5 10-6 12-6 10-7 5-4h2v-2l10-6 8-7 5-4 7-8 8-7 6-4 3-5 5-3 4-8 4-5 5-8 8-10 5-10 4-4 6-12 4-5 7-21 3-5 3-11z" fill="#518BAA"/>
<path transform="translate(849,306)" d="m0 0h9l11 4 11 8 7 5 10 4 14 2v1h-15l-16-4-9-3-9-1-14 2-11 7-11 8-10 8-7 8-4 3h-2v2l-12 7-12 5-14 4-9 2-11 4-4 3h-2l1 5h28l5 1-2 2-23 1h-24l-2-1 1-4 23-14 7-8 3-5 2-7 9-7 5-2 2 1v-2l12-2 9-1 9-4 7-3 11-7 7-4 7-8 9-8z" fill="#BEA954"/>
<path transform="translate(554,583)" d="m0 0h4l3 19 2 23-3 6-8 9h-2l-2 4-9 9-8 7-7 8-4 5h-2l-2 5-11 13-9 12h-2l-2 5-8 11-11 16-6 9-12 19-8 13-7 16-10 19-11 27-10 34-3 13-1 14v25l3 11 8 16 5 6 5 4 5 5 16 8 13 4 31 4h22l41-5 16-4 16-5 13-4 23-9 29-12 10-6 8-3 14-8 10-5 9-6 12-6 12-7 15-10 19-12 16-10 8-6 2 1-10 8-16 10-17 11-16 10-13 8-16 9-8 5-48 24-11 5-16 6-19 7-23 7-9 3-18 3-17 2-18 2h-17l-19-2-17-3-14-4-17-9-11-11-6-10-5-11-2-6-1-16 1-28 3-15 2-9 2-6 6-21 2-9 1-6 6-12 5-9 1-4h2v-5h2v-3h2l1-4 2-5h2l2-5 2-6h2l2-5 7-11 2-4h2l2-5 5-8h2l2-6 2-1 3-5 5-8 2-4h2l2-5h2l1-5h2v-2h2v-3l5-5 6-7 6-9 7-7h2l2-4 6-8h2l2-4 8-8h2l2-4 3-1 2-4h2l2-4 3-3 1-5-1-22-4-2-1-3-6-1 6-8z" fill="#DAA439"/>
<path transform="translate(862,321)" d="m0 0 9 1 9 3 16 4 7 1h10l11-2h7l8 4-3 1-5-2-13 1-5 1h-11l-31-5h-16l-15 5v2l-14 10-4 2v2l-8 7-5 5-3 4h-2l-1 3-6 4-3 3-1 9 4 3 27 4 18 2 62 4 40 1 33 2h23l3-2-8-4-3-2-3-5 4-10 4-2v-7l-3-4 5 1 20 10h7l3 2-4 2-7 1h-10l-4 2h-3l1 5 4 8v2l3 1 1 3-2 1-13 1h-11l-128-6-33-3-17-2-16-1h-48l-3-3v-3l10-6 9-3 15-3 13-5 14-7 3-1v-2l9-7 7-8 11-8 13-9 5-3z" fill="#A1AC9A"/>
<path transform="translate(1014,487)" d="m0 0 9 1 40 8 7 3-1 2-12 3-5-1-3 1h-62l-5 1v2l10 1 3 6v3l-10 2 5 1v2l3 1-1 2-3 1-24 1h-20l-4-2-1-2h-35l-44 1-24 2-12 2-17 1-32-2-13-3-20-1-46-1-5-1-1 20-1 221h-1v-244l2-1 80 4 39 1 120-2 43 1v-2l-3-1-2-9-4-3v-3l-6-1v-1l56-1 2-5 1-2 15-1h-12l-6-3z" fill="#DEA435"/>
<path transform="translate(1209,820)" d="m0 0h5l4 5-3 1 3 6v10l-3 16-3 4-2 7-4 4-3 8-6 9h-2l-1 5-8 11-6 5-4 8-1 7-4 3-1 5-4 3-7 3-8 9-4 5-5 3-4 4-6 3-2 4-9 6-4 3h-2v3l-8 4-4 1v2l-12 6-10 4-8 5-11 3-7 4-11 4-16 4-9 3-15 3-2 1-4-1-8 1-10-1-3-2-3-9-2-4-5 1-1 7-2 5-3 2-8-1-5-5-4-7-2-2v-6l3-3h13l2-5 4-4 5-2 15-2v-3l-6-2-6-4-9-9-1-2v-6l5-3 4-1-2-4-11-8-5-5-1-4 3-3h10v1l-9 1-1 3 5 5 16 8 11 5 13 4 6 3 3 4h-12l-12-4-8-1h-12l2 6 4 4v2l4 2 15 10 2 5-1 1-21 1-6 4 1 4 6 4 6 7 5 9 17-1 11-2 37-9 13-6 16-6 22-11 5-4 8-4 5-4 3-3 6-4h2l2-4 12-9 4-4h2v-2l5-4 7-8 7-9h3l4-12v-6l4-3 9-3 2-5 6-10 7-9 7-17 5-12 3-15-5-11-9 1 4-2z" fill="#0D315D"/>
<path transform="translate(561,640)" d="m0 0h1v41l-1 12-8 11-8 9h-2l-2 4-3 4h-2l-2 4-11 14-8 13-10 15-5 8-1 3-2 1-6 11-8 16-3 5-3 10-9 21-1 8-1 1-3 23v14l4 16 7 8 6 5 8 6v2l12 2 17 2 25-1 17-2 17-5 8-3 17-5 9-4 13-4 8-5 18-7 16-8 11-6 16-8 6-4 7-3 22-13 13-7 10-6 12-7 8-5 2 1-10 7-9 5-11 8-4 2-5 3-16 8-8 5-17 9-6 4-5 1v2l-10 6-5 2-16 8-10 3-9 6-4 2h-4v2l-10 3-12 5-1 1-11 2-12 4-1 2-18 4-26 3h-19l-12-2h-9l-6-4-4-5-9-7v-2l-4-2-4-5-4-10-3-8v-17l2-12 2-10 2-13 4-8h2l2-12 4-6 1-6 3-1 1-5 2-7 4-6 7-10 5-10 4-3 2-5 4-4 5-10 6-9 3-5 3-4 1-3h2l1-3 4-4 3-6 6-7 5-2 5-4 3-6 3-15v-12z" fill="#0D315D"/>
<path transform="translate(628,390)" d="m0 0h1v8l-5 39-1 11v338l2 26 3 27 5 16 3 5 5-1 11-5 16-4-3 3-18 6-8 4-5-1-2-1-1 4-2 2-13 4-15 5-9 1h-3l-1-10 2 4 12-1 14-5 1-1 10-2v-7l-4-15-1-17-3-17-1-15v-345l2-20 3-17 2-14z" fill="#508AA9"/>
<path transform="translate(571,570)" d="m0 0h1l1 12 1 33v143l-1 8h-1v-6l-7 5-1-3-1-50 1-16-2-1 1-63-2-17-2-20-1-12h12z" fill="#3F7AAA"/>
<path transform="translate(1305,481)" d="m0 0h1v326l-3 22-3 13-2 15-10 29-4 9-12 26-7 14-6 10-7 9-11 15-4 4-7 9h-2l-2 5-5 6-6 5-5 5h-2l-2 4-10 10-10 8-8 6-11 9-11 8-5 5-10 4-8 5-16 8-17 8-8 4-18 6-12 5-8 2-15 2-16 5-35 3-32 1-36-2-23-2-16-6-18-2-14-7-8-3-10-3-10-6-16-8-17-9-11-8-21-14-6-5-14-11-12-11-8-7-5-6-8-7-8-10-6-11v-2l4 2 6 12 7 8v2h2v2l5 2 7 8 15 14 11 9 18 14 11 7 21 14 16 8 17 8 9 4 14 5 12 6 3 1 13 1 16 6 5 1 27 2 38 1 24-1 27-2 11-2 16-5 15-2 12-5 8-4 14-4 16-8 23-11 11-7 10-5 7-6 11-7 4-5 8-5 15-14 7-6 15-15h2l2-4 4-6 3-3h2l2-6 4-4h2l2-5 3-5 4-4 7-10 5-9 8-16 13-27 12-34 7-36 2-22z" fill="#2B6391"/>
<path transform="translate(562,627)" d="m0 0h1l1 7-1 61-5 8h-2l-2 4-12 14-9 10-8 11-7 10-5 9-10 15-7 14-3 5-8 14-6 17-6 13-3 7-3 21-1 15 2 16 4 9 10 8 11 7 21 3h13l26-2 12-3 14-4 9-3 20-7 13-4 16-8 13-5 15-7 16-8 13-7 20-11 14-8 17-10 9-5 21-12 14-9 2 1-19 13-25 15-7 4-15 8-17 10-7 4-6 3-19 10-11 6-16 8-20 8-6 4-19 6-5 3-19 5-6 3-9 2-6 2-17 2-25 1-20-2-9-3-5-5-8-6-8-8-4-13-1-5v-14l3-23 1-1 2-11 9-20 3-9 9-19 6-9 2-4h2l1-5 10-15 8-13 7-10 9-11 8-9 7-8 8-9 3-5 1-14v-51z" fill="#2B6391"/>
<path transform="translate(1152,346)" d="m0 0 10 2 30 10 6 7 7 5 6 7 6 18 5 10 3 13v11l-4 7-8 7-4 6-5 5-7 8-5 5-16 17-11 12-7 7-7 8-12 13-5 6-4 3-7-1-28-6 2-5h8l12 3 11 1 6-7 8-7 13-11 4-4h2l2-4 11-12 6-10 10-11 6-8 7-8 4-6 5-2 2-7 1-3 1-7-2-18v-4h-2l-5-6v-2h-2l-2-3v-3h-3l-3-3v-2h-2l-5-5-11-7-8-3-9-6-4-2v-3l-4-2v-2z" fill="#F7AF22"/>
<path transform="translate(1229,510)" d="m0 0h2l1 3v49l-1 211-2 16-7 33h-4l-7-8-6-4-9-11-8-10-11-15-7-8-5-5-12-15-1-4 4 2 3 4 5 1 2 3 4 5v3l6 2 6 7 2 7 4 2 6 8 3 3 5 3 4 6v2h2l1 3-5 2 5 5 7 5h5l1-5-6 1-2 2-2-7 4-4 3-14 1-6h2l1-4 3-9 2-21v-195l-3-8-4-16-5-5 1-2-2-1 6-4z" fill="#F6AF23"/>
<path transform="translate(1041,139)" d="m0 0 15 3 24 8 13 4 12 6 24 10 17 10 9 6 8 6 11 8 12 9 13 12 8 7 10 10 6 5 9 13 9 10 7 11 7 9 5 9 6 9v5l-2 2h-13l-3-3-1-4 3-7v-6l-4-4-7-1-5 3-5 7-3 2-3 7-2 2h-16l-14-2-5-4 2-10-1-5-3-1-16-1-3-3v-2l10 2h9l7 4 1 2v13l2 2 23 1 4-4 9-12 4-4 10-2-5-10-10-13-11-13-18-18-11-9-11-10-7-5v-2l-5-2-12-9-17-10-4-3-7-3-11-5-9-4-10-4-8-4-11-4-27-9-14-3v-1z" fill="#4881A9"/>
<path transform="translate(1e3 714)" d="m0 0v3l-2 3 1 3-1 3-3 1-3 3h-2l-2 4-16 16h-2l-2 4h-2l-2 4-5 5h-2l-2 4-16 16-6 7-8 6-3 3-5 4h-2v2l-5 2-2 4h-2l-2 4-5 5-4 2v4l-4 1h-2l-2 4-2 5v2l4 1 1 3-6 5-2-1-1-3-7 1 1 3h-3l-3 3-2 1h-7v2l-8 6-5 5-8 7-3 2h-3v2h-3v2l-5 4-10 5-13 10-3 2-1 3-5 2-19 12-12 8v9l8 6 3 2 9-1 4-1v-2l10-6 9-8h2l2-5 10-10 10-8 4-4 4-2 3 1-5 4-5 6-9 6-9 10-4 5-9 7-10 7-10 5h-6l-10-7-5-5-2-4-2-1 1-3 15-9 12-8 17-12 12-9 13-10 16-13 11-9 13-11 28-24 10-9 8-7 20-18 8-7 38-38 1-2h2l2-4h2l2-4 9-9z" fill="#285C89"/>
<path transform="translate(1013,487)" d="m0 0 4 3 6 1h10l-1 2h-15l-2 7v1l-55 1 4 1 2 4 4 4 1 7 2 1v2h-39v-1h14v-2l-11-1-5-5-1-9-8-2 3-2 25-1-2-4 2-3h2l1-2 32-1h25z" fill="#B5A254"/>
<path transform="translate(1059,704)" d="m0 0h4l10 16 7 8 10 8 15-9 17-8h7l9 8 7 8 7 7 6 9 8 10 5 5 9 10 7 10 9 12 6 7 5 6 6 4 6 7h4l-1 3-6-1-4-6-5 3-5-1-10-15-5-7-10-4-3-4-3-7-6-8-8-16-3-4v-2h-2l-3-5-5-5v-2l-4-2v-2h-2l-6-7-4-2h-9l-4 3-11 5-9 2-8 1-2-1-5-1-12-9-8-15-4-6z" fill="#0F1D32"/>
<path transform="translate(898,202)" d="m0 0h5l-4 3-17 3-20 7-8 2-8 5h-2l-1 3-11 3-10 7-11 6-5 3-14 9-4 2v2h-2v2l-4 4h-3v2l-7 5-5 5h-2l-2 4-12 11-14 18-5 6-4 8-6 5-4 8-6 10-6 13h-2l-3 9-1 6h-2l-3 12-5 11-3 18-3 12-3 13-3 17v21l1 15 3 6-3 10-1 8v141l1 3v13l-1 23-1 80h-2v-240l1-87 4-23 2-8 4-18 2-8 8-20 4-11 10-19 3-5 4-6 4-7 6-7 5-8 8-9 7-9 9-10 7-6 5-5 9-8h2v-2l11-9 14-9 13-8 14-9 9-3 7-4 10-5 12-3 15-5z" fill="#0B2952"/>
<path transform="translate(854,213)" d="m0 0 3 1-16 8-7 3-11 6-11 7-13 8-10 7-8 7h-2v2l-8 6-5 5h-2l-2 4-12 11-10 13-7 8-5 8-9 11-4 8-3 3-10 21-4 8-6 16-4 10-3 17-4 15-4 23-1 93v234l3 19 5 19 2 8 3 16 7-1 6-4 10-4h2l1-5 8-6 3-5 5-5 9-7 9-6 19-5 15-7 9-3-1 2h-2v2l-5 2-1 2-8 3-1 1-9 2-12 6-6 2-7 2-1 3h-2l1 3-9 5-2 3h-2l-2 4h-2l-2 4-5 6-14 6-9 3-4-1-3-12-4-19-3-12-2-9-1-11v-324l4-26 6-27 3-10 3-7 2-8h2l4-16 3-3 7-15 6-8 6-12 5-5 5-8 5-5 12-16 7-7 8-7 10-10 10-8 13-10 22-13 13-8 9-4z" fill="#2B6391"/>
<path transform="translate(855,147)" d="m0 0 3 1-18 6-15 7-9 4-16 7-13 9-22 15-11 8-12 9-9 8-8 7-21 21-10 13-10 12-8 11-8 13-11 19-6 11-7 15-7 16-4 11-5 20-3 9-3 23-2 13-1 11v345l1 15 3 17v8h-1l-5-31-1-17v-334l2-21 4-23 2-12 5-18 3-12 9-21 4-9 6-11 2-5h2l2-6 10-17 4-7 12-16 5-7 5-5 7-10 24-24 8-7 11-10 4-1 1-3 6-4 8-6 16-11h2l1-3 8-4 11-7 19-9 12-5 16-6z" fill="#2B6391"/>
<path transform="translate(769,187)" d="m0 0 3 1-10 7-12 9-5 4-11 9-4 4h-2l-2 4-8 7-9 9h-2l-2 4-3 4h-2l-2 4-8 11h-2l-2 4-8 11-6 8-6 11-11 19h-2l-3 9-6 10-6 16-6 14-6 24-2 6-2 17-3 15-2 21v334l2 25 1 11-2-4-2-12-1-13v-358l4-17 1-7 2-15 2-7 3-14 1-4 8-19 2-3 3-9 3-8h2l2-5 6-11 1-4 2-1 6-11 5-9 8-12h2l2-6 2-1 2-4h2l2-4 7-9 7-8 5-5 3-1 1-3 8-7 5-5 16-15 11-8 15-11z" fill="#0D315D"/>
<path transform="translate(790,734)" d="m0 0 1 3h2l-2 14 15-9 1 2-3 5-2 6-4 4v13l1 2-1 3-23 11-7 3-20 4-9 6-2-1 6-5 3-6h2v-2h2l1-4 4-1-1-5h3l2-5 4-5h-2v-2l4-1 2 2 2 1v-3l7-3-3-3 1-5h2v3l5-1 5-2-2 4-5 1 2 3v4l7-2v2h2l-2-5 2-4 3-2v-2h-3v-5l-3-1v-2l-3-1 2-3h2v-2h2z" fill="#0A254B"/>
<path transform="translate(971,660)" d="m0 0h3l-2 5-5 6h-2v2l-11 9-12 11-5 4-11 6-12 9-17 12-10 6-4 2v2l-4 1-2-5 4-2 1-3 6-2v-2l10-7 9-5 2-3-2-4 6-6h2l1-3h2v-3l4-1 3-3h2v2l-4 4 5-2v-5-3l4-1v-2l-3-1 6-2-3-2 5-2 2-1v2h2l1-4 6-2 3-2 3 1v4z" fill="#0E1C31"/>
<path transform="translate(1045,365)" d="m0 0 4 1 6 5 31 3 19 1 8 1 7 4 1 5-2 2-56 2-5 3-13 2 3 7 5 4 1 7 4 2 2 3 17 3 19 4 3 5-4 4 1-4-2-3-11-2-25-2-7-4-9-1-5-3v-3h2l4-10-7-7 2-2h3v-2l-6-2v-2l9-2 6 1h26l1-3-4-4-5-2v-2h-12l-7-3-2-4z" fill="#CBA94C"/>
<path transform="translate(691,966)" d="m0 0 4 1 5 10 6 7 11 9 17 17 8 7 12 10 10 8 11 7 21 14 16 8 17 7 4 3 17 6 15 7 6 2 11 2 12 4v2l5 1 44 2h27l41-2 19-2v2l-6 2-7 1-27 2-36 1-26-1-27-2-13-4-8-3-13-1-14-6-9-4-14-5-32-16-10-6-10-7-15-10-8-6-10-8-11-9-17-16-4-4v-2l-5-2v-2h-2l-6-8-6-9z" fill="#4D87A9"/>
<path transform="translate(1036,517)" d="m0 0h7l28 5 24 3 28 6 3 1v2h3l-2 5-12 11h-2v-2l7-5 2-4-10-2-21-5-17-1v-1l-25-3-4 1-1 3-1 2h3l2 3 6 1-1 5 4-1 2 1-1-3h3v5l4 2v4 2l-5 2-19-12-10-6-9-5 2-4 9-7z" fill="#061120"/>
<path transform="translate(1296,458)" d="m0 0h5l3 5 8 8v2h2l7 10 9 12 4 5v5l2 2v3l1 4-6-4-1-4-4-2-9-10-9-11-2-4h3l-3-5-5-6-3-5-7 1-16 10-9 7h-2v2l-14 11-4 5v239l-1 37-1 8-1 20-2 4 1-30 1-6v-273l4-5 22-18 10-7 14-9z" fill="#2B6391"/>
<path transform="translate(690,517)" d="m0 0 81 4 39 1 120-2 43 1v-2l10 1 3 2-1 3-13-1-4-1h-63l-44 1-24 2-12 2-17 1-32-2-13-3-20-1-46-1-5-1-1 20-1 221h-1v-244z" fill="#D5A53E"/>
<path transform="translate(870,417)" d="m0 0h47l26 3 14 3 11 3 5 2 21 4 10 2 84 1v1l-12 1-36 1-14 1h-11l-29-4-16-4-15-3-5-2-17-3-10-1h-35l-10 3-2 3 1 5 5 6 6 4 5 12 4 4v2l4 2 3 3 6 4-3 1-10-4-4-3-4-10-6-9-11-9-9-8-1-3 2-5z" fill="#DEA435"/>
<path transform="translate(803,701)" d="m0 0 5 1 12 12 14 11 7 3 8 6 8 5h4l1-3 6-5 2 1-3 5-3 1-1 4 2 1-2 7-11 8-5 4h-2l-1-6 8-6 2-3-8-7-12-9-14-9-5-4v-2l-4-2-4-3v-2l-2 1v3l-2 2-2 1 1 2h-2l-1 5v4l-8 2-2 4-7 6-1-3-2-1-6 3 2-4 8-13 9-11z" fill="#081527"/>
<path transform="translate(691,375)" d="m0 0 1 3-3 10-3 7-6 28-4 21-1 9v324l2 15 3 15 4 15 3 18 12-1-2 2-10 1-5 1 1-2-1-11-4-20-2-8-3-19-1-17v-320l4-22 8-32z" fill="#5892AA"/>
<path transform="translate(742,934)" d="m0 0 4 2 6 9 14 12 7 8 8 4 5 6 11 7 10 7 19 11 12 7 15 5 10 5 16 5 8 3 24 3 21 4 7 1h40l14-1v1l-13 2-33 1h-15l-33-6-15-2-15-5-12-3-16-8-10-3-11-7-12-6-10-6-11-8-2-1v-2l-4-1-6-8-6-3-8-9-10-8-6-4-3-9z" fill="#4F89A9"/>
<path transform="translate(779,721)" d="m0 0 3 1-2 5-7 11-8 15-5 8-6-2-3 1-10 18-10 14-7 6-1 2-4-2-5-6-4-1-5 3-4 6-1 4-5-1-4-19v-7l2-2v4l4 1 14 7h1v-2h9l7-2 6-7h2l1-5 9-10 8-6h2l2-5 6-8 4-2 3-10 3-5 4-2z" fill="#F7AE22"/>
<path transform="translate(813,408)" d="m0 0 9 1 5 4 7 9 14 7 11 4 14 7-3 1-13-5-25-9-9-6-5-4-7 1-8 9-12 8-8 5-11 4-12 3-8 6h-2l-1 3-5 5h-2v2l-11 7-14 7-6 2-9 4-8 1-4-1-1-4h11l21-7 10-6 9-7h2l2-4 4-6 10-6 19-6 10-5 4-4h2l2-5 7-7 6-5z" fill="#A0AC9A"/>
<path transform="translate(562,696)" d="m0 0 1 2-3 6-4 4-5 6h-2l-1 4-12 12-12 17-8 13-3 4-4 7-6 9-13 24-5 10-4 13-7 15-4 13-2 21v10l3 16 5 6 14 10 6 3 16 2h17l30-3 20-7 19-5 23-8 12-6 19-8 12-5 3 1-16 7-11 5-12 5-4 3-11 4-13 4-20 6-21 7-17 2-22 1-16-1-11-2-11-7-11-9-4-9-2-17 1-14 3-21 3-7 7-15 6-17 7-12 5-9 8-15 8-11 8-14 10-13 9-11 11-12 5-7 3-3z" fill="#3F79A8"/>
<path transform="translate(948,195)" d="m0 0h27l23 2 20 4 17 4h6l17 7 13 5 25 12 4 2v2l7 2 15 10 7 6 4 2v2l4 1 6 4 12 11 5 5 1 3h2l4 5 6 1h9l5 3v6l-3 5v3l3 3-5-2v-6l2-2-1-5-1-2-8-1-2 6-3 3-7 3h-3l-4-10 6-1 1-4-5-7-7-5-2-4-3-2v-2l-4-1-4-2-1-3-9-2-4-7-9-2-7-6v-2l-9-3-5-5-7-4-11-4-5-4-11-4h-9l-3-4-5-2-1-1-17-3-13-3-16-3-14-1h-43l-21 2-7 2h-7l3-2 14-3z" fill="#0B2952"/>
<path transform="translate(1030,137)" d="m0 0 21 1 17 6 7 2 4 2 8 2 10 4 5 3 13 5 26 13 11 6 11 9 8 5 8 6 10 8 12 11 8 7 8 8v2l5 2 10 13 7 9v2l4 2 6 9 6 8 6 10 7 11v9l-1 1h-17l-5-2-1-1 1-7 2-5v-6l-4-4h-6l-7 10-3 1-2 6-3 3h-17v-1l16-1 3-4 2-5 5-5 5-6 6-1 5 2 4 4-1 9-2 6 1 4h15l1-1-1-7-7-10-7-12-6-7-6-9-11-13-7-10-10-9-9-9-8-7-13-11-20-14-12-9-18-10-15-7-15-6-10-5-22-7-15-5-12-2h-7v-2z" fill="#2B6391"/>
<path transform="translate(784,864)" d="m0 0 2 1-10 8-16 10-17 11-16 10-13 8-16 9-8 5-48 24-11 5-16 6-19 7-23 7-9 3-18 3-17 2-18 2h-17l-19-2-17-3-14-4-17-9-11-11-6-10-5-11v-6l10 20 4 6 7 6 5 5 16 8 13 4 31 4h22l41-5 16-4 16-5 13-4 23-9 29-12 10-6 8-3 14-8 10-5 9-6 12-6 12-7 15-10 19-12 16-10z" fill="#D8A53B"/>
<path transform="translate(966,624)" d="m0 0 7 6 13 13v2l3 1v3h2v2h2v2l4 2 5 8-5-2-4-5-3-2-3 4 3 2-3 1-3-2v-3l-3 1-2 3-8 1-15 9h-2l1-9 4-4h2l2-4h2l3-6-6 3h-2l-2 4-3 1 2-7 2-4 4-6 2-2z" fill="#3974A3"/>
<path transform="translate(558,583)" d="m0 0h12v15l-1 25-1 9 1 6v117l-2 5-2-4v-44l1-23v-33l-1-4v-10l1-6-2-9h-2l-3-32z" fill="#A1AC9B"/>
<path transform="translate(1060,715)" d="m0 0 3 1 8 16 9 11-4 4-13 8-12 7h-4l1-16 9-28z" fill="#2B6391"/>
<path transform="translate(920,475)" d="m0 0 20 2 3 2h36l6 2v1h-13l35 3 7 1-3 3h-33l-24 1-3 1-2 5 3 1-1 2h-16v-3-3l-3-1v-2h-2l1-5h3l-1-6-13-3z" fill="#CAA84B"/>
<path transform="translate(1190,357)" d="m0 0 9 1 10 10 14 11 11 10 14 11 2 2-1 6-3 4h-2l-2 4-5 4h-2v2l-5 1-1-2 3-11 2-6-6-8-11-13-2-1-2 4-4-10-4-4v-2l-4-2-7-6z" fill="#2A6290"/>
<path transform="translate(836,864)" d="m0 0 2 2-16 13-34 25-26 17-17 10-3 5-10 5-19 12-18 10-4 3-16 6-10 6-10 4-11 7-9 3-3-1 8-4 4-3 11-6 10-4 26-13 5-3h2l1-3 9-5 5-3 10-5 14-8 1-2h3l2-4 18-11 10-7 18-11 15-11 12-8h2v-2l5-2v-2l6-4z" fill="#DAA439"/>
<path transform="translate(1293,462)" d="m0 0h5l7 10 5 6v3h-4l-1 317-2 4v-326l-7-7-16 8-18 11-10 8-3 1 2-4 11-10h2v-2l9-6 8-6z" fill="#3F79A8"/>
<path transform="translate(1230,728)" d="m0 0h1v45l-2 16-7 33h-4l-7-8-6-4-9-11-8-10-11-15-7-8-5-5-12-15-1-4 4 2 3 4 5 1 2 3 4 5v3l6 2 6 7 2 7 4 2 6 8 3 3 5 3 4 6v2h2l1 3-5 2 5 5 7 5h5l2-16 4-15 2-12z" fill="#FAAD1D"/>
<path transform="translate(836,218)" d="m0 0 3 1-12 6-5 5-22 13-10 7-9 7-13 11-12 12-8 7-10 13-6 8-4 4-5 8-4 4-6 12-5 6-7 16-3 1-1 8-3 8h-2l1-4 5-15 8-18 6-7 5-11 7-9 4-6h2l2-4 11-14 6-7 8-7 13-12h2v-2l11-9 13-10 15-8 11-7z" fill="#568FAA"/>
<path transform="translate(923,212)" d="m0 0h72l6 1v1h-69l-14 1-31 8-17 5-11 5-30 14-13 8-10 7-14 12-11 9-11 10-8 7-8 10-8 9-16 24-5 9-6 10h-2l-1 2 1-5 9-15 5-8 10-14 8-11 8-9 7-8 3-1 2-4 8-7 11-9 8-8 11-7 8-6 18-10 16-8 17-7 11-4 24-6 15-4z" fill="#D3A641"/>
<path transform="translate(1059,704)" d="m0 0h4l10 16 7 8 10 8 15-9 17-8h7l8 7v3l-4-1-3 1-6-1h-5l-4 3-11 5-9 2-8 1-2-1-5-1-12-9-8-15-4-6z" fill="#071223"/>
<path transform="translate(1240,807)" d="m0 0 1 4-10 32-4 11-3 9-4 10-6 8-4 10-6 7-5 10-8 9-5 8-7 11-11 11-4 2-5 6-7 6-4 5-8 5-5 5-6 4-9 7-14 9-9 4-11 7-12 4-15 7-16 4-5 3-17 3h-8v-1l23-4 10-5 16-4 13-6 12-5 10-6 12-6 10-7 5-4h2v-2l10-6 8-7 5-4 7-8 8-7 6-4 3-5 5-3 4-8 4-5 5-8 8-10 5-10 4-4 6-12 4-5 7-21 3-5 3-11z" fill="#2B6391"/>
<path transform="translate(1037,385)" d="m0 0 6 1 2 3 4 1 9-3 28-1h33v1l-56 2-5 3-13 2 3 7 5 4 1 7 4 2 2 3 17 3 19 4 3 5-4 4 1-4-2-3-11-2-25-2-7-4-9-1-5-3v-3h2l4-10-7-7 2-2h3v-2l-6-2v-2z" fill="#DEA435"/>
<path transform="translate(1014,487)" d="m0 0 9 1 40 8 7 3-1 2-12 3-5-1-3 1h-28l-9-1-21-1v-1l23-1 2-5 1-2 15-1h-12l-6-3z" fill="#CBA84B"/>
<path transform="translate(937,128)" d="m0 0h55l21 4 11 3 6 1v2h4v2l-18-3-6-2-18-2-39-1-32 2-28 7-14 2v-2l-16 5-5 1 1-2 21-7 18-2 20-6z" fill="#3E779F"/>
<path transform="translate(804,709)" d="m0 0h3l5 5 9 8 6 4 4 5-4 1-3-3-4-2-8-6-4-1 2-1-3-2v6l1 2-1 4 2-2-1-5 5 1-1 5v3l-3 2 6 2-1 3-4 2 1 3-7 1-11 7h-2v-9l2-8h2l2-5v-3h2l1-2-2-1v-2h2v-5l5-5z" fill="#37709F"/>
<path transform="translate(929,710)" d="m0 0 1 4-2 1-2 4 1-1 5-2 7-5 2 1-10 8-16 10-25 17-3 1-2-1v2l-12 7-3 3h-2l1-5 4-3 4-2 6-2 2-4 2 1 1-4v-3l9-6h4v-3l4-6 13-9h3l-3 4-5 3h-2l-2 4-1 1h3l1-3 4-3h2l3-3 6-5z" fill="#3B77A7"/>
<path transform="translate(1296,458)" d="m0 0h5l3 5 8 8v2h2l7 10 9 12 4 5v5l2 2v3l1 4-6-4-1-4-4-2-9-10-9-11-2-4h3l-3-5-5-6-3-5-7 1-13 8-2-1 9-7 8-5z" fill="#2A6290"/>
<path transform="translate(1127,727)" d="m0 0 6 3 5 5v2h2l7 8 5 5v3h2l8 13 5 10 6 8 4 9 10 4 7 9 7 11 1 3h5l5-4 1 4-7 3h-6l-6-9-7-9-4-1-2 2-5-1-4-10-2-8-15-24-6-9-2-4v-3l-4-2-12-14h-5l-2 1 1-4z" fill="#0B2950"/>
<path transform="translate(820,879)" d="m0 0m-1 1m-1 1m-2 1h2l-1 3-10 7-8 6-1 3-5 2-19 12-12 8v9l8 6 3 2 9-1 4-1v-2l10-6 9-8h2l2-5 10-10 10-8 4-4 4-2 3 1-5 4-5 6-9 6-9 10-4 5-9 7-10 7-10 5h-6l-10-7-5-5-2-4-2-1 1-3 15-9 12-8 17-12 12-9z" fill="#2B6391"/>
<path transform="translate(572,501)" d="m0 0 2 2v78l1 18 1 34v16l1 16 1 7v10l-2 21-1 59-1 12h-1v-159l-1-33z" fill="#113763"/>
<path transform="translate(1041,139)" d="m0 0 15 3 24 8 13 4 12 6 24 10 17 10 9 6 8 6 6 5 2 4-5-2-12-9-17-10-4-3-7-3-11-5-9-4-10-4-8-4-11-4-27-9-14-3v-1z" fill="#4F89A9"/>
<path transform="translate(1066,708)" d="m0 0 7 2 8 10v2l15 1 19-6 7-1 6 1v2l-9 2-20 10-8 6-8-6-7-6-10-14z" fill="#F6AF25"/>
<path transform="translate(1062,213)" d="m0 0 6 1 17 8 16 8 11 4 14 9 10 8v2l5 1 14 12 9 9 4 8 16 1 4 2 1 6-2 9 4 3 14 2v1h-11l-8-3-3-2 1-5 2-3v-6l-4-2h-13l-6-5v-2h-2l-5-5-8-9-9-7-6-3-1-2-5-3-8-6-12-8-7-3v-2l-4-1-27-13-7-3z" fill="#467FA4"/>
<path transform="translate(1083,1007)" d="m0 0m-4 1h4v2l-7 3-4 4-9 4-7 2-11 2-7 3-25 4-20 4-9 1h-46v-1l9-1 33-1 13-1v-2l14-3 20-2 14-3 4-3 14-3z" fill="#548EA7"/>
<path transform="translate(878,709)" d="m0 0 1 2-9 15-9 13-4 1-11-7-5-4-8-4-13-10-2-4 3-1 2 1v2l5 2v2l8 4v2h3v4l9-1 7 1 9-7 6-5 3-1 3-4z" fill="#F4AF27"/>
<path transform="translate(951,213)" d="m0 0h39l18 1 5 1-1 3-10 2-6 1-17-2h-43l-3-3v-2z" fill="#F9AE1F"/>
<path transform="translate(623,824)" d="m0 0h2l1 6v9h2l5 16 3 5 5-1 11-5 16-4-3 3-18 6-8 4-5-1-2-1-1 4-2 2-13 4-15 5-9 1h-3l-1-10 2 4 12-1 14-5 1-1 10-2v-7l-4-15z" fill="#457FA8"/>
<path transform="translate(1e3 714)" d="m0 0v3l-2 3 1 3-1 3-3 1-3 3h-2l-2 4-16 16h-2l-2 4h-2l-2 4-5 5h-2l-2 4-16 16-6 7-8 6-3 3-3-1 7-7 2-4 12-11 36-36 1-2h2l2-4h2l2-4 9-9z" fill="#245580"/>
<path transform="translate(925,479)" d="m0 0 8 1 1 5-3 1-1 4h2l3 3 2 5-2 1-9 1v1l6 2 1 9 4 4 11 2v2h-16l-7-5-3-10-4-5 2-2 2-12 3-1z" fill="#A1AC9A"/>
<path transform="translate(1022,694)" d="m0 0h5l11 8 7 6 3 5v2l-7 2h-4l2-5-10 4-4-2 1-5v-6l-1-4h-2l1 5-2-1v-3l-1 3-5 2v2l-4 1-8 7-3-1 2-4 5-3 11-11z" fill="#2C6492"/>
<path transform="translate(1119,727)" d="m0 0h8l-2 1-1 3-4 1v2h-2l-1 4h-3l-1 3-5 2h-3v2l-4 1-1-2-4 1h-11l-14 6v-2l8-5-6-8-4-5 1-3 11 9h5l1 1 8-1 12-3 11-6z" fill="#0F1D32"/>
<path transform="translate(571,570)" d="m0 0h1l1 12 1 33v143l-1 8h-1l-1-152z" fill="#2C6491"/>
<path transform="translate(687,966)" d="m0 0h2l1 3-2 1 1 4-1 3-13 2-6 4h-2v3l-6 4-1 2h-2l-1 3h-5l-6-8 11-7 12-5 10-6z" fill="#0F1F35"/>
<path transform="translate(881,224)" d="m0 0h6l-7 7-10 3-15 8-12 6-7 2-6 4-7 1-4 3-2 3-4 3-2-1 1-4 6-2v-2l7-4 8-5 7-3 8-1 1-3h2v-2l5-4 12-5z" fill="#FAAE1E"/>
<path transform="translate(948,195)" d="m0 0h27l23 2 20 4 17 4h6l17 7 13 5 25 12-1 2-5-2-12-5-7-4-8-4-9-1h-4l-3-4-5-2-1-1-17-3-13-3-16-3-14-1h-43l-21 2-7 2h-7l3-2 14-3z" fill="#0B2952"/>
<path transform="translate(1041,310)" d="m0 0 5 1 17 6 28 8 17 5 1 3-8 1v-2h-2v-2h-10v-2l-8-2h-8l-5-3h-18l-8-5-2-5z" fill="#F5AE24"/>
<path transform="translate(1229,725)" d="m0 0 2 3-1 44-4 21-2 6-1 10-7 2-2 2-2-7 4-4 3-14 1-6h2l1-4 3-9 2-21z" fill="#FAAF1F"/>
<path transform="translate(1030,1095)" d="m0 0m-139 1 5 1 3 1 44 2h27l41-2 19-2v2l-6 2-7 1-27 2-36 1-26-1-27-2-10-3z" fill="#3F79A8"/>
<path transform="translate(405,929)" d="m0 0 10 20 4 6 7 6 5 5 16 8 13 4 31 4h22l41-5 9-2 4 1-3 2-18 3-17 2-18 2h-17l-19-2-17-3-14-4-17-9-11-11-6-10-5-11z" fill="#D5A63F"/>
<path transform="translate(1079,846)" d="m0 0 1 4 7 6 1 5-6 17-1 5-3-1-7-11-4-5-2-2 6-2 4-1 1-1v-12z" fill="#0D315D"/>
<path transform="translate(1106,586)" d="m0 0 4 2 8 15 6 11 10 21 5 8 4 9 5 6 2 5-1 3-6-3-6-14-5-12-6-10v-4h-2l-8-16-4-2-5-9-1-4-4 2-3 3-2-1 8-8z" fill="#F5AE24"/>
<path transform="translate(1293,462)" d="m0 0h5l7 10 5 6v3h-4l-1 8h-1l-1-13-7-7-16 8-18 11-10 8-3 1 2-4 11-10h2v-2l9-6 8-6z" fill="#4781A9"/>
<path transform="translate(910,700)" d="m0 0 2 2v4l8-5 3 2h3l-12 9-17 12-10 6-4 2v2l-4 1-2-5 4-2 1-3 6-2v-2l10-7 9-5 2-3-1-2h2l-1-3z" fill="#0E1E35"/>
<path transform="translate(563,626)" d="m0 0 2 1 2 10-1 5v10l1 9v33l-1 18v44l1 3 2-4-1 8-3 2-1-3-1-50 1-16-2-1z" fill="#457FA8"/>
<path transform="translate(567,648)" d="m0 0h1l1 13v94l-2 5-2-4v-44l1-23v-39z" fill="#AEC2DA"/>
<path transform="translate(1061,280)" d="m0 0h12l7 2 12 2 4 1 22 2-5 4 1 2h-8l-37-6-12-2 1-3z" fill="#F4AD24"/>
<path transform="translate(1090,789)" d="m0 0 1 3h11l6-1 4 2 1 3-2 6-9 5-5 8v4l8 3v6l-4 5-7 2-10 10-1 5 5 4 1 2v8l-4 11-1 11-5 1-3-3-6-12-5-7 4 2 7 10 3 5 2 1 1-8 5-14-1-5-7-6 2-5 12-12 8-4 1-4-1-2-7-3v-5l6-10 7-4 3-7h-16l-4-1z" fill="#2B6391"/>
<path transform="translate(707,412)" d="m0 0 3 1-2 10 1 7-7 15-1 7-3 1-2-7v-18l2-9 4-2z" fill="#FAAF1F"/>
<path transform="translate(967,619)" d="m0 0 5 3 13 12 13 11 7 7 2 5-3 2-5-3-7-7-6-4-7-8-12-12v-2l-2-1z" fill="#071324"/>
<path transform="translate(1224,862)" d="m0 0h1v9l-6 10-5 10-3 5-5 5-4 8-9 11-6 9-7 10-3 2-1-3 4-5 6-9 7-11 6-7 6-11 5-6 4-9 5-7z" fill="#518AAA"/>
<path transform="translate(1060,727)" d="m0 0h5l1 3v4l2 4 4 1 1 2 2 1v2l4 1-16 10-5 3-2-1 1-5 1-6-2-2 3-3 1-3-2-1 1-2h-3v-2l3-1z" fill="#3E78A7"/>
<path transform="translate(1122,719)" d="m0 0h7l8 7v3l-4-1-3 1-6-1h-5l-4 3-11 5-12 2 4-6 23-12z" fill="#071120"/>
<path transform="translate(1028,687)" d="m0 0 12 1 6 5 4 8-1 4h-3l-7-3-5-2-7-5h-5l-10 9-6 6-2-1 21-21z" fill="#071324"/>
<path transform="translate(912,734)" d="m0 0 1 2h2l1 3-7 4h-3v2l-4 1-3 6-2 3h-5l-9 3-2-2v4l-2 3-5 1-3 2-1-6 21-15 5-1 6-4h5v-3z" fill="#0B2448"/>
<path transform="translate(1223,240)" d="m0 0 7 6 6 8 3 3v2h2v2h2l6 10 7 9 7 11v3h2l4 8 1 3v7l-3 3-22-1-4-5 1-5 3-5v-7l-2-2-5 1-2 1-3 6-3-1 7-10h6l5 5-1 9-2 4v5l5 2h17v-9l-8-13-7-11-7-9-4-6-3-3-8-10-7-9z" fill="#0D315D"/>
<path transform="translate(1215,382)" d="m0 0 4 2 3 6 8 10v2l3 1v4h-2l-2 11-4 4-4-17-7-15v-6z" fill="#0E1F36"/>
<path transform="translate(1111,249)" d="m0 0h4v2l6-1v3h2l5 6-1 2 5 2 9 7 7 1 3 3v2l5 2v2h2l2 3v3l-4 1-3-2v-2l-4-2-11-8-6-5-6-3v-2l-5-1v-2l-2-1v-3l-5-1-3-2z" fill="#06101F"/>
<path transform="translate(868,731)" d="m0 0 2 1-3 5-3 1-1 4 2 1-2 7-11 8-5 4h-2l-1-6 8-6 2-3-9-8-5-5 1-2 5 1 8 4 5 2h2l1-3z" fill="#09172A"/>
<path transform="translate(1218,869)" d="m0 0 1 3-6 8-6 12-4 4-4 8-7 9-5 8-7 10-2 4-6 4-3 5-6 4-12 11-5 6-4 3h-2l2-4 5-5 3-1 2-4h2v-2l4-2 2-4 5-4h2v-2l6-5 5-7 1-3h2l2-5 3-3 4-9 5-1 2-5 4-9 5-4 4-8 5-9z" fill="#0D315D"/>
<path transform="translate(1136,970)" d="m0 0 2 1-5 4-5 3h-2v2l-12 9-7 4-17 9-7 4-20 8-8 3-11 3-8 4-23 4h-6l2-2 23-4 7-3 3-2 15-3 6-3 9-4 6-3 6-2 22-11 10-7 15-12z" fill="#0D315D"/>
<path transform="translate(692,775)" d="m0 0 1 4 4 1 14 7-2 1v2h-2l-2 4-4 6-1 4-5-1-4-19v-7z" fill="#F7AE21"/>
<path transform="translate(836,218)" d="m0 0 3 1-12 6-5 5-22 13-10 7-9 7-13 11-12 12-2-1 17-17 1-3 11-9 13-10 15-8 11-7z" fill="#3F79A8"/>
<path transform="translate(955,626)" d="m0 0 3 1-4 9-7 8-24 26-4-1 2-5 5-6 7-4 7-11 6-9 8-7z" fill="#F8B027"/>
<path transform="translate(1044,1095)" d="m0 0h10v1l-17 3-12 4-21 2-39 3h-14l-35-3-4-1-19-1-10-5 3-1 11 4 23 2 36 2 32-1 35-3z" fill="#0D315D"/>
<path transform="translate(843,890)" d="m0 0 2 1-7 8h-3l-2 5-5 4h-2v2l-10 8-6 9-7 4-9 7-12 8h-15l-4-6-5-5-4-5v-2h2l5 7 12 8h6l12-6 9-7 10-8 9-11 9-7h2l2-4h2l1-3z" fill="#0D315D"/>
<path transform="translate(1177,552)" d="m0 0h2l1 6-1 3-7 3-4 7-3 11h-2l1 15-1 6h-1l-2-24v-14l15-12z" fill="#F4AE24"/>
<path transform="translate(440,726)" d="m0 0 1 4-3 5-2 5 2 1-3 4v2h-3l-1 9-5 5h-3v2l-5 3-5 10-4 4-2-1 9-16 10-16 7-10z" fill="#DBA53A"/>
<path transform="translate(1050,547)" d="m0 0 14 8 15 10 11 7v2l6 2 8 5-2 4-7 7-10 8-1-2 4-4h2l1-8v-7h2v-2l-4-2-6-2v-2h-2l-5-5-7-5-4-1-6-3v-2l-9-6z" fill="#F3AF27"/>
<path transform="translate(632,861)" d="m0 0 3 1v8l-11 1-11 5-7 3-15 3-10 1h-6l-3-2v-2l16-2 16-3 20-7 6-2z" fill="#328AC8"/>
<path transform="translate(1082,424)" d="m0 0h9l5 3 1 3-2 4-3 1h-20l-5-3v-2h3v-2l6-1v-2z" fill="#BFA853"/>
<path transform="translate(966,624)" d="m0 0 7 6 13 13v2l3 1v3h2v2h2v2l4 2 5 8-5-2-4-5-3-2-2 1v-6h-2l-1 2-1-5-4-1v-2h-2l-3-4-2 1-1-7h-2l3 12v8l-3 3-1-3 2-2-2-4-2-12-1-5z" fill="#2C6492"/>
<path transform="translate(915,197)" d="m0 0h5l-4 2-25 6-14 3-15 5-11 2-16 8-9 3 4-4 9-3v-2l11-5 20-6 9-2 22-6h9z" fill="#4C86A4"/>
<path transform="translate(1143,645)" d="m0 0 6 3 3 4 5 3h6l2 1-1 5-8 8h-4l-4-8-3-5-3-4-1-6z" fill="#071222"/>
<path transform="translate(940,699)" d="m0 0 1 2 2 1-3 2-1 1-5 2 1 2h-3 4l4-4 5-3 5 1v3l-9 6-4 2-5 3-5 1v2l-2-1 2-3 1-3h2l-1-2-6 4v2h-3l-2 3-4 2-3 3-5 1 5-6 8-5 4-4h3l2-4 2-2 6-2-1-2z" fill="#2D6694"/>
<path transform="translate(779,721)" d="m0 0 3 1-2 5-7 11-8 15-5 8-5-2v-4l7-11 4-4h2l3-10 3-5 4-2z" fill="#F2AE28"/>
<path transform="translate(763,523)" d="m0 0h13l12 1h62v1l-13 1-12 2-17 1-32-2-13-3z" fill="#DEA435"/>
<path transform="translate(730,940)" d="m0 0 2 1-19 12-18 10-4 3-16 6-10 6-10 4-11 7-9 3-3-1 8-4 4-3 11-6 10-4 20-10 6-1 24-14z" fill="#CFA746"/>
<path transform="translate(1171,1028)" d="m0 0 1 2-4 4-13 8-9 7-10 5-10 6-38 18-13 4-10 5-9 3h-6l2-2 12-3 15-7 11-3 9-6 15-6 19-10 8-5 8-4h2l1-3 13-8 5-2z" fill="#75AEAE"/>
<path transform="translate(1211,524)" d="m0 0 2 1-1 2 1 5-6 6-8 4h-3l-1 3-7 4-9 3 6-8 17-13z" fill="#F4AD23"/>
<path transform="translate(1038,492)" d="m0 0 9 1 16 3 7 3-1 2-12 3-5-1-3 1h-28v-1l16-2 9-3 1-3-9-2z" fill="#DEA435"/>
<path transform="translate(691,446)" d="m0 0h1v26l4 1v2l11-1 7-3 7-2 9-6 2 1-2 4-14 7-11 4-5 1h-10l-1-1v-17z" fill="#C8A94D"/>
<path transform="translate(852,235)" d="m0 0 2 1-3 1v2h-2l-1 4-10 2-12 6-5 4h-3v2h-2l-1 2h-3l1 3-3 1-1 4-8 7-9 7-4 1v-4l12-6 4-9 7-6 13-8 16-8z" fill="#F8A511"/>
<path transform="translate(421,828)" d="m0 0 1 3-5 13-10 35-2 20v33l-2-3-1-16 1-28 3-15 2-9 2-6 6-21 4-2z" fill="#D7A53C"/>
<path transform="translate(1060,715)" d="m0 0 3 1 8 16 9 11-3 2-4-2-1-1-1-3-3-1v-2h-5l2-8h-6l-2 4-4 2 2-10 3-8z" fill="#3A73A2"/>
<path transform="translate(1230,728)" d="m0 0h1v45l-2 16-7 33h-4l-7-8-6-4-5-6 1-2 5 6 10 7h5l2-16 4-15 2-12z" fill="#D6A63E"/>
<path transform="translate(836,864)" d="m0 0 2 2-16 13-34 25-26 17-7 4-2-1 15-10 14-9 5-5 20-14 9-6h2v-2l5-2v-2l6-4z" fill="#D1A643"/>
<path transform="translate(956,500)" d="m0 0h25v1l-21 1 4 1 2 4 4 4 1 8-8-1-4-1-3-10-5-2-3-3z" fill="#CBA94C"/>
<path transform="translate(625,849)" d="m0 0 2 3 1 3v7l-4 2-7 1-9 4-12 3h-6l-3-6-1-7 2 1v4l4 2 4 1 14-4 7-4h8z" fill="#0E325E"/>
<path transform="translate(905,522)" d="m0 0h47v1l-8 1v1l-26 1h-16l-7-1h-42v-1l8-1z" fill="#FAAF20"/>
<path transform="translate(903,728)" d="m0 0 2 1-3 2zm-6 3h2l3 5v3l-12 8-3 1-2-1v2l-12 7-3 3h-2l1-5 4-3 4-2 6-2 2-4 2 1 1-4v-3z" fill="#3B78A9"/>
<path transform="translate(1113,259)" d="m0 0 5 2 14 11v2l4 2 10 8 3 2v2l4 2 1 3-3 3-23-1-14-1 2-2h20l2-1h7l3 1-2-5-16-12-4-4-11-9z" fill="#DCA437"/>
<path transform="translate(889,1026)" d="m0 0h9l22 4 19 3h40l14-1v1l-13 2-33 1h-15l-33-6-3-1v-2h-7z" fill="#366F9A"/>
<path transform="translate(838,1008)" d="m0 0 7 1 12 5 9 4 13 4 10 4 7 1v2h-8l-19-6-12-3-16-8-1-3z" fill="#437CA2"/>
<path transform="translate(954,688)" d="m0 0h2l-2 4 2 3 3 1v-2l3 1-1 3-8 6-8-1-6 4h-2l-1 3-4 1 2-5 4-2 1-2h3l-1-5 6-5h2l1-3z" fill="#356F9D"/>
<path transform="translate(1165,279)" d="m0 0 10 2h9l7 4 1 2v13l2 2 23 1 6-6-1 5-3 3h-28l-5-4 2-10-1-5-3-1-16-1-3-3z" fill="#5690AA"/>
<path transform="translate(831,733)" d="m0 0 8 1 13 10 3 4-7 6-4-1h-3l-2-7v-3-3l-3 1-1-2 3-2-3 1v-2l-2-1-1 3v-2l-2-1z" fill="#306997"/>
<path transform="translate(1021,640)" d="m0 0h10l-4 4-17 13-2 1v-2h-2l-4-6-1-2h2l-1-3 9 1 6-3z" fill="#EDB33E"/>
<path transform="translate(859,317)" d="m0 0h7l13 5 7 4-3 1-7-3-10-2-14 1-7 3-11 7-8 6-2-1 12-10 5-3 4-4 5-3z" fill="#CBA94C"/>
<path transform="translate(1165,283)" d="m0 0 6 2h11l5 3v6l-3 5v3l3 3-5-2v-6l2-2-1-5-1-2-8-1-2 6-3 3-7 3h-3l-1-4 1-3h2l1-3 3-3z" fill="#0C305C"/>
<path transform="translate(929,126)" d="m0 0h53l9 1v1l-54 1-19 2-13 4-14 3-18 2 1-2 10-2 11-1 12-5 14-2z" fill="#0D315D"/>
<path transform="translate(1219,385)" d="m0 0 5 5 10 12 1 4-3 6-2 10h5v-2l8-6 6-8-1-5-6-5 2-1 7 5 1 7-11 12-11 8-5 4-1-2 1-7 3-4 3-11h2l-1-4-5-5-8-11z" fill="#103661"/>
<path transform="translate(1053,281)" d="m0 0 4 1v2l-4 2-7 8-6 5-3 4 1 5-4-1-1-2v-7l9-11 5-4z" fill="#F6AE22"/>
<path transform="translate(567,584)" d="m0 0h3v14l-1 25-1 9 1 6v23h-1l-1-8-2-1v-10l1-6-2-9h-2l3-9 2-11 1-12z" fill="#75ADAD"/>
<path transform="translate(765,293)" d="m0 0 2 1-13 16-8 9-16 24-5 9-6 10h-2l-1 2 1-5 9-15 5-8 10-14 8-11 8-9 7-8z" fill="#CAA94C"/>
<path transform="translate(802,714)" d="m0 0 2 1v15h-4l1 3-3 2h5v2h-3l-1 5-3 3 1 1 1 2-5 3h-2v-9l2-8h2l2-5v-3h2l1-2-2-1v-2h2v-5z" fill="#306896"/>
<path transform="translate(623,831)" d="m0 0h1l3 16 4 13-1 4-10 4-21 7h-10l-1-2v-6l2 4 12-1 14-5 1-1 10-2v-7l-4-15z" fill="#2B6391"/>
<path transform="translate(973,519)" d="m0 0 10 1 3 2-1 3-13-1-4-1-93-1v-1l55-1 43 1z" fill="#C8A94D"/>
<path transform="translate(1041,205)" d="m0 0h7l24 8 16 8 11 6 10 5-4 1-17-9-12-5-10-5-11-2-14-6z" fill="#518BAA"/>
<path transform="translate(1244,782)" d="m0 0h1l-1 23-4 18-7 21-4 13-3 8-2-3 1-6 4-9 12-40 1-4 1-20z" fill="#4F89A9"/>
<path transform="translate(875,732)" d="m0 0 5 1 3 1 3-1-2 4-11 7-8 5-2-1 1-5h-2l2-6 7-2z" fill="#081425"/>
<path transform="translate(1100,251)" d="m0 0 5 2 8 5 4 5 10 8 3 2v2h2v3l-4-1-10-6-7-5v-2l-4-1 1-5-4-1z" fill="#F6AD22"/>
<path transform="translate(754,376)" d="m0 0 4 1-13 5-4 3h-2l1 5h28l5 1v1l-44 1-2-4 10-6 8-4z" fill="#CBA94C"/>
<path transform="translate(740,936)" d="m0 0 4 2-1 4-1-2-6 1-10 6-21 13-5 2-2 4 1 6 7 10v3l-7-8-4-7v-3l-4-2 8-5 19-11 16-10z" fill="#A0AC9A"/>
<path transform="translate(1039,701)" d="m0 0 5 2 2 1 2-2 2 2 2 3v2l5-1 5 7-4 1-1 4h-2l-1-3-4-1-7 3v-2l5-2-6-9-4-4z" fill="#0E213B"/>
<path transform="translate(691,389)" d="m0 0 1 2-2 5-3 18-3 12-3 13-3 17h-2l1-13 4-20 5-23 2-8z" fill="#0B2951"/>
<path transform="translate(1166,776)" d="m0 0 4 4 4 7 3 6 10 4 7 9 7 11 1 3h5l5-4 1 4-7 3-5-1-6-9-7-9v-2l-6-1-1-2h-5l-3-6-3-9-4-6z" fill="#0A254C"/>
<path transform="translate(554,765)" d="m0 0 3 1-1 10-8 12-5-1 1-9 2-4h2l2-5z" fill="#348BC8"/>
<path transform="translate(430,822)" d="m0 0 1 4-8 21-2 6h-2l1 7-6 18-3 2 2-12 8-26 8-19z" fill="#101E32"/>
<path transform="translate(673,777)" d="m0 0h2l2 15 3 15 4 15 3 18 12-1-2 2-10 1-5 1 1-2-1-11-4-20-2-8-3-19z" fill="#518AAA"/>
<path transform="translate(1278,906)" d="m0 0h1v5l-8 16-6 11-8 13-12 15-5 5-3 5-5 6h-2l2-4 4-5 7-8 15-20 7-12 8-16z" fill="#0D315D"/>
<path transform="translate(1089,377)" d="m0 0h23v2l-8 1 1 5h-20l-1-3h3l1-4z" fill="#BEA954"/>
<path transform="translate(712,371)" d="m0 0 1 3-3 7v7l2 5h-2l-1 3-5 2-4 16-1 5h-2l-1 3 1-9 4-13 5-16z" fill="#CAA94C"/>
<path transform="translate(992,911)" d="m0 0 9 1v1l-12 1v3l13 10 7 7 1 3-1 1h-9l-22-2v-1h26l-4-6-5-4-6-3-4-5 1-4z" fill="#0D315D"/>
<path transform="translate(902,724)" d="m0 0 3 1-4 4v3l-2 1v-2l-11 7-5 5-5 3h-2v2l-6 2 1-4h2l1-4 16-10z" fill="#3480B7"/>
<path transform="translate(929,710)" d="m0 0 1 4-2 1-2 4 1-1 5-2 7-5 2 1-10 8-16 10h-2v-2h2l1-3 1-1-1-2-2-1 4-2 3-3 6-5z" fill="#3C79A9"/>
<path transform="translate(925,686)" d="m0 0h2v2l-4 4h5l-4 5-2 5-4 1-7 4v-6-3l4-2 1-3h2v-3l4-1zm-16 14m-1 1 2 1v2h-3z" fill="#0C192B"/>
<path transform="translate(810,522)" d="m0 0h95v1l-44 1-10 1h-40z" fill="#CFA745"/>
<path transform="translate(1242,498)" d="m0 0h1l1 9v95h-1l-1-55-1-38z" fill="#0D315D"/>
<path transform="translate(1314,473)" d="m0 0 5 5 10 11 6 8 8 10-1 6-3 1-3-6v-2l-3-1v-5l-11-14-8-11z" fill="#0E335F"/>
<path transform="translate(1149,179)" d="m0 0 5 1v2l5 2 3 3 11 7v2l5 2 5 3v2l4 2 14 13 11 9 4 5-1 2-12-12-8-7-14-12-9-6-3-3-9-5-8-7z" fill="#0D315D"/>
<path transform="translate(926,499)" d="m0 0 5 1 10 3 2 4-5 4 4 4 11 3 1 2h-6v-2l-11-1-5-5-1-9-8-2z" fill="#CBA94C"/>
<path transform="translate(554,583)" d="m0 0h4l1 17 1 8v18h-2v-10l-1-17-4-2-1-3-6-1 6-8z" fill="#DEA435"/>
<path transform="translate(1240,804)" d="m0 0 1 3-10 30-2 4-1-10 1-5 2-5 1-6h2l2-8z" fill="#0A2850"/>
<path transform="translate(1162,772)" d="m0 0 2 1v2h2l4 8 3 5 3 11 5-1 5 3 4 4 11 15 1 3h-2l-6-9-7-9-4-1-2 2-5-1-4-10-2-8-8-13z" fill="#0C305C"/>
<path transform="translate(1152,742)" d="m0 0 4 2 6 9 11 12 14 18 6 9 5 5 2 5-7-6-16-22-7-8-5-5-12-15z" fill="#D6A63E"/>
<path transform="translate(742,934)" d="m0 0 4 2 6 9 14 12 7 8 3 2-5-1-4-5-4-3-5-2-7-6-6-4-3-9z" fill="#346C96"/>
<path transform="translate(964,793)" d="m0 0 3 2v2l4 2 6 6v2l5 2 2 3-2 2-3-1-2-2-6-3-2 2-2-1-4-11z" fill="#275C8A"/>
<path transform="translate(401 1e3)" d="m0 0 6 2 4 3 10 3 9 5 14 4 5 1 2 2-10-1-18-5-17-8-5-4z" fill="#D6A541"/>
<path transform="translate(1012,910)" d="m0 0 4 4 8 2 4 6v2l-9-1-16-8-2-2 9 1z" fill="#0D315D"/>
<path transform="translate(682,807)" d="m0 0 3 4 3 12 1 9 1 2 7-1 2-2 9-3 4-1 3-5 2 1-2 2-1 4-9 4-8 4-5 2-4-1-3-17-3-11z" fill="#0D315D"/>
<path transform="translate(1106,376)" d="m0 0h7l7 4 1 5-1 1h-16v-5l-4-1 4-1h8v-2h-6z" fill="#CDA848"/>
<path transform="translate(1200,906)" d="m0 0 1 4-8 10-6 9-7 10-3 2-1-3 4-5 6-9 7-11z" fill="#4B85A9"/>
<path transform="translate(691,375)" d="m0 0 1 3-3 10-3 7-6 28-2 5-2 6h-1l1-10 8-32z" fill="#568FAA"/>
<path transform="translate(1083,1007)" d="m0 0m-4 1h4v2l-7 3-1 2-11 4-9 3-11 2-3 2-3-1 7-5 14-3z" fill="#3F79A8"/>
<path transform="translate(1227,975)" d="m0 0v3l-8 10h-2v2l-8 7-7 8-6 4-5 5-11 10-6 4-2-1 11-9 15-14 8-7 7-8 7-5 6-8z" fill="#75AEAE"/>
<path transform="translate(761,521)" d="m0 0 39 1 12 1-1 2h-23l-12-1-33-1v-1z" fill="#CBA84A"/>
<path transform="translate(1040,365)" d="m0 0 7 1 3 5 7 3v1h-12v-4l1-4-16 2-4 2h-14l-4-3h20v-2z" fill="#C2A951"/>
<path transform="translate(1132,726)" d="m0 0 5 3 1-2 7 8 7 7-1 4-6-2-1-3-4-2v-2h-2l-6-8z" fill="#0F1D31"/>
<path transform="translate(1176,354)" d="m0 0 7 1 9 3 6 7 7 5 6 7 4 13-1 3-4-9-5-9-15-14-14-6z" fill="#CFA746"/>
<path transform="translate(930,327)" d="m0 0h6l14 8 14 7 11 8v2l-5-2-14-9-21-10-5-3z" fill="#C8A94E"/>
<path transform="translate(905,134)" d="m0 0 4 1-8 4-8 2-14 2v-2l-16 5-5 1 1-2 21-7 18-2z" fill="#3D759C"/>
<path transform="translate(980,647)" d="m0 0 5 1 3 1 1 4-2 5 3 2-3 1-3-2v-3l-3 1-2 3-6-1v-2h2v-5l5-3z" fill="#36709E"/>
<path transform="translate(906,683)" d="m0 0 1 2-12 18-4 5-3-1v-6l7-7h2l1-5z" fill="#F5AF26"/>
<path transform="translate(553,642)" d="m0 0h3l1 6-4 7-5 2-2 2h-3l-1-3 1-4 4-4h2l2-4z" fill="#101E32"/>
<path transform="translate(1303,802)" d="m0 0h1l-1 18-5 24-2 2-2 9h-1l1-10 1-7h2v-7l3-17 2-11z" fill="#4780A8"/>
<path transform="translate(880,443)" d="m0 0 4 2 4 5 5 11 1 3 7 4 16 5 6 3 12 3v1h-7l-17-6-14-5-5-4-8-16-4-5z" fill="#C8A84C"/>
<path transform="translate(914,215)" d="m0 0h6l-1 3-10 4-10 1-3 2h-6l-2-2 7-3z" fill="#FAAE1E"/>
<path transform="translate(915,197)" d="m0 0h5l-4 2-25 6-14 3-6 1 4-4 9-2 5-2 12-3h9z" fill="#457EA1"/>
<path transform="translate(734,936)" d="m0 0 2 1-13 8-25 15-9 5-2-1 9-6h2l1-3 9-5 5-3 10-5z" fill="#DEA435"/>
<path transform="translate(991,359)" d="m0 0 9 3 8 2h36l-4 2-21 2h-7l-15-5-6-3z" fill="#DEA435"/>
<path transform="translate(910,700)" d="m0 0 2 2v4l8-5 3 2h3l-12 9-6 3-3-5 4-4-1-2h2l-1-3z" fill="#0D1E36"/>
<path transform="translate(1228,390)" d="m0 0 6 2 9 7 2 4-5 5h-2l-3-9h-2l-5-5z" fill="#3F79A8"/>
<path transform="translate(790,734)" d="m0 0 1 3h2l-2 14 15-9 1 2-3 5h-2v2l-5 1-1 2h-3v-2h-3v-5l-3-1v-2l-3-1 2-3h2v-2h2z" fill="#0B2447"/>
<path transform="translate(1165,618)" d="m0 0 2 3 1 5v30l-3 6-8 8h-5l4-2 7-7 2-4v-19l-1-18z" fill="#F3AB23"/>
<path transform="translate(835,779)" d="m0 0h2v2l-2 1 1 2-29 19-4-2 5-2 4-4 11-7 7-5h3z" fill="#3778AB"/>
<path transform="translate(940,699)" d="m0 0 1 2 2 1-3 2-1 1-5 2 1 2h-3v2l-5 1-4 4-3 1-2 3-4 2-3 3-5 1 5-6 8-5 4-4h3l2-4 2-2 6-2-1-2z" fill="#2A608E"/>
<path transform="translate(770,437)" d="m0 0m-3 1 5 1-4 2-12 4-6 4h-2l-2 4-4 6-8 6-3-1 10-9 7-8 4-4 10-4z" fill="#C1A952"/>
<path transform="translate(1300,840)" d="m0 0h1l-1 16-5 15-6 16-4 10-5 9-1-3 6-11 10-29 3-10 1-11z" fill="#0D315D"/>
<path transform="translate(1137,725)" d="m0 0 9 5 5 5 5 3v2h2l1 6-9-5-12-12z" fill="#F5AC21"/>
<path transform="translate(805,715)" d="m0 0h8l11 9 7 6-2 2-3-1-2-2-4-2-8-6-4-1 2-1-3-2v2h-2z" fill="#2A6190"/>
<path transform="translate(1065,723)" d="m0 0 4 5 4 7 7 8-3 2-4-2-1-1-1-3-3-1v-2h-5l2-8-3-2z" fill="#2B6391"/>
<path transform="translate(1050,547)" d="m0 0 14 8 15 10 11 7v2l3 1v2l-4-2-6-2v-2h-2l-5-5-7-5-4-1-6-3v-2l-9-6z" fill="#F1AE29"/>
<path transform="translate(1484,273)" d="m0 0h1v6l-8 14-6 6-4 1 2-4 8-11 5-10z" fill="#142841"/>
<path transform="translate(565,696)" d="m0 0h1v60l1 3 2-4-1 8-3 2-1-3-1-50z" fill="#75AEAE"/>
<path transform="translate(1030,137)" d="m0 0 21 1 17 6 7 2 5 3-3 1-24-8-12-2h-7v-2z" fill="#2C6492"/>
<path transform="translate(791,1060)" d="m0 0 6 2 15 8 16 8 5 3 15 4 4 4-9-3-13-3-6-5-16-7-8-5-9-5z" fill="#0D315D"/>
<path transform="translate(1215,382)" d="m0 0 4 2 3 6 8 10v2l3 1-1 4-2-2-6-1-2-9-3-5-2-1-2 2-1-1v-6z" fill="#0A254C"/>
<path transform="translate(1161,277)" d="m0 0 4 2 3 4 16 1 4 2 1 6-2 9 4 3 14 2v1h-11l-8-3-3-2 1-5 2-3v-6l-4-2h-13l-6-5v-2h-2z" fill="#2B6391"/>
<path transform="translate(661,937)" d="m0 0 2 1-2 3-19 9-11 5-8 3h-7l3-2 15-6 17-7z" fill="#D6A53D"/>
<path transform="translate(719,363)" d="m0 0 5 1 2 4v6l-5 5-1-6h-2l-2-5z" fill="#F8A511"/>
<path transform="translate(1306,481)" d="m0 0 6 5 6 8 7 7 3 5-5-2v-2h-2l-5-6v-2l-9-3v8h-1z" fill="#0D315D"/>
<path transform="translate(1095,230)" d="m0 0 5 1v2l7 2 10 7 1 4-4 1-7-6v-2l-9-3-3-4z" fill="#0A274F"/>
<path transform="translate(1176,1031)" d="m0 0h2l-1 3-5 5-8 5h-2v2l-4 2-5 5-17 9-5 3-3-1 12-7 8-4 5-3 9-8 9-6z" fill="#0D315D"/>
<path transform="translate(784,864)" d="m0 0 2 1-10 8-16 10-17 11-3 2-4-1 16-10 18-11z" fill="#D8A53B"/>
<path transform="translate(967,653)" d="m0 0h1l1 7-4 1v2l-6 5-5 2 1-9 7-4 3-3 1 3z" fill="#326C9C"/>
<path transform="translate(975,351)" d="m0 0 5 2 9 5 10 5 13 4h16v1l-6 1h-11l-10-2-16-8-10-6z" fill="#C8A94D"/>
<path transform="translate(557,586)" d="m0 0 2 1 2 15 2 23-3 6-8 9-2-1 8-9 1-4v-18l-2-17z" fill="#C7A94E"/>
<path transform="translate(798,264)" d="m0 0 2 1-4 2v2l-5 4-5 6-9 7-5 5-5 3 1-4 9-8 11-9 8-8z" fill="#D3A641"/>
<path transform="translate(809,239)" d="m0 0 4 1-7 4-14 9-4 2v2h-2v2l-4 4h-3v2l-5 2 3-5h2v-2l11-9 14-9z" fill="#0B2952"/>
<path transform="translate(965,636)" d="m0 0 2 1 1 7-2 4-6 2-2 4-3 1 2-7 2-4 4-6z" fill="#2A5F8E"/>
<path transform="translate(1148,525)" d="m0 0 1 3v2h-3l-1 2-4 3h-9l1-4 3-2 1-3h9z" fill="#0A244B"/>
<path transform="translate(707,352)" d="m0 0 1 2-2 4h-2l-3 9-1 6h-2l-3 12-2 4-3 1 1-6 7-18 5-11z" fill="#0A2850"/>
<path transform="translate(996,832)" d="m0 0 6 3 2 2 1 13-6-4-4-11z" fill="#0C305C"/>
<path transform="translate(865,759)" d="m0 0v3h-3v2l2 1-18 12-4 2-3-2 3-2 2 1v-3h3v-2h2v-2l3-1 1-2 3-1 2-2z" fill="#367EB4"/>
<path transform="translate(1044,295)" d="m0 0h2l1 4v9l-5 1-5-4 1-4 5-5z" fill="#061120"/>
<path transform="translate(1062,213)" d="m0 0 6 1 17 8 16 8 12 7 3 4-4-2-6-4-6-2v-2l-4-1-27-13-7-3z" fill="#2B6391"/>
<path transform="translate(980,1034)" d="m0 0h7v2l-3 1h-46v-1l9-1z" fill="#4B85A9"/>
<path transform="translate(558,1016)" d="m0 0 4 1-18 4-18 3-21 1v-1l34-5 3-1z" fill="#C8A754"/>
<path transform="translate(1085,324)" d="m0 0 11 2 12 4 1 3-8 1v-2h-2v-2h-10v-2l-8-2z" fill="#EFAC27"/>
<path transform="translate(827,245)" d="m0 0 4 1-14 8-11 8-14 12-2-1 4-4h2v-2l5-5 14-10z" fill="#D8A53B"/>
<path transform="translate(408,876)" d="m0 0 1 4-2 8v42l-2-1-1-5v-25l2-20z" fill="#101E32"/>
<path transform="translate(687,469)" d="m0 0h1v52h-1l-1-13-1-9 1-26z" fill="#0A2750"/>
<path transform="translate(1043,517)" d="m0 0h7l17 3h15l2 2 10 1 1 2-16-1-32-5z" fill="#EBAD2E"/>
<path transform="translate(1127,337)" d="m0 0 12 3 8 3-2 2-6 2-5-1v-2l-4-1-2-2z" fill="#F2AC25"/>
<path transform="translate(807,717)" d="m0 0 4 2 1 1 4 3v3l-1 6h2l-1 3-9-1 4-3v-3l2-5-3 1-1 5h-2v-5l-1-3z" fill="#3E78A7"/>
<path transform="translate(836,218)" d="m0 0 3 1-12 6-5 5-12 7-4-2 11-7 14-8z" fill="#5C95AB"/>
<path transform="translate(1230,728)" d="m0 0h1v45l-2 16-2 9h-1v-10l3-16z" fill="#D7A53D"/>
<path transform="translate(802,714)" d="m0 0 2 1v15h-4l1 3-6 2 1-4v-3l4-4-2-1v-2h2v-5z" fill="#2B6290"/>
<path transform="translate(966,633)" d="m0 0 2 2 1 12 2 1v2 3 4h-2l-1 2-1-2-2 2-1-4-5 5h-3l3-3h2l2-4h2l3-6-3-1h2z" fill="#3C80B2"/>
<path transform="translate(1045,365)" d="m0 0 4 1 6 5 31 3 19 1v1h-20l-29-2-7-3-2-4z" fill="#DEA435"/>
<path transform="translate(710,334)" d="m0 0v3l-4 6-1 6-5 10h-2l-1 8-3 8h-2l1-4 5-15 8-18z" fill="#5D96AB"/>
<path transform="translate(866,1019)" d="m0 0 8 1 15 6 7 1v2h-8l-21-7z" fill="#3E779F"/>
<path transform="translate(1113,259)" d="m0 0 5 2 14 11v2l4 2 10 8 3 2-1 2-9-6-9-7-4-4-11-9z" fill="#D3A641"/>
<path transform="translate(879,140)" d="m0 0m-4 1h4v2l-22 9h-4l1-3 17-7z" fill="#4C86A9"/>
<path transform="translate(1400,465)" d="m0 0h7l1 4-2 7h-5l-3-6 1-4z" fill="#12243C"/>
<path transform="translate(710,339)" d="m0 0 1 3-13 26-4 10-3 2 1-5h2l4-16 3-3 7-15z" fill="#2C6492"/>
<path transform="translate(1163,631)" d="m0 0 2 3 1 4v15h-2v-10l-4-2-2-4 2-5z" fill="#071121"/>
<path transform="translate(421,828)" d="m0 0 1 3-5 13-4 14-2-3 1-7 3-13 3-3h2z" fill="#D7A53D"/>
<path transform="translate(971,660)" d="m0 0h3l-2 5-3 4h-3v-2l-7 4-2 2h-5l1-2h3l1-3z" fill="#09172A"/>
<path transform="translate(929,130)" d="m0 0 24 1v1l-32 2-12 3-3-1 7-3z" fill="#5892AA"/>
<path transform="translate(754,758)" d="m0 0 4 2v4h-2v3l-6 3h-2v2h-2l3-10 2-3z" fill="#071222"/>
<path transform="translate(973,519)" d="m0 0 10 1 3 2-1 3-13-1-14-2v-1h15z" fill="#CBA94C"/>
<path transform="translate(1270,477)" d="m0 0m-1 1m-1 1 4 2-5 4-10 7-7 5v-3l12-11h2v-2z" fill="#4585AF"/>
<path transform="translate(624,947)" d="m0 0 5 1-2 6-5 2-11 1 1-2h3v-2l6-5z" fill="#0E1F38"/>
<path transform="translate(804,709)" d="m0 0h3l5 5-1 2h-5l-1 3h2l1 6-2 7-4 1 2-5-2-1 1-5 1-9v-3z" fill="#2F6896"/>
<path transform="translate(795,982)" d="m0 0 4 2 20 12 12 7 7 4-3 1-12-7-11-6-11-7-6-5z" fill="#2B6391"/>
<path transform="translate(758,821)" d="m0 0 4 1v2l-6 4-4 2h-5l-1 2-1-5 10-5z" fill="#3497D7"/>
<path transform="translate(808,722)" d="m0 0 5 1-1 5v3l-3 2 1 2-8 1-6 1 1-3 3-2v-2l4 1h2l1-3 2-1z" fill="#356E9C"/>
<path transform="translate(968,629)" d="m0 0h2l2 4h-2l3 12v8l-3 3-1-3 2-2-2-4-2-12-1-5z" fill="#29608E"/>
<path transform="translate(753,925)" d="m0 0h2v7l-1 2 2 1-1 1h-7l-1-2v-3l-1 4-3-1 3-5z" fill="#101E32"/>
<path transform="translate(1109,755)" d="m0 0 1 3h4l2 4-1 5-7 7-8 7-7 6 2-4 10-10 7-6 2-4-5-2-1-5z" fill="#2E6795"/>
<path transform="translate(820,710)" d="m0 0 3 1v2l5 2v2l4 2 4 6h-3l-13-10-2-4z" fill="#E4AC38"/>
<path transform="translate(554,583)" d="m0 0h4l-2 10-4 1-6-1 6-8z" fill="#E8AD33"/>
<path transform="translate(1136,527)" d="m0 0v3l-3 3 2 1 3 2h-2l-1 2-3-1-2 6h-5l1-4 3-5-3-1 5-2z" fill="#0E203A"/>
<path transform="translate(691,446)" d="m0 0h1v26h-1v5l1 1h7l8-1-2 2-5 1h-10l-1-1v-17z" fill="#CBA94C"/>
<path transform="translate(773,390)" d="m0 0h17l10 2v1h-29l2-1z" fill="#C1A952"/>
<path transform="translate(666,850)" d="m0 0 2 1-6 3-15 5-8 4-5-1-1-4 3 2 5-1 11-5z" fill="#75AEAE"/>
<path transform="translate(839,752)" d="m0 0 4 1 3-1 2 2-3 3v6l-5 2-1-3-2-1 4-4h-2v-2l-2-1z" fill="#36709E"/>
<path transform="translate(700,532)" d="m0 0 3 1-6 7-3 5h-2l-1 2v-11z" fill="#FBB020"/>
<path transform="translate(803,265)" d="m0 0h4l-2 6-10 8-7 3v-4l12-6z" fill="#FBB020"/>
<path transform="translate(586 1e3)" d="m0 0 3 1-3 2 2 2-17 5-9 2 2-1v-2l13-3 2-4z" fill="#DFAA3B"/>
<path transform="translate(902,724)" d="m0 0 3 1-4 4v3l-2 1v-2l-11 7h-3l2-4z" fill="#3384BF"/>
<path transform="translate(936,663)" d="m0 0 5 1-3 2v3l-6 4-4 5-1 2-2-1v-6l3-1 7-8z" fill="#0E1C31"/>
<path transform="translate(1242,395)" d="m0 0 5 2 5 5v5l-11 12-6 5-2-1 5-5 5-4 6-8-1-5-6-5z" fill="#0D315D"/>
<path transform="translate(989,647)" d="m0 0 5 3 7 7 4 1 3-2 1 3-8 7-1-3v-2l-5-7-2-1v-2h-2v-2h-2z" fill="#3C7CA9"/>
<path transform="translate(892,782)" d="m0 0 2 1-4 6v3h-6l-4 4-5 3-4 3-2-1 17-14z" fill="#E3A831"/>
<path transform="translate(1148,747)" d="m0 0 4 3v3h2l8 13 3 6-1 3-4-4-3-8-7-11z" fill="#0A254D"/>
<path transform="translate(1069,728)" d="m0 0 12 9 1 3h3v2l-5 2-11-13z" fill="#0E2038"/>
<path transform="translate(1028,687)" d="m0 0 2 1zm-3 1 3 1 1 3h-2v2l-6 2-8 7-7 7-2-1z" fill="#0E2442"/>
<path transform="translate(804,236)" d="m0 0 2 1-11 7-16 12-5 5h-2v-2l11-9 13-10z" fill="#75AEAE"/>
<path transform="translate(545,594)" d="m0 0 2 1-1 7-4 4-6 1-3 2 2-4 5-6h2l2-4z" fill="#DBA53B"/>
<path transform="translate(995,646)" d="m0 0 5 3 4 3 3 4-3 3-5-3-2-3 1-1-4-4z" fill="#0D1C32"/>
<path transform="translate(1223,414)" d="m0 0 2 4v11l-4 7-8 7v-3l4-5h2l3-6z" fill="#D1A744"/>
<path transform="translate(1085,149)" d="m0 0 6 1 9 4 17 7 4 4-5-1-10-5-8-3-8-4-5-2z" fill="#0D315D"/>
<path transform="translate(1113,254)" d="m0 0 6 2 3 5 4 2 2 5-4-1-9-7-4-3 1-2z" fill="#0F1E34"/>
<path transform="translate(1464,228)" d="m0 0 8 1 2 5-5 1-2-1v-2h-10l-1-2z" fill="#122237"/>
<path transform="translate(783,904)" d="m0 0m-1 1v3l-20 13-7 4-2-1 15-10z" fill="#CBA94C"/>
<path transform="translate(1045,692)" d="m0 0 6 2 5 5 1 3-6 2-2-3z" fill="#F8AF22"/>
<path transform="translate(834,224)" d="m0 0 3 1-5 1-2 4-7 4-8 5-4-1 10-7 10-6z" fill="#0B2B54"/>
<path transform="translate(668,1015)" d="m0 0h3l1 3 7 6 5 6 3 3-1 3-13-13-5-6z" fill="#1B4571"/>
<path transform="translate(1261,926)" d="m0 0 1 2-6 11-8 12-6 7v-3l4-6 5-6 4-7z" fill="#75AEAE"/>
<path transform="translate(985,646)" d="m0 0 6 3v2h2v2l4 2 5 8-5-2-4-5-3-2-2 1v-6h-2l-1 2z" fill="#285E8C"/>
<path transform="translate(982,480)" d="m0 0h6v1l19 3v1h-10l-25-2-2-2h12z" fill="#FBB020"/>
<path transform="translate(682,426)" d="m0 0 1 2-5 28h-2l1-13 2-11z" fill="#0A2851"/>
<path transform="translate(941,664)" d="m0 0 2 2-1 2 3 1h-3l-1 4h-2l-1-1-2 2h-5l5-5 2-4z" fill="#06101F"/>
<path transform="translate(847,213)" d="m0 0h4v2l-16 8-9 3 4-4 9-3v-2z" fill="#4C86A9"/>
<path transform="translate(781,904)" d="m0 0 2 1-30 20-2-1 8-6 17-11z" fill="#DEA435"/>
<path transform="translate(1039,701)" d="m0 0 5 2 2 1 2-2 2 2 2 3v3l-4 1-1-3-4-1-5-5z" fill="#0F1E34"/>
<path transform="translate(966,647)" d="m0 0h2l-2 4-5 6-5 3-1-5 7-6z" fill="#0A1C34"/>
<path transform="translate(1219,385)" d="m0 0 5 5 10 12 1 4-3 6h-2l1-5h2l-1-4-5-5-8-11z" fill="#0C2F5B"/>
<path transform="translate(737,295)" d="m0 0v3l-7 9-10 13-4 4 1-4 7-9 4-6h2l2-4z" fill="#75AEAE"/>
<path transform="translate(1255,298)" d="m0 0 5 2 1 5-2 2h-5l-1-1v-6z" fill="#AEC2DA"/>
<path transform="translate(687,963)" d="m0 0m-2 1h2v3l-12 5-8 5h-2l1-3 12-7z" fill="#D8A53B"/>
<path transform="translate(682,825)" d="m0 0 1 3h2l2 12 12-1-2 2-10 1-5 1 1-2z" fill="#4F88A9"/>
<path transform="translate(392,809)" d="m0 0 2 1-1 4h-2l-1 6-4 10-4 8-2-2z" fill="#E9AD35"/>
<path transform="translate(884,724)" d="m0 0m-2 1h2l3 6-4 1v2l-4 1-2-5 4-2zm4 1 2 1-2 1z" fill="#0E1C2F"/>
<path transform="translate(1175,285)" d="m0 0h7l5 3v6l-3 5v3l3 3-5-2v-6l2-2-1-5-1-2-8-1z" fill="#0D315D"/>
<path transform="translate(1109,761)" d="m0 0 5 2-2 5-5 5-2-1 2-10z" fill="#0D315D"/>
<path transform="translate(887,739)" d="m0 0 2 1-2 4h-2l-2 4-6 2-2 3-2-4 3-1v-2z" fill="#328BC9"/>
<path transform="translate(821 1e3)" d="m0 0 6 2 8 5 5 2v2l-9-2-10-6z" fill="#518AAA"/>
<path transform="translate(914,730)" d="m0 0m-2 1 2 1-4 4-3 2v3l-3 1v-2l-11 6 1-3z" fill="#0E213C"/>
<path transform="translate(919,712)" d="m0 0 2 1-3 4-5 3h-2l-2 4-3 3h-3l-1 3-2-1 5-7 13-9z" fill="#3675A7"/>
<path transform="translate(1204,370)" d="m0 0 5 5 3 5 3 10-1 3-4-9-5-9-2-4z" fill="#C4A956"/>
<path transform="translate(921,793)" d="m0 0 2 1-12 12h-2v2l-10 8-2-1 14-13 8-7z" fill="#0D2648"/>
<path transform="translate(693,790)" d="m0 0 2 4 1 3 4-1 2 1-2 7-5-1-2-8z" fill="#E2AB35"/>
<path transform="translate(1013,702)" d="m0 0h2l1 5-4 1-8 7-3-1 2-4 5-3z" fill="#2B618F"/>
<path transform="translate(849,234)" d="m0 0h5l-4 3-16 8h-5l4-3z" fill="#D4A640"/>
<path transform="translate(948,695)" d="m0 0v3l-4 2 1 3-6 4h-2l-1 3-4 1 2-5 4-2 1-2h3v-4z" fill="#3E79A8"/>
<path transform="translate(1149,288)" d="m0 0 4 2 1 3-3 3-23-1v-1l15-1h6l2-2z" fill="#CBA94C"/>
<path transform="translate(915,194)" d="m0 0h12v2l-17 3-5-1 3-2z" fill="#518BAA"/>
<path transform="translate(1061,1131)" d="m0 0 9 1-1 2-4 2h-11v-2z" fill="#0F1E32"/>
<path transform="translate(817,792)" d="m0 0 4 2-14 9-4-2 5-2 4-4z" fill="#3975A5"/>
<path transform="translate(976,651)" d="m0 0h2l1 3v1l3-1 1-2h3v3l-5 2-2 3-6-1v-2h2v-5z" fill="#2D6593"/>
<path transform="translate(898,202)" d="m0 0h5l-4 3-17 3-6 2h-5l3-2 10-3z" fill="#0B2952"/>
<path transform="translate(1e3 1031)" d="m0 0 9 1v1l-16 3h-6l1-3z" fill="#548EAA"/>
<path transform="translate(717,324)" d="m0 0 1 2-5 10-5 6-1 3h-2l2-6 3-3 4-10z" fill="#4A84A9"/>
<path transform="translate(1254,296)" d="m0 0 5 1 3 4-1 7-6 1-4-3 1-7zm1 2-2 2v6l1 1h5l2-2-1-5z" fill="#75AEAE"/>
<path transform="translate(676,289)" d="m0 0 1 2-7 11-7 14-3 2 1-4 10-18z" fill="#75AEAE"/>
<path transform="translate(1160,279)" d="m0 0h3l3 7-5 6h-2l-1 3-3-6 6-1 1-4-2-2z" fill="#0A264E"/>
<path transform="translate(853,752)" d="m0 0 4 2-10 8h-2l-1-6 3-1 2 1z" fill="#0B203C"/>
<path transform="translate(967,653)" d="m0 0h1l1 7-4 1v2l-5 4 1-4 1-3-3-1 6-5 1 3z" fill="#295F8D"/>
<path transform="translate(966,624)" d="m0 0 7 6 13 13-1 2-12-12-3-2v-2h-2l-1 3z" fill="#3475A6"/>
<path transform="translate(1060,715)" d="m0 0 3 1 1 4-2 3v-2l-2 1-2 4-2-2 1-6z" fill="#2B6391"/>
<path transform="translate(503,643)" d="m0 0h2l-2 6-3 5h-3v2l-4 1 2-4z" fill="#DCA539"/>
<path transform="translate(958,339)" d="m0 0 6 3 11 8v2l-5-2-12-8z" fill="#C5A94F"/>
<path transform="translate(806,848)" d="m0 0h2l-2 7-7 2-5 1 5-5z" fill="#DAA438"/>
<path transform="translate(1183,779)" d="m0 0 4 4 6 9 5 5 2 5-7-6-8-11-2-3z" fill="#D7A53C"/>
<path transform="translate(953,693)" d="m0 0h2l1 2 3 1v-2l3 1-1 3-9 6-1-5 3-1z" fill="#2D6694"/>
<path transform="translate(1113,541)" d="m0 0 4 2-1 4-4 2-4-1 2-4-2-1z" fill="#0A2448"/>
<path transform="translate(1297,307)" d="m0 0h4l3 7v4l-4-1-3-6z" fill="#11233A"/>
<path transform="translate(1240,816)" d="m0 0 1 4-6 17-2-4 5-14z" fill="#5791AA"/>
<path transform="translate(935,698)" d="m0 0 4 2-5 5-5 2-3 4-5 1 8-8h2v-2h2v-2h2z" fill="#3776A8"/>
<path transform="translate(1262,479)" d="m0 0 2 1-14 12-3 1-2 4-2 1 1-4 10-9z" fill="#0D315D"/>
<path transform="translate(712,990)" d="m0 0 4 2 18 18h-3l-6-5-5-6-5-5z" fill="#75AEAE"/>
<path transform="translate(693,965)" d="m0 0 5 1 1 6 7 10v3l-7-8-4-7v-3h-2z" fill="#75AEAE"/>
<path transform="translate(755,883)" d="m0 0h2v2l-17 11-4-1 16-10z" fill="#D5A63F"/>
<path transform="translate(961,790)" d="m0 0 2 1-1 7-8 3-4 3 2-4z" fill="#0D1F37"/>
<path transform="translate(982,791)" d="m0 0 10 5v2h-3l-1 2v-2l-4-1-4-3v-2z" fill="#2E6695"/>
<path transform="translate(1014,487)" d="m0 0 9 1 11 2v1l-14 1-6-3z" fill="#D0A745"/>
<path transform="translate(697,419)" d="m0 0 1 4-4 20-2 1 2-16z" fill="#D8A53B"/>
<path transform="translate(1146,264)" d="m0 0 4 2 7 8 4 3v2l-4-2-7-5z" fill="#0B2A53"/>
<path transform="translate(983,888)" d="m0 0 5 1 2 5 2 3-9-3-2-4z" fill="#336C9A"/>
<path transform="translate(1200,802)" d="m0 0 5 5 11 8h5l-1 3-5-1-10-7-5-6z" fill="#D8A53B"/>
<path transform="translate(973,651)" d="m0 0 2 1v5h-2l1 3-10 5-2-1 3-1v-2l4-1v-3l2-1z" fill="#3A7AAA"/>
<path transform="translate(1198,1014)" d="m0 0v3l-9 8h-2l-1 3-5 3-3-1 8-6z" fill="#0D315D"/>
<path transform="translate(1145,746)" d="m0 0h3l6 11 6 10-1 2-9-13-3-6v-3z" fill="#0C305C"/>
<path transform="translate(820,729)" d="m0 0 5 2 2 2 2 3-2 1-5-2-1 3-4-1 3-1 1-4z" fill="#2F6795"/>
<path transform="translate(919,701)" d="m0 0 4 2h3l-8 6-2-1-3-3z" fill="#0D2241"/>
<path transform="translate(701,402)" d="m0 0h1l-1 8-2 9h-2l-1 3 1-9 3-10z" fill="#D0A745"/>
<path transform="translate(650,983)" d="m0 0 2 1-8 5-9 3-3-1 8-4 2-2z" fill="#CDA74A"/>
<path transform="translate(1152,742)" d="m0 0 4 2 6 9 3 5-1 2-7-9-5-7z" fill="#D3A641"/>
<path transform="translate(961,697)" d="m0 0 2 1-4 4h-2v2l-6 4-2 2h-3l1-3z" fill="#081629"/>
<path transform="translate(949,658)" d="m0 0 5 1-1 3-8 6h-3l1-3 3-3v-2z" fill="#0E1D31"/>
<path transform="translate(967,479)" d="m0 0h12l6 2v1h-10l-13-1v-1z" fill="#DEA435"/>
<path transform="translate(1216,373)" d="m0 0 4 2 9 7 7 6v2l-4-2-11-10z" fill="#0D315D"/>
<path transform="translate(1028,367)" d="m0 0m-20 1h20v2l-2 1h-14z" fill="#BEA955"/>
<path transform="translate(1077,221)" d="m0 0 5 1 14 7-1 2-5-2-12-5z" fill="#0B2B54"/>
<path transform="translate(1223,812)" d="m0 0 1 2-3 9-4-2-4-4 1-2 3 2h3z" fill="#CAA94C"/>
<path transform="translate(1007,740)" d="m0 0h8l-2 2h-3l-2 7-3-1v-7z" fill="#0F1D32"/>
<path transform="translate(840,732)" d="m0 0 9 2 5 4h-5l-1 2-8-6z" fill="#102137"/>
<path transform="translate(1102,584)" d="m0 0 2 1-2 7-5 2-3-1 7-8z" fill="#0F1C30"/>
<path transform="translate(760,272)" d="m0 0m-1 1m-1 1m-1 1m-1 1m-1 1m-1 1m-1 1v3l-6 6h-2l2-4zm-9 9m-1 1m-2 1 2 1-5 4 2-4z" fill="#4983A9"/>
<path transform="translate(1089,222)" d="m0 0 5 2 15 8-4 1-14-7z" fill="#5891AA"/>
<path transform="translate(914,1030)" d="m0 0 11 1 4 2v2l-9-1-10-2z" fill="#4F88A7"/>
<path transform="translate(806,742)" d="m0 0 1 2-3 5h-2v2l-5 1 1-4z" fill="#0B1B31"/>
<path transform="translate(993,672)" d="m0 0 2 1-5 5-12 9-3-1 13-10z" fill="#08162A"/>
<path transform="translate(1041,205)" d="m0 0h7l4 2-1 2 11 3-4 1-17-7z" fill="#377099"/>
<path transform="translate(982,193)" d="m0 0h16l3 3-19-1z" fill="#457FA8"/>
<path transform="translate(776,967)" d="m0 0 5 2 5 6 9 6-2 1-9-6-3-3v-2l-4-2z" fill="#2B6391"/>
<path transform="translate(418,950)" d="m0 0 7 4 6 7 2 4-4-2-7-8-4-3z" fill="#0A254C"/>
<path transform="translate(752,793)" d="m0 0 3 1-7 3-11 7-3 3-2-1 5-5 11-7z" fill="#0D315D"/>
<path transform="translate(1103,793)" d="m0 0h7l1 2-4 7-8 4 1-4 6-1 1-7z" fill="#0D315D"/>
<path transform="translate(560,622)" d="m0 0h2l1 3-3 6-8 9-2-1 8-9z" fill="#CBA94C"/>
<path transform="translate(627,285)" d="m0 0 2 2-1 5-3 1v3h-2l1 4-5 2z" fill="#17406C"/>
<path transform="translate(776,283)" d="m0 0 2 1-2 4-8 6-1-3z" fill="#D5A63F"/>
<path transform="translate(827,249)" d="m0 0m-1 1m-1 1m-1 1m-2 1 2 1-5 4-2 3-4 3-2-1 1-4 6-2v-2z" fill="#FBB020"/>
<path transform="translate(416,766)" d="m0 0 1 3-4 7-4 4-2-1 7-12z" fill="#D6A541"/>
<path transform="translate(885,747)" d="m0 0h2l-1 3-12 8-4 2 2-4 11-7h2z" fill="#3480B9"/>
<path transform="translate(844,745)" d="m0 0 1 2v2l1-2h2l2 6-2 1-4-1h-3l1-7z" fill="#2C6492"/>
<path transform="translate(1057,616)" d="m0 0 5 1-4 4-8 5 1-4h2v-3z" fill="#E4AD39"/>
<path transform="translate(691,375)" d="m0 0 1 3-3 10-2 5-3 1 3-10z" fill="#5C96AB"/>
<path transform="translate(737,310)" d="m0 0 3 4-5 5h-3v-5l3-1v-2z" fill="#06101F"/>
<path transform="translate(1141,258)" d="m0 0 4 2 8 7 6 7h-3l-8-9-7-6z" fill="#2B6391"/>
<path transform="translate(431,1017)" d="m0 0 5 1 13 3 2 2-10-1-10-3z" fill="#D0A64A"/>
<path transform="translate(1184,930)" d="m0 0 1 2-6 8-2 1-1-3 6-7z" fill="#568FAA"/>
<path transform="translate(753,925)" d="m0 0h2v7l-4-2-4 1-1 4-3-1 3-5z" fill="#0E2039"/>
<path transform="translate(781,757)" d="m0 0h3l1 4 2 1-1 3h-5l-2-7z" fill="#0E1F37"/>
<path transform="translate(857,749)" d="m0 0 5 1-3 3h-6l-2 1-2 3-2-1v-2l5-4 5 1z" fill="#0B1B32"/>
<path transform="translate(885,735)" d="m0 0 2 1v3l-4 4-4 1v-5z" fill="#357DB2"/>
<path transform="translate(821,723)" d="m0 0 5 2 5 6-4 1-3-3-4-2z" fill="#2D6796"/>
<path transform="translate(804,709)" d="m0 0h3l5 5-1 2h-5l-1 6-2-3 2-8z" fill="#346E9D"/>
<path transform="translate(475,679)" d="m0 0 3 1-1 6-6 2-3 3 1-4z" fill="#DCA53A"/>
<path transform="translate(970,633)" d="m0 0h2l2 6 2-1 2 5-4 2-2-1z" fill="#3D7BAC"/>
<path transform="translate(678,416)" d="m0 0h3l-2 11-2 2-1 5h-1l1-10z" fill="#5992AA"/>
<path transform="translate(711,339)" d="m0 0h2l-1 6-3 7-5 3 2-5z" fill="#0B2A52"/>
<path transform="translate(1227,299)" d="m0 0h2l-1 4-3 5-2 1h-18v-1l19-1 2-6z" fill="#0D315D"/>
<path transform="translate(1113,259)" d="m0 0 5 2 11 9-3 1-11-9z" fill="#D0A745"/>
<path transform="translate(844,219)" d="m0 0h3l-1 3h-2l-1 3-7 2-4-1 8-4z" fill="#0A274F"/>
<path transform="translate(515,628)" d="m0 0 2 1-1 3h-2l-2 5-3 3-4 1 6-8z" fill="#D8A640"/>
<path transform="translate(1165,618)" d="m0 0 2 3 1 5-2 12h-1l-1-18z" fill="#EDAC2B"/>
<path transform="translate(1035,371)" d="m0 0 7 1 1 4-4 1-5-3z" fill="#A1AC9A"/>
<path transform="translate(1098,329)" d="m0 0h7l3 2 1 2-8 1v-2h-2z" fill="#F4AD23"/>
<path transform="translate(916,327)" d="m0 0h8v2l-11 2h-10v-1l8-1z" fill="#C5A950"/>
<path transform="translate(1144,737)" d="m0 0 6 5 1 4-6-2-2-5z" fill="#06101F"/>
<path transform="translate(920,714)" d="m0 0v3l-2 3-4 2-3 3-5 1 5-6z" fill="#265B89"/>
<path transform="translate(967,619)" d="m0 0 3 2h-2l2 3 4 2 1 4-4-1-4-4v-2l-2-1z" fill="#0D203A"/>
<path transform="translate(1032,513)" d="m0 0h3v3h6v1h-5l-1 3-3 2-3-1 3-5z" fill="#F2AD25"/>
<path transform="translate(920,475)" d="m0 0 20 2 3 3-10-1-13-3z" fill="#DEA435"/>
<path transform="translate(915,197)" d="m0 0h5l-4 2-13 3h-5v-2l9-2z" fill="#316998"/>
<path transform="translate(878,1091)" d="m0 0 6 1 10 3-3 2-6-1-5-2v-2z" fill="#5891AA"/>
<path transform="translate(384,990)" d="m0 0 4 2 11 8 1 3-4-2-8-6z" fill="#D5A644"/>
<path transform="translate(629,987)" d="m0 0 4 1-1 5-4 1-2-2v-3h3z" fill="#F4AE26"/>
<path transform="translate(730,463)" d="m0 0 2 1-2 4-5 3-4-2z" fill="#C8A94D"/>
<path transform="translate(1102,243)" d="m0 0h6l2 2v3l-6 1z" fill="#06101F"/>
<path transform="translate(1224,851)" d="m0 0 1 2-5 16h-1l1-12z" fill="#0D315D"/>
<path transform="translate(1094,831)" d="m0 0 2 1-10 9-6 5 2-4 7-8z" fill="#0D315D"/>
<path transform="translate(800,794)" d="m0 0 2 3-14 8 2-5 5-2 2-2h2z" fill="#3497D7"/>
<path transform="translate(939,711)" d="m0 0 2 1-10 8-6 3 2-5 5-2z" fill="#3A74A3"/>
<path transform="translate(464,694)" d="m0 0 1 4h-2v4l-8 6 2-5z" fill="#DAA63E"/>
<path transform="translate(1030,535)" d="m0 0 8 4 10 6-3 1-12-7-3-2z" fill="#F1AD28"/>
<path transform="translate(1043,541)" d="m0 0 9 3 3 5-4-1-8-5z" fill="#0E1B2F"/>
<path transform="translate(690,471)" d="m0 0 2 4 1 1h14l-4 2-4 1h-7l-2-2z" fill="#BEA955"/>
<path transform="translate(1016,136)" d="m0 0h14v2h4v2l-18-3z" fill="#4D87A6"/>
<path transform="translate(744,938)" d="m0 0 2 3 5 5 2 4-5-2-4-4z" fill="#548EAA"/>
<path transform="translate(1015,916)" d="m0 0 9 3v4l-6-2-3-2z" fill="#0A254C"/>
<path transform="translate(884,789)" d="m0 0 2 1-6 6-5 3-4 3-2-1z" fill="#EDAD2B"/>
<path transform="translate(1109,755)" d="m0 0 1 3h4l2 4v3h-2v-2l-5-2-1-5z" fill="#2B6391"/>
<path transform="translate(901,695)" d="m0 0v3l-3 6-4 3-1-3 6-8z" fill="#0D1A2D"/>
<path transform="translate(691,389)" d="m0 0 1 2-4 10-1 5h-1l1-12 2-4z" fill="#0B2B54"/>
<path transform="translate(930,327)" d="m0 0h6l6 4v2l-5-1-7-4z" fill="#C6A94F"/>
<path transform="translate(1241,272)" d="m0 0 4 5 2 5-1 1h-10v-1l8-1-3-6z" fill="#75AEAE"/>
<path transform="translate(1137,258)" d="m0 0 5 1 6 7h-3v-2l-4-1-4-2z" fill="#0A2851"/>
<path transform="translate(740,936)" d="m0 0 4 2-1 4-1-2-6 1-5 2 5-5z" fill="#95AC9F"/>
<path transform="translate(742,830)" d="m0 0 3 1h-2v2l-8 6-1-2h2l-1-4 3-2z" fill="#3395D5"/>
<path transform="translate(1212,817)" d="m0 0 4 2 3 3h4l-1 3-6-1-4-6z" fill="#112238"/>
<path transform="translate(1221,431)" d="m0 0 1 4-9 8v-3l4-5h2z" fill="#D4A640"/>
<path transform="translate(1086,424)" d="m0 0 8 1 3 5-2 4h-3l1-8-7-1z" fill="#CCA849"/>
<path transform="translate(1137,253)" d="m0 0 4 1 10 8-3 1-11-8z" fill="#558FAA"/>
<path transform="translate(713,999)" d="m0 0 7 6 8 7h-3l-8-7-4-4z" fill="#0D315D"/>
<path transform="translate(415,844)" d="m0 0 1 4-3 10-2-3v-5l3-3z" fill="#D4A640"/>
<path transform="translate(787,815)" d="m0 0 1 2h-2v2l-9 6-3-1z" fill="#0D315D"/>
<path transform="translate(914,722)" d="m0 0 4 1v2l-3 3h-2l1 3-7 1 3-4 3-3z" fill="#2C6492"/>
<path transform="translate(520,678)" d="m0 0v3l-3 5h-2l-2 5-2-1 8-11z" fill="#101E32"/>
<path transform="translate(953,661)" d="m0 0h2v5l-3 1h-3l-3 2v-3z" fill="#081527"/>
<path transform="translate(763,275)" d="m0 0h2l-2 4-6 6h-2l1-4z" fill="#0B2951"/>
<path transform="translate(743,931)" d="m0 0v3l-3 3-6 3-2-1 7-6z" fill="#CAA84B"/>
<path transform="translate(821,837)" d="m0 0h2l-1 7-5-1v-3z" fill="#E3A730"/>
<path transform="translate(807,717)" d="m0 0 4 2-2 10h-2v-5l-1-3z" fill="#3D79A9"/>
<path transform="translate(1256,488)" d="m0 0 3 1-4 5-6 3 2-4z" fill="#4B86AA"/>
<path transform="translate(916,132)" d="m0 0 5 1-4 2-11 2 3-3z" fill="#5790AA"/>
<path transform="translate(881,1026)" d="m0 0h8l7 1v2h-8l-7-2z" fill="#568FAA"/>
<path transform="translate(875,732)" d="m0 0 3 2-1 3-8 2h-3l1-2 7-4z" fill="#0E1F39"/>
<path transform="translate(1078,218)" d="m0 0 6 1 6 4 1 2-6-2-7-3z" fill="#4A84A9"/>
<path transform="translate(761,957)" d="m0 0 4 2 5 5 2 4-4-2-7-8z" fill="#5F98AB"/>
<path transform="translate(627,953)" d="m0 0 3 1-4 3-3 1h-7l3-2z" fill="#D4A640"/>
<path transform="translate(791,897)" d="m0 0 2 1-6 7-4 1 1-4z" fill="#D4A640"/>
<path transform="translate(1098,822)" d="m0 0 4 1 1 5-3 3-4-1 3-2 1-5z" fill="#0D315D"/>
<path transform="translate(703,791)" d="m0 0h1v5l-5 1h-3v-2h2l1-2z" fill="#F4A617"/>
<path transform="translate(865,759)" d="m0 0v3h-3v2l2 1-4 2h-4l2-4z" fill="#3B77A7"/>
<path transform="translate(794,727)" d="m0 0 4 2-3 5-3-1-1-4z" fill="#0B2951"/>
<path transform="translate(994,653)" d="m0 0 5 5 3 5-5-2-4-5z" fill="#2A618F"/>
<path transform="translate(1090,242)" d="m0 0 5 1 4 3v2l-5-1-4-4z" fill="#0C2241"/>
<path transform="translate(809,239)" d="m0 0 4 1-7 4-4 3-2-1 4-4z" fill="#0A274F"/>
<path transform="translate(1163,755)" d="m0 0 10 10-1 3-4-5-3-2z" fill="#D8A53B"/>
<path transform="translate(1078,737)" d="m0 0 3 1 1 2h3v2l-5 2-3-3z" fill="#0A2850"/>
<path transform="translate(914,730)" d="m0 0m-2 1 2 1-4 4-3 2v3l-3-3 5-5z" fill="#0F2037"/>
<path transform="translate(893,731)" d="m0 0 2 2-8 6-2-1 2-4z" fill="#3389C6"/>
<path transform="translate(868,731)" d="m0 0 2 1-3 5-3 1-2 3-1-4z" fill="#0F1D32"/>
<path transform="translate(1127,727)" d="m0 0 6 3 3 3-1 3-4-5h-5l-2 1 1-4z" fill="#0B2B55"/>
<path transform="translate(940,699)" d="m0 0 1 2 2 1-3 2-1 1-5 1 2-3-1-2z" fill="#2B6391"/>
<path transform="translate(980,345)" d="m0 0 3 2v2l6 2 3 3-5-1-5-3z" fill="#FBB020"/>
<path transform="translate(849,234)" d="m0 0h5l-4 3-6 3h-3l4-4z" fill="#D8A53C"/>
<path transform="translate(864,228)" d="m0 0 4 1-12 5h-5l4-2z" fill="#D5A63F"/>
<path transform="translate(905,134)" d="m0 0 4 1-8 4h-2l-1-3z" fill="#3F78A0"/>
</svg>
